<svg version="1" xmlns="http://www.w3.org/2000/svg" width="346.667" height="346.667" viewBox="0 0 260.000000 260.000000"><path d="M110.5 1.5C82.8 5.9 60.1 17.2 40.2 36.4c-21.8 21-34.2 45-38.8 75.1-3.2 20.9-.6 44.3 7 64.2 5.8 15.3 15.1 30.5 24.6 40.5l5.5 5.8 4.9-4.7 4.8-4.6-2.7-5.6C39 193.8 27.2 179.2 16.3 171c-7.9-5.9-8.2-6.3-5.1-5.1 6.5 2.4 15.1 7.5 22.6 13 19.6 14.8 32.7 37.3 36.7 63.1.4 3.2 1.2 3.9 6 6.3 4 1.9 5.7 2.4 6 1.5 3.8-11.9 5.9-35.5 4.5-51.2-3.2-36.9-17-66.5-43-92.7-6.3-6.3-14.3-13.5-17.8-15.9-3.4-2.4-6-4.5-5.8-4.7.7-.8 14.5 5.7 23 10.7 30.6 18.2 54.4 50.4 62 84 1 4.1 2 8.2 2.2 9 .3.8 2-2 3.8-6.2 7-16.1 20.9-33.2 35.3-43.5l6.3-4.5-1.9-2.6c-3-4.2-15-15.4-22-20.5-3.5-2.6-6-4.7-5.6-4.7.4 0 5 2 10.1 4.4 9.8 4.7 16 8.5 23.5 14.8l4.7 3.8 5.8-2.6c10.4-4.6 20.4-7.1 13.2-3.4-2.1 1.1-6.2 3.7-9.2 5.8l-5.4 3.9 6 6.9c7.4 8.6 12.8 16.7 17.4 26.2 3.1 6.4 3.8 7.2 5.7 6.6 2.1-.6 2.1-.5.4.8-1.4 1-1.7 2.1-1.2 4.1.4 1.5 1.1 2.9 1.5 3.2.4.2 3.4-3.7 6.6-8.7 11-16.9 28.8-31.1 48.2-38.4 8.3-3.1 8.7-3.4 9-6.6.5-4.7-1.6-20.9-3.8-29.9-4-15.6-11.8-31.9-22.1-45.9-5.5-7.5-20.1-21.9-27.4-27.1-28.1-20-63.3-28.6-96-23.4z"/><path d="M250.3 138.2c-15.9 10.6-32.1 30.2-39.3 47.6-5.4 12.7-8.1 25.2-8.7 39.6l-.6 12.9 4.9-3.4c2.6-1.9 8.4-6.8 12.7-10.9 19.3-18.2 33.3-43.9 38.1-69.5 2-11.1 2.9-21.5 1.7-21.5-.5 0-4.5 2.3-8.8 5.2zM151.9 146.7c-18.6 19.6-30 45.8-32.4 74.3-.7 8.2.8 25.6 2.8 33.5l1.3 5 6.1.3 6 .3.6-10.4c.6-11.3 2.4-19.4 6.4-29.5l2.6-6.5-3.4-2.9-3.4-2.9 3.2 1.5c1.8.9 3.7 1.6 4.2 1.6.6 0 2.4-2.1 4.2-4.8 4.5-6.7 14.4-16.7 21.2-21.3 3.1-2.2 5.7-4.5 5.7-5.1 0-4-12.5-30.2-17.3-36.2l-2.2-2.8-5.6 5.9z"/><path d="M171.3 194c-3.2 3.9-7.9 10.7-10.5 15.2l-4.7 8.1 6.8 7.3c4.9 5.3 8.2 10.1 11.4 16.5l4.5 9.1 1.5-8.8c.9-4.9 1.8-12.5 2.1-16.9 1-12.5-2-37.5-4.5-37.5-.4 0-3.4 3.2-6.6 7zM44.7 219.7l-3.6 4.8 2 2.1c1.1 1.2 4.1 3.6 6.6 5.4l4.6 3.3-.7-3.9c-.7-4.1-4.5-16.4-5.1-16.4-.2 0-1.9 2.1-3.8 4.7zM152.7 228.7c-1.9 6.6-3.6 18.5-3.7 25 0 5 .4 5.1 10.8 2.8 10-2.3 9.9-2.1 7.3-10.2-2.2-6.7-7.3-16.5-10.9-21.2l-1.9-2.3-1.6 5.9zM103.3 253.7c-1 2.7-.9 3.2.8 3.6 2 .5 2.2-.1 1-4.3l-.7-2.5-1.1 3.2z"/></svg>