<svg xmlns="http://www.w3.org/2000/svg" viewBox="0 0 321.06 386.22"><defs><filter id="karte_svg__a" filterUnits="userSpaceOnUse"><feOffset/><feGaussianBlur result="blur" stdDeviation="2.83"/><feFlood flood-color="#000001" flood-opacity=".4"/><feComposite in2="blur" operator="in"/><feComposite in="SourceGraphic"/></filter><filter id="karte_svg__b" filterUnits="userSpaceOnUse"><feOffset/><feGaussianBlur result="blur-2" stdDeviation="2.83"/><feFlood flood-color="#000001" flood-opacity=".4"/><feComposite in2="blur-2" operator="in"/><feComposite in="SourceGraphic"/></filter></defs><path style="fill:#fff" d="m65.74 282.5 13.81-9.68v-10.31l17.12-21.37 8.39-41.79 10.56-7.31 3.57-2.56 3.07-2.92 4.44-4.44 2.61-7.45-10.87-4.73.04-.06-.18-.07-6.13-16-1.45-8.07h-9.87l-7.26 11.46-13.52 6.6v.31l.01.3v5.78l-4.4 2.2-8.14 6.33-6.99 4.99-6.59-.94-9.98 4.58-3.61 10.31-12.68-7.1-7.14.69.3 1.96-5.95 13.88 8.03 9.97-2.97 8.38v.08l7.98 17.29 18.58 1.39 22.57 9.84 1.12.51-2.43 2.76-9.39 22.99-1.11 2.74-2.66 6.52 11.46-2.01-.34-5.05zM249.11 143.48l-6.58-4.38-.32-.22-3.62-13.03 2.34-10.36-9.08-24.3-8.68-5.56v-7.91l5.93-13.18-6.6-18.22-7.69-2.67-6.01-14.36L198.31 27l-7.65-8.99-11.23-.89-6.76 10.31-17.54 9.93-.3 1.53 6.48 10.71-18.12 2.6-3.18 12.46 2.38 4.79 22.59 9.21-17.38 24.24-2.55 21.21 5.34 4.31-4.58 14.53L180 157.42l-1.19-15.72 24.14-7.02 1.71 9.78h5.65l-.77-2.76 17.59-4.11v7.58l8.79 14.81 3.19.32 8.32 6.6 2.63-8.65-.95-14.77z"/><path style="fill:#fff" d="m76.93 161.92 14.59-7.05 7.68-12.13h14.04l1.85 10.41 5.26 13.63 16.7-27.52 6.04 2.42 3.83-12.21-5.04-4.06 2.84-23.63 15.61-21.77-20.13-8.21-3.38-6.8 3.96-15.48 15.62-2.25-3.6-5.93-14.96 2.49-2.64-9.66 7.23-6.57-2.16-4.33-4.89 2.3-22-6.72 2.77-7.11-1.65-5.77-6.22-1.98-6.77 1.35L86.5 0l-2.68.96 7.86 19.81-6.83 1.08.37 2.88 4.89 1.4-.37 9.48 2.9 4.63 9.82 5.26-.89 2.62-16.64-2.78-3.02.93-1.22 16.27-3.99-4.89-1.14.83-1.58 6.77-5.9-2.15-3.57-12.36-11.61.6-8.63 3.87-.52 8.86h4.97l-6.69 32.34h-7.65l-.63 4.65 8.42 1.83-9.64 16.43 2.11 2.86-.92 2.98-6.97 4.18-9.08-1.43-6.43 4.16 5.28 9.24-2.04 16.82-4 4.45 9.31 23.75.28 1.8 8.3-.8 10.26 5.75 2.82-8.04 12.04-5.52 6.26.89 5.91-4.22 8.47-6.55 1.41-.71 1.39-.73v-6.28zM53.28 292.84l-4.11 10.07 1.99 7.98 22.82.9 8.25-5.35 32.74 5.95.93.94 2.42 2.42 8.31 8.3 4.28-10.29 11.91-.43 3.95.77 2.74 5.48 9.23-3.35 13.57-5.34 25.08-4.42 5.93 2.69 1.03-.67-7.45-18.79-13.11-.42-4.6 5.1-9.15-4.7 1.68-11.41h-19.8v11.82l-19.22 2.62-.21-.02-7.27-.96-2.92-.38-17.52-2.29 1.75-18.32-9.38-2.34-15.37 6.52-12.93 9.07.4 6.05-15.04 2.64-.93.16z"/><path style="fill:#fff" d="m207.95 245.08-2.81-2.25-7.61-6.09-12.56-15.56 1.91-9.05-5.88-6.34.31-.88 1.62-10.38 8.27-5.64 8.1-1.02 19.43-12.17 2.71-1.69 12.72-7.96-.51-4.01-9.52-16.04v-4.63l-10.86 2.53 1 3.56h-12.13l-1.57-8.97-18.59 5.41 1.39 18.21-39.18-16.59v-.01l-5.83-2.33-15.35 25.31 1.15.58 9.07 3.93-3.79 10.86-8.74 8.3-12.94 8.97-8.29 41.32-16.92 21.12v7.63l14.37-6.99 12.83 4.34-1.71 17.91 24.64 3.22 16.24-2.19v-12.22h26.27l-1.86 12.64 5.12 2.81 4.05-4.48 13.46.43 13.5-8.01 6.48-11.94h7.43l2.26-7.93-8.78-6.59-8.9-7.12z"/><path style="fill:none" d="m145.89 142.8-.12.38.12-.38z"/><g style="filter:url(#karte_svg__a)"><path style="fill:#fff" d="m132.18 344.47-1.46-3.5-6.84 3.85-22.35-10.12 10.34-19.73-28.99-5.27-8.05 5.21-24.37-.95-7.26 5.8-9.8-1.28.39 5.07-15.96 15.47-.96 7.74-11.54 9.62-2.18 13.08 13.26-9.24 9.93.61-2.08 11.98 10.9 11.78 19.19-3.12 18.48-17.73 15.18 22.48 3.43-1.43-.87-7.87 8.28-20.41 8.7 9.78 10.76-2.48 3.18 4.25 2.06-2.06-3.4-6.06 4-8.64 3.4 2.43 4.63-9.26z"/></g><g style="filter:url(#karte_svg__b)"><path style="fill:#fff" d="m204.82 313.11-7.83-3.43-23.85 4.21-25.15 9.55-3.54-7.08-11.44.42-5.3 12.73-13.1-13.1-8.82 16.83 17.94 8.11 8.51-4.78 2.74 6.58 14.7 1.52 3.21-7.25 30.31-6.17 7.84 16.66 63.7 8.89 12.29-10.87 29.05-3.81 11.28-16.25-1.47-16.12 4.32-3.24.96-1.44-7.4-5.54-1.79-1.35 19.08-4.24-7.19-38.22-52.89-7.82-7.22 16.83-25.25-4.76-2.81 9.84h-7.92l-6 11.08-12.18 7.22 8.83 22.71-3.61 2.29z"/></g><g style="opacity:.94"><path d="M55.42 338.95c1.23-.03 1.42 1.07 1.42 1.84l-1 .09c0-.46-.07-1-.41-1-.26 0-.35.29-.35.69 0 .47.41 1 .8 1.58.47.71.95 1.4.95 2.14 0 .92-.3 1.74-1.41 1.74-1.31 0-1.48-.99-1.48-2.02l1-.09c0 .58.06 1.18.48 1.18.3 0 .42-.33.42-.76 0-.46-.43-1.02-.82-1.6-.48-.71-.93-1.42-.93-2.16s.37-1.6 1.33-1.62ZM60.42 343.58v.95s0 1.5-1.36 1.5-1.36-1.5-1.36-1.5v-4.08s0-1.5 1.36-1.5 1.36 1.5 1.36 1.5v.95h-.95v-.95s.04-.51-.39-.51c-.36 0-.36.51-.36.51v4.08s0 .51.36.51c.42 0 .39-.51.39-.51v-.95h.95ZM63.22 342.94h-.79v3.02h-1.02v-6.93h1.02v2.87h.79v-2.87h1.02v6.93h-1.02v-3.02ZM66.83 345.96h-.79l-.93-6.93h.94l.41 3.6.02.23h.08l.03-.23.43-3.6h.74l.43 3.6.03.23h.08l.02-.23.41-3.6h.94l-.93 6.93h-.79l-.47-3.28-.06-.41h-.04l-.06.41-.47 3.28ZM70.52 339.03h2.33v1.05h-1.31v1.82h.94v1.11h-.94v1.9h1.31v1.05h-2.33v-6.93ZM73.8 339.03h1.02v6.93H73.8v-6.93ZM75.67 344.86l1.59-4.83h-1.37v-1.01h2.47v1.01l-1.62 4.91h1.62v1.01h-2.7v-1.09Z" style="fill:#92c01a"/></g><g style="opacity:.4"><path d="M157 310.02c0 .14-.02 1.14-1 1.14s-1-1-1-1.14v-.6c0-.37.13-.76.39-1-.23-.23-.35-.59-.35-.94v-.43c0-.13.02-1.09.96-1.09s.96.96.96 1.09v.43c0 .35-.12.71-.35.94.26.24.39.63.39 1v.6Zm-1-1.2c-.26 0-.27.29-.27.9 0 .55.06.75.27.75.26 0 .27-.28.27-.75 0-.61-.01-.9-.27-.9Zm0-2.2c-.17 0-.21.17-.22.7 0 .53.03.77.22.77s.22-.24.22-.77c0-.46-.03-.7-.22-.7ZM157.64 307.63v-.35c0-.69.18-1.32 1-1.32.76 0 1 .57 1 1.27 0 1.04-.79 2.49-1.17 3.14h1.18v.74h-2.03v-.74s1.23-1.84 1.27-3.09c0-.28-.03-.62-.25-.62-.21 0-.25.3-.25.62v.35h-.75Z" style="fill:#999390"/></g><g style="opacity:.4"><path d="M58.14 298.17h-1.12v-.74h1.88v.75l-.75 4.34h-.78l.76-4.35ZM59.46 298.48c0-.24.06-1.1.98-1.1s.98.86.98 1.1v2.9c0 .36-.04 1.21-.98 1.21s-.98-.85-.98-1.21v-.32h.75c0 .69.01.87.23.87.19 0 .23-.17.23-.55v-.96c-.12.08-.24.12-.37.12-.77 0-.83-.79-.83-1.07v-.99Zm1.21-.22c0-.06-.06-.23-.23-.23-.16 0-.23.17-.23.23v1.48c0 .06.07.23.23.23s.22-.14.23-.21v-1.5Z" style="fill:#999390"/></g><g style="opacity:.4"><path d="M75.93 298.17h-1.12v-.74h1.88v.75l-.75 4.34h-.78l.76-4.35ZM79.22 301.44c0 .14-.02 1.14-1 1.14s-1-1-1-1.14v-.6c0-.37.13-.76.39-1-.23-.23-.35-.59-.35-.94v-.43c0-.13.02-1.09.96-1.09s.96.96.96 1.09v.43c0 .35-.12.71-.35.94.26.24.39.63.39 1v.6Zm-1-1.2c-.26 0-.27.29-.27.9 0 .55.06.75.27.75.26 0 .27-.28.27-.75 0-.61-.01-.9-.27-.9Zm0-2.2c-.17 0-.21.17-.22.7 0 .53.03.77.22.77s.22-.24.22-.77c0-.46-.03-.7-.22-.7Z" style="fill:#999390"/></g><g style="opacity:.4"><path d="M103.64 301.44c0 .14-.02 1.14-1 1.14s-1-1-1-1.14v-.6c0-.37.13-.76.39-1-.23-.23-.35-.59-.35-.94v-.43c0-.13.02-1.09.96-1.09s.96.96.96 1.09v.43c0 .35-.12.71-.35.94.26.24.39.63.39 1v.6Zm-1-1.2c-.26 0-.27.29-.27.9 0 .55.06.75.27.75.26 0 .27-.28.27-.75 0-.61-.01-.9-.27-.9Zm0-2.2c-.17 0-.21.17-.22.7 0 .53.03.77.22.77s.22-.24.22-.77c0-.46-.03-.7-.22-.7ZM106.27 301.44c0 .14-.02 1.14-1 1.14s-1-1-1-1.14v-.6c0-.37.13-.76.39-1-.23-.23-.35-.59-.35-.94v-.43c0-.13.02-1.09.96-1.09s.96.96.96 1.09v.43c0 .35-.12.71-.35.94.26.24.39.63.39 1v.6Zm-1-1.2c-.26 0-.27.29-.27.9 0 .55.06.75.27.75.26 0 .27-.28.27-.75 0-.61-.01-.9-.27-.9Zm0-2.2c-.17 0-.21.17-.22.7 0 .53.03.77.22.77s.22-.24.22-.77c0-.46-.03-.7-.22-.7Z" style="fill:#999390"/></g><g style="opacity:.4"><path d="M139.21 301.44c0 .14-.02 1.14-1 1.14s-1-1-1-1.14v-.6c0-.37.13-.76.39-1-.23-.23-.35-.59-.35-.94v-.43c0-.13.02-1.09.96-1.09s.96.96.96 1.09v.43c0 .35-.12.71-.35.94.26.24.39.63.39 1v.6Zm-1-1.2c-.26 0-.27.29-.27.9 0 .55.06.75.27.75.26 0 .27-.28.27-.75 0-.61-.01-.9-.27-.9Zm0-2.2c-.17 0-.21.17-.22.7 0 .53.03.77.22.77s.22-.24.22-.77c0-.46-.03-.7-.22-.7ZM140.82 298.17h-1.12v-.74h1.88v.75l-.75 4.34h-.78l.76-4.35Z" style="fill:#999390"/></g><g style="opacity:.4"><path d="M157 301.44c0 .14-.02 1.14-1 1.14s-1-1-1-1.14v-.6c0-.37.13-.76.39-1-.23-.23-.35-.59-.35-.94v-.43c0-.13.02-1.09.96-1.09s.96.96.96 1.09v.43c0 .35-.12.71-.35.94.26.24.39.63.39 1v.6Zm-1-1.2c-.26 0-.27.29-.27.9 0 .55.06.75.27.75.26 0 .27-.28.27-.75 0-.61-.01-.9-.27-.9Zm0-2.2c-.17 0-.21.17-.22.7 0 .53.03.77.22.77s.22-.24.22-.77c0-.46-.03-.7-.22-.7ZM157.64 299.05v-.35c0-.69.18-1.32 1-1.32.76 0 1 .57 1 1.27 0 1.04-.79 2.49-1.17 3.14h1.18v.74h-2.03v-.74s1.23-1.84 1.27-3.09c0-.28-.03-.62-.25-.62-.21 0-.25.3-.25.62v.35h-.75Z" style="fill:none"/></g><g style="opacity:.4"><path d="M183.68 301.44c0 .14-.02 1.14-1 1.14s-1-1-1-1.14v-.6c0-.37.13-.76.39-1-.23-.23-.35-.59-.35-.94v-.43c0-.13.02-1.09.96-1.09s.96.96.96 1.09v.43c0 .35-.12.71-.35.94.26.24.39.63.39 1v.6Zm-1-1.2c-.26 0-.27.29-.27.9 0 .55.06.75.27.75.26 0 .27-.28.27-.75 0-.61-.01-.9-.27-.9Zm0-2.2c-.17 0-.21.17-.22.7 0 .53.03.77.22.77s.22-.24.22-.77c0-.46-.03-.7-.22-.7ZM184.91 300.22v-.62c.62-.03.57-.26.57-.91 0-.29 0-.66-.24-.66-.19 0-.21.18-.22.87h-.73c0-.58.02-1.52.96-1.52s.97.96.97 1.09c0 .75-.13 1.12-.36 1.34.36.29.43.82.43 1.41 0 .13-.03 1.36-.97 1.36s-.99-.95-.99-1.52h.73c0 .69.07.87.26.87.24 0 .24-.35.24-.64 0-.64.08-1.02-.57-1.05h-.06Z" style="fill:#999390"/></g><g style="opacity:.4"><path d="M75.93 289.59h-1.12v-.74h1.88v.75l-.75 4.34h-.78l.76-4.35ZM79.22 292.85c0 .14-.02 1.14-1 1.14s-1-1-1-1.14v-.6c0-.37.13-.76.39-1-.23-.23-.35-.59-.35-.94v-.43c0-.13.02-1.09.96-1.09s.96.96.96 1.09v.43c0 .35-.12.71-.35.94.26.24.39.63.39 1v.6Zm-1-1.2c-.26 0-.27.29-.27.9 0 .55.06.75.27.75.26 0 .27-.28.27-.75 0-.61-.01-.9-.27-.9Zm0-2.2c-.17 0-.21.17-.22.7 0 .53.03.77.22.77s.22-.24.22-.77c0-.46-.03-.7-.22-.7Z" style="fill:none"/></g><g style="opacity:.4"><path d="M112.53 292.85c0 .14-.02 1.14-1 1.14s-1-1-1-1.14v-.6c0-.37.13-.76.39-1-.23-.23-.35-.59-.35-.94v-.43c0-.13.02-1.09.96-1.09s.96.96.96 1.09v.43c0 .35-.12.71-.35.94.26.24.39.63.39 1v.6Zm-1-1.2c-.26 0-.27.29-.27.9 0 .55.06.75.27.75.26 0 .27-.28.27-.75 0-.61-.01-.9-.27-.9Zm0-2.2c-.17 0-.21.17-.22.7 0 .53.03.77.22.77s.22-.24.22-.77c0-.46-.03-.7-.22-.7ZM115.16 292.85c0 .14-.02 1.14-1 1.14s-1-1-1-1.14v-.6c0-.37.13-.76.39-1-.23-.23-.35-.59-.35-.94v-.43c0-.13.02-1.09.96-1.09s.96.96.96 1.09v.43c0 .35-.12.71-.35.94.26.24.39.63.39 1v.6Zm-1-1.2c-.26 0-.27.29-.27.9 0 .55.06.75.27.75.26 0 .27-.28.27-.75 0-.61-.01-.9-.27-.9Zm0-2.2c-.17 0-.21.17-.22.7 0 .53.03.77.22.77s.22-.24.22-.77c0-.46-.03-.7-.22-.7Z" style="fill:none"/></g><g style="opacity:.4"><path d="M93.72 281H92.6v-.74h1.88v.75l-.75 4.34h-.78l.76-4.35ZM95.05 281.88v-.35c0-.69.18-1.32 1-1.32.76 0 1 .57 1 1.27 0 1.04-.79 2.49-1.17 3.14h1.18v.74h-2.03v-.74s1.23-1.84 1.27-3.09c0-.28-.03-.62-.25-.62-.21 0-.25.3-.25.62v.35h-.75Z" style="fill:#999390"/></g><g style="opacity:.4"><path d="M112.53 284.27c0 .14-.02 1.14-1 1.14s-1-1-1-1.14v-.6c0-.37.13-.76.39-1-.23-.23-.35-.59-.35-.94v-.43c0-.13.02-1.09.96-1.09s.96.96.96 1.09v.43c0 .35-.12.71-.35.94.26.24.39.63.39 1v.6Zm-1-1.2c-.26 0-.27.29-.27.9 0 .55.06.75.27.75.26 0 .27-.28.27-.75 0-.61-.01-.9-.27-.9Zm0-2.2c-.17 0-.21.17-.22.7 0 .53.03.77.22.77s.22-.24.22-.77c0-.46-.03-.7-.22-.7ZM113.18 281.31c0-.24.06-1.1.98-1.1s.98.86.98 1.1v2.9c0 .36-.04 1.21-.98 1.21s-.98-.85-.98-1.21v-.32h.75c0 .69.01.87.23.87.19 0 .23-.17.23-.55v-.96c-.12.08-.24.12-.37.12-.77 0-.83-.79-.83-1.07v-.99Zm1.21-.22c0-.06-.06-.23-.23-.23-.16 0-.23.17-.23.23v1.48c0 .06.07.23.23.23s.22-.14.23-.21v-1.5Z" style="fill:#999390"/></g><g style="opacity:.4"><path d="M130.32 284.27c0 .14-.02 1.14-1 1.14s-1-1-1-1.14v-.6c0-.37.13-.76.39-1-.23-.23-.35-.59-.35-.94v-.43c0-.13.02-1.09.96-1.09s.96.96.96 1.09v.43c0 .35-.12.71-.35.94.26.24.39.63.39 1v.6Zm-1-1.2c-.26 0-.27.29-.27.9 0 .55.06.75.27.75.26 0 .27-.28.27-.75 0-.61-.01-.9-.27-.9Zm0-2.2c-.17 0-.21.17-.22.7 0 .53.03.77.22.77s.22-.24.22-.77c0-.46-.03-.7-.22-.7ZM130.97 281.31c0-.24.06-1.1.98-1.1s.98.86.98 1.1v2.9c0 .36-.04 1.21-.98 1.21s-.98-.85-.98-1.21v-.32h.75c0 .69.01.87.23.87.19 0 .23-.17.23-.55v-.96c-.12.08-.24.12-.37.12-.77 0-.83-.79-.83-1.07v-.99Zm1.21-.22c0-.06-.06-.23-.23-.23-.16 0-.23.17-.23.23v1.48c0 .06.07.23.23.23s.22-.14.23-.21v-1.5Z" style="fill:#999390"/></g><g style="opacity:.4"><path d="M139.21 284.27c0 .14-.02 1.14-1 1.14s-1-1-1-1.14v-.6c0-.37.13-.76.39-1-.23-.23-.35-.59-.35-.94v-.43c0-.13.02-1.09.96-1.09s.96.96.96 1.09v.43c0 .35-.12.71-.35.94.26.24.39.63.39 1v.6Zm-1-1.2c-.26 0-.27.29-.27.9 0 .55.06.75.27.75.26 0 .27-.28.27-.75 0-.61-.01-.9-.27-.9Zm0-2.2c-.17 0-.21.17-.22.7 0 .53.03.77.22.77s.22-.24.22-.77c0-.46-.03-.7-.22-.7ZM141.84 284.31c0 .24-.06 1.1-.98 1.1s-.98-.86-.98-1.1v-2.9c0-.36.04-1.21.98-1.21s.98.85.98 1.21v.32h-.75c0-.69-.01-.87-.23-.87-.19 0-.23.17-.23.55v.91c.12-.08.24-.12.37-.12.77 0 .83.79.83 1.07v1.04Zm-.98.45c.16 0 .23-.17.23-.23v-1.52c0-.06-.07-.23-.23-.23s-.22.14-.23.21v1.54c0 .06.06.23.23.23Z" style="fill:#999390"/></g><g style="opacity:.4"><path d="M157 284.27c0 .14-.02 1.14-1 1.14s-1-1-1-1.14v-.6c0-.37.13-.76.39-1-.23-.23-.35-.59-.35-.94v-.43c0-.13.02-1.09.96-1.09s.96.96.96 1.09v.43c0 .35-.12.71-.35.94.26.24.39.63.39 1v.6Zm-1-1.2c-.26 0-.27.29-.27.9 0 .55.06.75.27.75.26 0 .27-.28.27-.75 0-.61-.01-.9-.27-.9Zm0-2.2c-.17 0-.21.17-.22.7 0 .53.03.77.22.77s.22-.24.22-.77c0-.46-.03-.7-.22-.7ZM158.68 285.41c-1 0-1-1.1-1-1.1v-3s0-1.1 1-1.1 1 1.1 1 1.1v3s0 1.1-1 1.1Zm0-4.48c-.26 0-.25.37-.25.37v3s-.01.37.25.37.25-.37.25-.37v-3s.01-.37-.25-.37Z" style="fill:#999390"/></g><g style="opacity:.4"><path d="M165.89 284.27c0 .14-.02 1.14-1 1.14s-1-1-1-1.14v-.6c0-.37.13-.76.39-1-.23-.23-.35-.59-.35-.94v-.43c0-.13.02-1.09.96-1.09s.96.96.96 1.09v.43c0 .35-.12.71-.35.94.26.24.39.63.39 1v.6Zm-1-1.2c-.26 0-.27.29-.27.9 0 .55.06.75.27.75.26 0 .27-.28.27-.75 0-.61-.01-.9-.27-.9Zm0-2.2c-.17 0-.21.17-.22.7 0 .53.03.77.22.77s.22-.24.22-.77c0-.46-.03-.7-.22-.7ZM166.43 281.36v-.48c.62-.12.8-.62.8-.62h.45v5.09h-.75v-3.99h-.5Z" style="fill:#999390"/></g><g style="opacity:.4"><path d="M67.03 272.42h-1.12v-.74h1.88v.75l-.75 4.34h-.78l.76-4.35ZM69.31 272.42h-1.12v-.74h1.88v.75l-.75 4.34h-.78l.76-4.35Z" style="fill:#999390"/></g><g style="opacity:.4"><path d="M139.21 275.68c0 .14-.02 1.14-1 1.14s-1-1-1-1.14v-.6c0-.37.13-.76.39-1-.23-.23-.35-.59-.35-.94v-.43c0-.13.02-1.09.96-1.09s.96.96.96 1.09v.43c0 .35-.12.71-.35.94.26.24.39.63.39 1v.6Zm-1-1.2c-.26 0-.27.29-.27.9 0 .55.06.75.27.75.26 0 .27-.28.27-.75 0-.61-.01-.9-.27-.9Zm0-2.2c-.17 0-.21.17-.22.7 0 .53.03.77.22.77s.22-.24.22-.77c0-.46-.03-.7-.22-.7ZM141.84 275.73c0 .24-.06 1.1-.98 1.1s-.98-.86-.98-1.1v-2.9c0-.36.04-1.21.98-1.21s.98.85.98 1.21v.32h-.75c0-.69-.01-.87-.23-.87-.19 0-.23.17-.23.55v.91c.12-.08.24-.12.37-.12.77 0 .83.79.83 1.07v1.04Zm-.98.45c.16 0 .23-.17.23-.23v-1.52c0-.06-.07-.23-.23-.23s-.22.14-.23.21v1.54c0 .06.06.23.23.23Z" style="fill:none"/></g><g style="opacity:.4"><path d="M164.95 276.83c-1 0-1-1.1-1-1.1v-3s0-1.1 1-1.1 1 1.1 1 1.1v3s0 1.1-1 1.1Zm0-4.48c-.26 0-.25.37-.25.37v3s-.01.37.25.37.25-.37.25-.37v-3s.01-.37-.25-.37ZM167.67 276.83c-1 0-1-1.1-1-1.1v-3s0-1.1 1-1.1 1 1.1 1 1.1v3s0 1.1-1 1.1Zm0-4.48c-.26 0-.25.37-.25.37v3s-.01.37.25.37.25-.37.25-.37v-3s.01-.37-.25-.37Z" style="fill:none"/></g><g style="opacity:.4"><path d="M192.58 275.68c0 .14-.02 1.14-1 1.14s-1-1-1-1.14v-.6c0-.37.13-.76.39-1-.23-.23-.35-.59-.35-.94v-.43c0-.13.02-1.09.96-1.09s.96.96.96 1.09v.43c0 .35-.12.71-.35.94.26.24.39.63.39 1v.6Zm-1-1.2c-.26 0-.27.29-.27.9 0 .55.06.75.27.75.26 0 .27-.28.27-.75 0-.61-.01-.9-.27-.9Zm0-2.2c-.17 0-.21.17-.22.7 0 .53.03.77.22.77s.22-.24.22-.77c0-.46-.03-.7-.22-.7ZM194.27 275.66h-1.16V275l1.09-3.33h.75V275h.35v.66h-.35v1.11h-.69v-1.11Zm-.52-.66h.52v-1.75h-.04l-.04.15-.44 1.59Z" style="fill:#999390"/></g><g style="opacity:.4"><path d="M84.82 263.84H83.7v-.74h1.88v.75l-.75 4.34h-.78l.76-4.35ZM86.06 264.2v-.48c.62-.12.8-.62.8-.62h.45v5.09h-.75v-3.99h-.5Z" style="fill:#999390"/></g><g style="opacity:.4"><path d="M130.32 267.1c0 .14-.02 1.14-1 1.14s-1-1-1-1.14v-.6c0-.37.13-.76.39-1-.23-.23-.35-.59-.35-.94v-.43c0-.13.02-1.09.96-1.09s.96.96.96 1.09v.43c0 .35-.12.71-.35.94.26.24.39.63.39 1v.6Zm-1-1.2c-.26 0-.27.29-.27.9 0 .55.06.75.27.75.26 0 .27-.28.27-.75 0-.61-.01-.9-.27-.9Zm0-2.2c-.17 0-.21.17-.22.7 0 .53.03.77.22.77s.22-.24.22-.77c0-.46-.03-.7-.22-.7ZM130.97 264.14c0-.24.06-1.1.98-1.1s.98.86.98 1.1v2.9c0 .36-.04 1.21-.98 1.21s-.98-.85-.98-1.21v-.32h.75c0 .69.01.87.23.87.19 0 .23-.17.23-.55v-.96c-.12.08-.24.12-.37.12-.77 0-.83-.79-.83-1.07v-.99Zm1.21-.22c0-.06-.06-.23-.23-.23-.16 0-.23.17-.23.23v1.48c0 .06.07.23.23.23s.22-.14.23-.21v-1.5Z" style="fill:#999390"/></g><g style="opacity:.4"><path d="M139.21 267.1c0 .14-.02 1.14-1 1.14s-1-1-1-1.14v-.6c0-.37.13-.76.39-1-.23-.23-.35-.59-.35-.94v-.43c0-.13.02-1.09.96-1.09s.96.96.96 1.09v.43c0 .35-.12.71-.35.94.26.24.39.63.39 1v.6Zm-1-1.2c-.26 0-.27.29-.27.9 0 .55.06.75.27.75.26 0 .27-.28.27-.75 0-.61-.01-.9-.27-.9Zm0-2.2c-.17 0-.21.17-.22.7 0 .53.03.77.22.77s.22-.24.22-.77c0-.46-.03-.7-.22-.7ZM141.84 267.14c0 .24-.06 1.1-.98 1.1s-.98-.86-.98-1.1v-2.9c0-.36.04-1.21.98-1.21s.98.85.98 1.21v.32h-.75c0-.69-.01-.87-.23-.87-.19 0-.23.17-.23.55v.91c.12-.08.24-.12.37-.12.77 0 .83.79.83 1.07v1.04Zm-.98.45c.16 0 .23-.17.23-.23v-1.52c0-.06-.07-.23-.23-.23s-.22.14-.23.21v1.54c0 .06.06.23.23.23Z" style="fill:#999390"/></g><g style="opacity:.4"><path d="M165.89 267.1c0 .14-.02 1.14-1 1.14s-1-1-1-1.14v-.6c0-.37.13-.76.39-1-.23-.23-.35-.59-.35-.94v-.43c0-.13.02-1.09.96-1.09s.96.96.96 1.09v.43c0 .35-.12.71-.35.94.26.24.39.63.39 1v.6Zm-1-1.2c-.26 0-.27.29-.27.9 0 .55.06.75.27.75.26 0 .27-.28.27-.75 0-.61-.01-.9-.27-.9Zm0-2.2c-.17 0-.21.17-.22.7 0 .53.03.77.22.77s.22-.24.22-.77c0-.46-.03-.7-.22-.7ZM167.58 267.59c.16 0 .23-.17.23-.68v-1.14c0-.21-.08-.37-.24-.37-.17 0-.29.26-.29.37h-.63v-2.68h1.81v.74h-1.16v1.06s.24-.19.43-.17c.77 0 .83.89.83 1.05v1.14c0 .47-.06 1.33-.98 1.33s-.98-.86-.98-1.54h.75v.2c0 .52.06.69.23.69Z" style="fill:#999390"/></g><g style="opacity:.4"><path d="M75.93 255.25h-1.12v-.74h1.88v.75l-.75 4.34h-.78l.76-4.35ZM78.28 259.01c.16 0 .23-.17.23-.68v-1.14c0-.21-.08-.37-.24-.37s-.29.26-.29.37h-.63v-2.68h1.81v.74H78v1.06s.24-.19.43-.17c.77 0 .83.89.83 1.05v1.14c0 .47-.06 1.33-.98 1.33s-.98-.86-.98-1.54h.75v.2c0 .52.05.69.23.69Z" style="fill:#999390"/></g><g style="opacity:.4"><path d="M84.82 255.25H83.7v-.74h1.88v.75l-.75 4.34h-.78l.76-4.35ZM87.17 259.01c.16 0 .23-.17.23-.68v-1.14c0-.21-.08-.37-.24-.37s-.29.26-.29.37h-.63v-2.68h1.81v.74h-1.16v1.06s.24-.19.43-.17c.77 0 .83.89.83 1.05v1.14c0 .47-.06 1.33-.98 1.33s-.98-.86-.98-1.54h.75v.2c0 .52.05.69.23.69Z" style="fill:none"/></g><g style="opacity:.4"><path d="M93.72 255.25H92.6v-.74h1.88v.75l-.75 4.34h-.78l.76-4.35ZM96.06 259.66c-1 0-1-1.1-1-1.1v-3s0-1.1 1-1.1 1 1.1 1 1.1v3s0 1.1-1 1.1Zm0-4.48c-.26 0-.25.37-.25.37v3s-.01.37.25.37.25-.37.25-.37v-3s.01-.37-.25-.37Z" style="fill:#999390"/></g><g style="opacity:.4"><path d="M111.5 255.25h-1.12v-.74h1.88v.75l-.75 4.34h-.78l.76-4.35ZM113.4 257.3v-.62c.62-.03.57-.26.57-.91 0-.29 0-.66-.24-.66-.19 0-.21.18-.22.87h-.73c0-.58.02-1.52.96-1.52s.97.96.97 1.09c0 .75-.13 1.12-.36 1.34.36.29.43.82.43 1.41 0 .13-.04 1.36-.97 1.36s-.99-.95-.99-1.52h.73c0 .69.07.87.26.87.24 0 .24-.35.24-.64 0-.64.08-1.02-.57-1.05h-.06Z" style="fill:none"/></g><g style="opacity:.4"><path d="M199.49 255.56c0-.24.06-1.1.98-1.1s.98.86.98 1.1v2.9c0 .36-.04 1.21-.98 1.21s-.98-.85-.98-1.21v-.32h.75c0 .69.01.87.23.87.19 0 .23-.17.23-.55v-.96c-.12.08-.24.12-.37.12-.77 0-.83-.79-.83-1.07v-.99Zm1.21-.22c0-.06-.06-.23-.23-.23-.16 0-.23.17-.23.23v1.48c0 .06.07.23.23.23s.22-.14.23-.21v-1.5ZM203.18 258.49h-1.16v-.66l1.09-3.33h.75v3.33h.35v.66h-.35v1.11h-.69v-1.11Zm-.52-.66h.52v-1.75h-.04l-.04.15-.44 1.59Z" style="fill:#999390"/></g><g style="opacity:.4"><path d="M67.03 246.67h-1.12v-.74h1.88v.75l-.75 4.34h-.78l.76-4.35ZM70.33 249.97c0 .24-.06 1.1-.98 1.1s-.98-.86-.98-1.1v-2.9c0-.36.04-1.21.98-1.21s.98.85.98 1.21v.32h-.75c0-.69-.01-.87-.23-.87-.19 0-.23.17-.23.55v.91c.12-.08.24-.12.37-.12.77 0 .83.79.83 1.07v1.04Zm-.98.45c.16 0 .23-.17.23-.23v-1.52c0-.06-.07-.23-.23-.23s-.22.14-.23.21v1.54c0 .06.06.23.23.23Z" style="fill:#999390"/></g><g style="opacity:.4"><path d="M84.82 246.67H83.7v-.74h1.88v.75l-.75 4.34h-.78l.76-4.35ZM86.06 247.03v-.48c.62-.12.8-.62.8-.62h.45v5.09h-.75v-3.99h-.5Z" style="fill:#999390"/></g><g style="opacity:.4"><path d="M102.61 246.67h-1.12v-.74h1.88v.75l-.75 4.34h-.78l.76-4.35ZM103.85 247.03v-.48c.62-.12.8-.62.8-.62h.45v5.09h-.75v-3.99h-.5Z" style="fill:#999390"/></g><g style="opacity:.4"><path d="M120.4 246.67h-1.12v-.74h1.88v.75l-.75 4.34h-.78l.76-4.35ZM122.3 248.72v-.62c.62-.03.57-.26.57-.91 0-.29 0-.66-.24-.66-.19 0-.21.18-.22.87h-.73c0-.58.02-1.52.96-1.52s.97.96.97 1.09c0 .75-.13 1.12-.36 1.34.36.29.43.82.43 1.41 0 .13-.04 1.36-.97 1.36s-.99-.95-.99-1.52h.73c0 .69.07.87.26.87.24 0 .24-.35.24-.64 0-.64.08-1.02-.57-1.05h-.06Z" style="fill:#999390"/></g><g style="opacity:.4"><path d="M181.7 246.97c0-.24.06-1.1.98-1.1s.98.86.98 1.1v2.9c0 .36-.04 1.21-.98 1.21s-.98-.85-.98-1.21v-.32h.75c0 .69.01.87.23.87.19 0 .23-.17.23-.55v-.96c-.12.08-.24.12-.37.12-.77 0-.83-.79-.83-1.07v-.99Zm1.21-.22c0-.06-.06-.23-.23-.23-.16 0-.23.17-.23.23v1.48c0 .06.07.23.23.23s.22-.14.23-.21v-1.5ZM184.93 248.72v-.62c.62-.03.57-.26.57-.91 0-.29 0-.66-.24-.66-.19 0-.21.18-.22.87h-.73c0-.58.02-1.52.96-1.52s.97.96.97 1.09c0 .75-.13 1.12-.36 1.34.36.29.43.82.43 1.41 0 .13-.03 1.36-.97 1.36s-.99-.95-.99-1.52h.73c0 .69.07.87.26.87.24 0 .24-.35.24-.64 0-.64.08-1.02-.57-1.05h-.06Z" style="fill:#999390"/></g><g style="opacity:.4"><path d="M84.82 238.08H83.7v-.74h1.88v.75l-.75 4.34h-.78l.76-4.35ZM87.1 241.33h-1.16v-.66l1.09-3.33h.75v3.33h.35v.66h-.35v1.11h-.69v-1.11Zm-.52-.66h.52v-1.75h-.04l-.04.15-.44 1.59Z" style="fill:#999390"/></g><g style="opacity:.4"><path d="M111.5 238.08h-1.12v-.74h1.88v.75l-.75 4.34h-.78l.76-4.35ZM113.78 241.33h-1.16v-.66l1.09-3.33h.75v3.33h.35v.66h-.35v1.11h-.69v-1.11Zm-.52-.66h.52v-1.75h-.04l-.04.15-.44 1.59Z" style="fill:#999390"/></g><g style="opacity:.4"><path d="M137.23 238.39c0-.24.06-1.1.98-1.1s.98.86.98 1.1v2.9c0 .36-.04 1.21-.98 1.21s-.98-.85-.98-1.21v-.32h.75c0 .69.01.87.23.87.19 0 .23-.17.23-.55v-.96c-.12.08-.24.12-.37.12-.77 0-.83-.79-.83-1.07v-.99Zm1.21-.22c0-.06-.06-.23-.23-.23-.16 0-.23.17-.23.23v1.48c0 .06.07.23.23.23s.22-.14.23-.21v-1.5ZM139.76 238.44v-.48c.62-.12.8-.62.8-.62h.45v5.09h-.75v-3.99h-.5Z" style="fill:#999390"/></g><g style="opacity:.4"><path d="M41.38 232.8c0 .24-.06 1.1-.98 1.1s-.98-.86-.98-1.1v-2.9c0-.36.04-1.21.98-1.21s.98.85.98 1.21v.32h-.75c0-.69-.01-.87-.23-.87-.19 0-.23.17-.23.55v.91c.12-.08.24-.12.37-.12.77 0 .83.79.83 1.07v1.04Zm-.98.45c.16 0 .23-.17.23-.23v-1.52c0-.06-.07-.23-.23-.23s-.22.14-.23.21v1.54c0 .06.06.23.23.23ZM44.02 232.8c0 .24-.06 1.1-.98 1.1s-.98-.86-.98-1.1v-2.9c0-.36.04-1.21.98-1.21s.98.85.98 1.21v.32h-.75c0-.69-.01-.87-.23-.87-.19 0-.23.17-.23.55v.91c.12-.08.24-.12.37-.12.77 0 .83.79.83 1.07v1.04Zm-.98.45c.16 0 .23-.17.23-.23v-1.52c0-.06-.07-.23-.23-.23s-.22.14-.23.21v1.54c0 .06.06.23.23.23Z" style="fill:#999390"/></g><g style="opacity:.4"><path d="M68.06 232.8c0 .24-.06 1.1-.98 1.1s-.98-.86-.98-1.1v-2.9c0-.36.04-1.21.98-1.21s.98.85.98 1.21v.32h-.75c0-.69-.01-.87-.23-.87-.19 0-.23.17-.23.55v.91c.12-.08.24-.12.37-.12.77 0 .83.79.83 1.07v1.04Zm-.98.45c.16 0 .23-.17.23-.23v-1.52c0-.06-.07-.23-.23-.23s-.22.14-.23.21v1.54c0 .06.06.23.23.23ZM69.68 229.5h-1.12v-.74h1.88v.75l-.75 4.34h-.78l.76-4.35Z" style="fill:#999390"/></g><g style="opacity:.4"><path d="M85.85 232.8c0 .24-.06 1.1-.98 1.1s-.98-.86-.98-1.1v-2.9c0-.36.04-1.21.98-1.21s.98.85.98 1.21v.32h-.75c0-.69-.01-.87-.23-.87-.19 0-.23.17-.23.55v.91c.12-.08.24-.12.37-.12.77 0 .83.79.83 1.07v1.04Zm-.98.45c.16 0 .23-.17.23-.23v-1.52c0-.06-.07-.23-.23-.23s-.22.14-.23.21v1.54c0 .06.06.23.23.23ZM86.51 229.8c0-.24.06-1.1.98-1.1s.98.86.98 1.1v2.9c0 .36-.04 1.21-.98 1.21s-.98-.85-.98-1.21v-.32h.75c0 .69.01.87.23.87.19 0 .23-.17.23-.55v-.96c-.12.08-.24.12-.37.12-.77 0-.83-.79-.83-1.07v-.99Zm1.21-.22c0-.06-.06-.23-.23-.23-.16 0-.23.17-.23.23v1.48c0 .06.07.23.23.23s.22-.14.23-.21v-1.5Z" style="fill:#999390"/></g><g style="opacity:.4"><path d="M155.02 229.8c0-.24.06-1.1.98-1.1s.98.86.98 1.1v2.9c0 .36-.04 1.21-.98 1.21s-.98-.85-.98-1.21v-.32h.75c0 .69.01.87.23.87.19 0 .23-.17.23-.55v-.96c-.12.08-.24.12-.37.12-.77 0-.83-.79-.83-1.07v-.99Zm1.21-.22c0-.06-.06-.23-.23-.23-.16 0-.23.17-.23.23v1.48c0 .06.07.23.23.23s.22-.14.23-.21v-1.5ZM158.7 233.91c-1 0-1-1.1-1-1.1v-3s0-1.1 1-1.1 1 1.1 1 1.1v3s0 1.1-1 1.1Zm0-4.48c-.26 0-.25.37-.25.37v3s-.01.37.25.37.25-.37.25-.37v-3s.01-.37-.25-.37Z" style="fill:#999390"/></g><g style="opacity:.4"><path d="M172.81 229.8c0-.24.06-1.1.98-1.1s.98.86.98 1.1v2.9c0 .36-.04 1.21-.98 1.21s-.98-.85-.98-1.21v-.32h.75c0 .69.01.87.23.87.19 0 .23-.17.23-.55v-.96c-.12.08-.24.12-.37.12-.77 0-.83-.79-.83-1.07v-.99Zm1.21-.22c0-.06-.06-.23-.23-.23-.16 0-.23.17-.23.23v1.48c0 .06.07.23.23.23s.22-.14.23-.21v-1.5ZM175.47 230.37v-.35c0-.69.18-1.32 1-1.32.76 0 1 .57 1 1.27 0 1.04-.79 2.49-1.17 3.14h1.18v.74h-2.03v-.74s1.23-1.84 1.27-3.09c0-.28-.03-.62-.25-.62-.21 0-.25.3-.25.62v.35h-.75Z" style="fill:#999390"/></g><g style="opacity:.4"><path d="M76.95 224.22c0 .24-.06 1.1-.98 1.1s-.98-.86-.98-1.1v-2.9c0-.36.04-1.21.98-1.21s.98.85.98 1.21v.32h-.75c0-.69-.01-.87-.23-.87-.19 0-.23.17-.23.55v.91c.12-.08.24-.12.37-.12.77 0 .83.79.83 1.07v1.04Zm-.98.45c.16 0 .23-.17.23-.23v-1.52c0-.06-.07-.23-.23-.23s-.22.14-.23.21v1.54c0 .06.06.23.23.23ZM79.6 224.18c0 .14-.02 1.14-1 1.14s-1-1-1-1.14v-.6c0-.37.13-.76.39-1-.23-.23-.35-.59-.35-.94v-.43c0-.13.02-1.09.96-1.09s.96.96.96 1.09v.43c0 .35-.12.71-.35.94.26.24.39.63.39 1v.6Zm-1-1.2c-.26 0-.27.29-.27.9 0 .55.06.75.27.75.26 0 .27-.28.27-.75 0-.61-.01-.9-.27-.9Zm0-2.2c-.17 0-.21.17-.22.7 0 .53.03.77.22.77s.22-.24.22-.77c0-.46-.03-.7-.22-.7Z" style="fill:#999390"/></g><g style="opacity:.4"><path d="M49.32 216.09c.16 0 .23-.17.23-.68v-1.14c0-.21-.08-.37-.24-.37-.17 0-.29.26-.29.37h-.63v-2.68h1.81v.74h-1.16v1.06s.24-.19.43-.17c.77 0 .83.89.83 1.05v1.14c0 .47-.06 1.33-.98 1.33s-.98-.86-.98-1.54h.75v.2c0 .52.06.69.23.69ZM51.98 216.09c.16 0 .23-.17.23-.68v-1.14c0-.21-.08-.37-.24-.37s-.29.26-.29.37h-.63v-2.68h1.81v.74H51.7v1.06s.24-.19.43-.17c.77 0 .83.89.83 1.05v1.14c0 .47-.06 1.33-.98 1.33s-.98-.86-.98-1.54h.75v.2c0 .52.05.69.23.69Z" style="fill:#999390"/></g><g style="opacity:.4"><path d="M85.85 215.64c0 .24-.06 1.1-.98 1.1s-.98-.86-.98-1.1v-2.9c0-.36.04-1.21.98-1.21s.98.85.98 1.21v.32h-.75c0-.69-.01-.87-.23-.87-.19 0-.23.17-.23.55v.91c.12-.08.24-.12.37-.12.77 0 .83.79.83 1.07v1.04Zm-.98.45c.16 0 .23-.17.23-.23v-1.52c0-.06-.07-.23-.23-.23s-.22.14-.23.21v1.54c0 .06.06.23.23.23ZM87.56 215.57H86.4v-.66l1.09-3.33h.75v3.33h.35v.66h-.35v1.11h-.69v-1.11Zm-.52-.66h.52v-1.75h-.04l-.04.15-.44 1.59Z" style="fill:#999390"/></g><g style="opacity:.4"><path d="M119.44 212.64c0-.24.06-1.1.98-1.1s.98.86.98 1.1v2.9c0 .36-.04 1.21-.98 1.21s-.98-.85-.98-1.21v-.32h.75c0 .69.01.87.23.87.19 0 .23-.17.23-.55v-.96c-.12.08-.24.12-.37.12-.77 0-.83-.79-.83-1.07v-.99Zm1.21-.22c0-.06-.06-.23-.23-.23-.16 0-.23.17-.23.23v1.48c0 .06.07.23.23.23s.22-.14.23-.21v-1.5ZM123.04 212.33h-1.12v-.74h1.88v.75l-.75 4.34h-.78l.76-4.35Z" style="fill:#999390"/></g><g style="opacity:.4"><path d="M22.64 207.5c.16 0 .23-.17.23-.68v-1.14c0-.21-.08-.37-.24-.37-.17 0-.29.26-.29.37h-.63V203h1.81v.74h-1.16v1.06s.24-.19.43-.17c.77 0 .83.89.83 1.05v1.14c0 .47-.06 1.33-.98 1.33s-.98-.86-.98-1.54h.75v.2c0 .52.06.69.23.69ZM25.31 206.99h-1.16v-.66l1.09-3.33h.75v3.33h.35v.66h-.35v1.11h-.69v-1.11Zm-.52-.66h.52v-1.75h-.04l-.04.15-.44 1.59Z" style="fill:#999390"/></g><g style="opacity:.4"><path d="M68.06 207.05c0 .24-.06 1.1-.98 1.1s-.98-.86-.98-1.1v-2.9c0-.36.04-1.21.98-1.21s.98.85.98 1.21v.32h-.75c0-.69-.01-.87-.23-.87-.19 0-.23.17-.23.55v.91c.12-.08.24-.12.37-.12.77 0 .83.79.83 1.07v1.04Zm-.98.45c.16 0 .23-.17.23-.23v-1.52c0-.06-.07-.23-.23-.23s-.22.14-.23.21v1.54c0 .06.06.23.23.23ZM69.76 207.5c.16 0 .23-.17.23-.68v-1.14c0-.21-.08-.37-.24-.37s-.29.26-.29.37h-.63V203h1.81v.74h-1.16v1.06s.24-.19.43-.17c.77 0 .83.89.83 1.05v1.14c0 .47-.06 1.33-.98 1.33s-.98-.86-.98-1.54h.75v.2c0 .52.05.69.23.69Z" style="fill:#999390"/></g><g style="opacity:.4"><path d="M94.74 207.05c0 .24-.06 1.1-.98 1.1s-.98-.86-.98-1.1v-2.9c0-.36.04-1.21.98-1.21s.98.85.98 1.21v.32h-.75c0-.69-.01-.87-.23-.87-.19 0-.23.17-.23.55v.91c.12-.08.24-.12.37-.12.77 0 .83.79.83 1.07v1.04Zm-.98.45c.16 0 .23-.17.23-.23v-1.52c0-.06-.07-.23-.23-.23s-.22.14-.23.21v1.54c0 .06.06.23.23.23ZM95.99 205.8v-.62c.62-.03.57-.26.57-.91 0-.29 0-.66-.24-.66-.19 0-.21.18-.22.87h-.73c0-.58.02-1.52.96-1.52s.97.96.97 1.09c0 .75-.13 1.12-.36 1.34.36.29.43.82.43 1.41 0 .13-.04 1.36-.97 1.36s-.99-.95-.99-1.52h.73c0 .69.07.87.26.87.24 0 .24-.35.24-.64 0-.64.08-1.02-.57-1.05h-.06Z" style="fill:#999390"/></g><g style="opacity:.4"><path d="M146.12 204.05c0-.24.06-1.1.98-1.1s.98.86.98 1.1v2.9c0 .36-.04 1.21-.98 1.21s-.98-.85-.98-1.21v-.32h.75c0 .69.01.87.23.87.19 0 .23-.17.23-.55v-.96c-.12.08-.24.12-.37.12-.77 0-.83-.79-.83-1.07v-.99Zm1.21-.22c0-.06-.06-.23-.23-.23-.16 0-.23.17-.23.23v1.48c0 .06.07.23.23.23s.22-.14.23-.21v-1.5ZM150.75 207.05c0 .24-.06 1.1-.98 1.1s-.98-.86-.98-1.1v-2.9c0-.36.04-1.21.98-1.21s.98.85.98 1.21v.32H150c0-.69-.01-.87-.23-.87-.19 0-.23.17-.23.55v.91c.12-.08.24-.12.37-.12.77 0 .83.79.83 1.07v1.04Zm-.98.45c.16 0 .23-.17.23-.23v-1.52c0-.06-.07-.23-.23-.23s-.22.14-.23.21v1.54c0 .06.06.23.23.23Z" style="fill:#999390"/></g><g style="opacity:.4"><path d="M163.91 204.05c0-.24.06-1.1.98-1.1s.98.86.98 1.1v2.9c0 .36-.04 1.21-.98 1.21s-.98-.85-.98-1.21v-.32h.75c0 .69.01.87.23.87.19 0 .23-.17.23-.55v-.96c-.12.08-.24.12-.37.12-.77 0-.83-.79-.83-1.07v-.99Zm1.21-.22c0-.06-.06-.23-.23-.23-.16 0-.23.17-.23.23v1.48c0 .06.07.23.23.23s.22-.14.23-.21v-1.5ZM167.59 207.5c.16 0 .23-.17.23-.68v-1.14c0-.21-.08-.37-.24-.37-.17 0-.29.26-.29.37h-.63V203h1.81v.74h-1.16v1.06s.24-.19.43-.17c.77 0 .83.89.83 1.05v1.14c0 .47-.06 1.33-.98 1.33s-.98-.86-.98-1.54h.75v.2c0 .52.06.69.23.69Z" style="fill:#999390"/></g><g style="opacity:.4"><path d="M49.32 198.92c.16 0 .23-.17.23-.68v-1.14c0-.21-.08-.37-.24-.37-.17 0-.29.26-.29.37h-.63v-2.68h1.81v.74h-1.16v1.06s.24-.19.43-.17c.77 0 .83.89.83 1.05v1.14c0 .47-.06 1.33-.98 1.33s-.98-.86-.98-1.54h.75v.2c0 .52.06.69.23.69ZM52.93 198.47c0 .24-.06 1.1-.98 1.1s-.98-.86-.98-1.1v-2.9c0-.36.04-1.21.98-1.21s.98.85.98 1.21v.32h-.75c0-.69-.01-.87-.23-.87-.19 0-.23.17-.23.55v.91c.12-.08.24-.12.37-.12.77 0 .83.79.83 1.07v1.04Zm-.98.45c.16 0 .23-.17.23-.23v-1.52c0-.06-.07-.23-.23-.23s-.22.14-.23.21v1.54c0 .06.06.23.23.23Z" style="fill:#999390"/></g><g style="opacity:.4"><path d="M85.85 198.47c0 .24-.06 1.1-.98 1.1s-.98-.86-.98-1.1v-2.9c0-.36.04-1.21.98-1.21s.98.85.98 1.21v.32h-.75c0-.69-.01-.87-.23-.87-.19 0-.23.17-.23.55v.91c.12-.08.24-.12.37-.12.77 0 .83.79.83 1.07v1.04Zm-.98.45c.16 0 .23-.17.23-.23v-1.52c0-.06-.07-.23-.23-.23s-.22.14-.23.21v1.54c0 .06.06.23.23.23ZM86.4 195.52v-.48c.62-.12.8-.62.8-.62h.45v5.09h-.75v-3.99h-.5Z" style="fill:#999390"/></g><g style="opacity:.4"><path d="M137.23 186.88c0-.24.06-1.1.98-1.1s.98.86.98 1.1v2.9c0 .36-.04 1.21-.98 1.21s-.98-.85-.98-1.21v-.32h.75c0 .69.01.87.23.87.19 0 .23-.17.23-.55v-.96c-.12.08-.24.12-.37.12-.77 0-.83-.79-.83-1.07v-.99Zm1.21-.22c0-.06-.06-.23-.23-.23-.16 0-.23.17-.23.23v1.48c0 .06.07.23.23.23s.22-.14.23-.21v-1.5ZM141.86 189.84c0 .14-.02 1.14-1 1.14s-1-1-1-1.14v-.6c0-.37.13-.76.39-1-.23-.23-.35-.59-.35-.94v-.43c0-.13.02-1.09.96-1.09s.96.96.96 1.09v.43c0 .35-.12.71-.35.94.26.24.39.63.39 1v.6Zm-1-1.2c-.26 0-.27.29-.27.9 0 .55.06.75.27.75.26 0 .27-.28.27-.75 0-.61-.01-.9-.27-.9Zm0-2.2c-.17 0-.21.17-.22.7 0 .53.03.77.22.77s.22-.24.22-.77c0-.46-.03-.7-.22-.7Z" style="fill:#999390"/></g><g style="opacity:.4"><path d="M31.53 181.75c.16 0 .23-.17.23-.68v-1.14c0-.21-.08-.37-.24-.37s-.29.26-.29.37h-.63v-2.68h1.81v.74h-1.16v1.06s.24-.19.43-.17c.77 0 .83.89.83 1.05v1.14c0 .47-.06 1.33-.98 1.33s-.98-.86-.98-1.54h.75v.2c0 .52.05.69.23.69ZM33.74 180.04v-.62c.62-.03.57-.26.57-.91 0-.29 0-.66-.24-.66-.19 0-.21.18-.22.87h-.73c0-.58.02-1.52.96-1.52s.97.96.97 1.09c0 .75-.13 1.12-.36 1.34.36.29.43.82.43 1.41 0 .13-.03 1.36-.97 1.36s-.99-.95-.99-1.52h.73c0 .69.07.87.26.87.24 0 .24-.35.24-.64 0-.64.08-1.02-.57-1.05h-.06Z" style="fill:#999390"/></g><g style="opacity:.4"><path d="M84.45 180.04v-.62c.62-.03.57-.26.57-.91 0-.29 0-.66-.24-.66-.19 0-.21.18-.22.87h-.73c0-.58.02-1.52.96-1.52s.97.96.97 1.09c0 .75-.13 1.12-.36 1.34.36.29.43.82.43 1.41 0 .13-.04 1.36-.97 1.36s-.99-.95-.99-1.52h.73c0 .69.07.87.26.87.24 0 .24-.35.24-.64 0-.64.08-1.02-.57-1.05h-.06ZM87.5 181.75c.16 0 .23-.17.23-.68v-1.14c0-.21-.08-.37-.24-.37s-.29.26-.29.37h-.63v-2.68h1.81v.74h-1.16v1.06s.24-.19.43-.17c.77 0 .83.89.83 1.05v1.14c0 .47-.06 1.33-.98 1.33s-.98-.86-.98-1.54h.75v.2c0 .52.05.69.23.69Z" style="fill:#999390"/></g><g style="opacity:.4"><path d="M111.13 180.04v-.62c.62-.03.57-.26.57-.91 0-.29 0-.66-.24-.66-.19 0-.21.18-.22.87h-.73c0-.58.02-1.52.96-1.52s.97.96.97 1.09c0 .75-.13 1.12-.36 1.34.36.29.43.82.43 1.41 0 .13-.04 1.36-.97 1.36s-.99-.95-.99-1.52h.73c0 .69.07.87.26.87.24 0 .24-.35.24-.64 0-.64.08-1.02-.57-1.05h-.06ZM115.13 181.3c0 .24-.06 1.1-.98 1.1s-.98-.86-.98-1.1v-2.9c0-.36.04-1.21.98-1.21s.98.85.98 1.21v.32h-.75c0-.69-.01-.87-.23-.87-.19 0-.23.17-.23.55v.91c.12-.08.24-.12.37-.12.77 0 .83.79.83 1.07v1.04Zm-.98.45c.16 0 .23-.17.23-.23V180c0-.06-.07-.23-.23-.23s-.22.14-.23.21v1.54c0 .06.06.23.23.23Z" style="fill:#999390"/></g><g style="opacity:.4"><path d="M164.95 182.4c-1 0-1-1.1-1-1.1v-3s0-1.1 1-1.1 1 1.1 1 1.1v3s0 1.1-1 1.1Zm0-4.48c-.26 0-.25.37-.25.37v3s-.01.37.25.37.25-.37.25-.37v-3s.01-.37-.25-.37ZM167.6 177.99h-1.12v-.74h1.88v.75l-.75 4.34h-.78l.76-4.35Z" style="fill:#999390"/></g><g style="opacity:.4"><path d="M182.73 182.4c-1 0-1-1.1-1-1.1v-3s0-1.1 1-1.1 1 1.1 1 1.1v3s0 1.1-1 1.1Zm0-4.48c-.26 0-.25.37-.25.37v3s-.01.37.25.37.25-.37.25-.37v-3s.01-.37-.25-.37ZM186.41 181.26c0 .14-.02 1.14-1 1.14s-1-1-1-1.14v-.6c0-.37.13-.76.39-1-.23-.23-.35-.59-.35-.94v-.43c0-.13.02-1.09.96-1.09s.96.96.96 1.09v.43c0 .35-.12.71-.35.94.26.24.39.63.39 1v.6Zm-1-1.2c-.26 0-.27.29-.27.9 0 .55.06.75.27.75.26 0 .27-.28.27-.75 0-.61-.01-.9-.27-.9Zm0-2.2c-.17 0-.21.17-.22.7 0 .53.03.77.22.77s.22-.24.22-.77c0-.46-.03-.7-.22-.7Z" style="fill:#999390"/></g><g style="opacity:.4"><path d="M22.64 173.17c.16 0 .23-.17.23-.68v-1.14c0-.21-.08-.37-.24-.37-.17 0-.29.26-.29.37h-.63v-2.68h1.81v.74h-1.16v1.06s.24-.19.43-.17c.77 0 .83.89.83 1.05v1.14c0 .47-.06 1.33-.98 1.33s-.98-.86-.98-1.54h.75v.2c0 .52.06.69.23.69ZM24.28 170.28v-.35c0-.69.18-1.32 1-1.32.76 0 1 .57 1 1.27 0 1.04-.79 2.49-1.17 3.14h1.18v.74h-2.03v-.74s1.23-1.84 1.27-3.09c0-.28-.03-.62-.25-.62-.21 0-.25.3-.25.62v.35h-.75Z" style="fill:#999390"/></g><g style="opacity:.4"><path d="M31.53 173.17c.16 0 .23-.17.23-.68v-1.14c0-.21-.08-.37-.24-.37s-.29.26-.29.37h-.63v-2.68h1.81v.74h-1.16v1.06s.24-.19.43-.17c.77 0 .83.89.83 1.05v1.14c0 .47-.06 1.33-.98 1.33s-.98-.86-.98-1.54h.75v.2c0 .52.05.69.23.69ZM34.19 173.82c-1 0-1-1.1-1-1.1v-3s0-1.1 1-1.1 1 1.1 1 1.1v3s0 1.1-1 1.1Zm0-4.48c-.26 0-.25.37-.25.37v3s-.01.37.25.37.25-.37.25-.37v-3s.01-.37-.25-.37Z" style="fill:#999390"/></g><g style="opacity:.4"><path d="M200.52 173.82c-1 0-1-1.1-1-1.1v-3s0-1.1 1-1.1 1 1.1 1 1.1v3s0 1.1-1 1.1Zm0-4.48c-.26 0-.25.37-.25.37v3s-.01.37.25.37.25-.37.25-.37v-3s.01-.37-.25-.37ZM202.22 169.72c0-.24.06-1.1.98-1.1s.98.86.98 1.1v2.9c0 .36-.04 1.21-.98 1.21s-.98-.85-.98-1.21v-.32h.75c0 .69.01.87.23.87.19 0 .23-.17.23-.55v-.96c-.12.08-.24.12-.37.12-.77 0-.83-.79-.83-1.07v-.99Zm1.21-.22c0-.06-.06-.23-.23-.23-.16 0-.23.17-.23.23v1.48c0 .06.07.23.23.23s.22-.14.23-.21v-1.5Z" style="fill:#999390"/></g><g style="opacity:.4"><path d="M67.11 164.58c.16 0 .23-.17.23-.68v-1.14c0-.21-.08-.37-.24-.37-.17 0-.29.26-.29.37h-.63v-2.68h1.81v.74h-1.16v1.06s.24-.19.43-.17c.77 0 .83.89.83 1.05v1.14c0 .47-.06 1.33-.98 1.33s-.98-.86-.98-1.54h.75v.2c0 .52.06.69.23.69ZM69.69 160.83h-1.12v-.74h1.88v.75l-.75 4.34h-.78l.76-4.35Z" style="fill:#999390"/></g><g style="opacity:.4"><path d="M137.23 161.13c0-.24.06-1.1.98-1.1s.98.86.98 1.1v2.9c0 .36-.04 1.21-.98 1.21s-.98-.85-.98-1.21v-.32h.75c0 .69.01.87.23.87.19 0 .23-.17.23-.55v-.96c-.12.08-.24.12-.37.12-.77 0-.83-.79-.83-1.07v-.99Zm1.21-.22c0-.06-.06-.23-.23-.23-.16 0-.23.17-.23.23v1.48c0 .06.07.23.23.23s.22-.14.23-.21v-1.5ZM139.88 161.13c0-.24.06-1.1.98-1.1s.98.86.98 1.1v2.9c0 .36-.04 1.21-.98 1.21s-.98-.85-.98-1.21v-.32h.75c0 .69.01.87.23.87.19 0 .23-.17.23-.55v-.96c-.12.08-.24.12-.37.12-.77 0-.83-.79-.83-1.07v-.99Zm1.21-.22c0-.06-.06-.23-.23-.23-.16 0-.23.17-.23.23v1.48c0 .06.07.23.23.23s.22-.14.23-.21v-1.5Z" style="fill:#999390"/></g><g style="opacity:.4"><path d="M22.65 155.48h-1.16v-.66l1.09-3.33h.75v3.33h.35v.66h-.35v1.11h-.69v-1.11Zm-.52-.66h.52v-1.75h-.04l-.04.15-.44 1.59ZM24.09 152.6v-.48c.62-.12.8-.62.8-.62h.45v5.09h-.75v-3.99h-.5Z" style="fill:#999390"/></g><g style="opacity:.4"><path d="M31.55 155.48h-1.16v-.66l1.09-3.33h.75v3.33h.35v.66h-.35v1.11h-.69v-1.11Zm-.52-.66h.52v-1.75h-.04l-.04.15-.44 1.59ZM34.12 156.65c-1 0-1-1.1-1-1.1v-3s0-1.1 1-1.1 1 1.1 1 1.1v3s0 1.1-1 1.1Zm0-4.48c-.26 0-.25.37-.25.37v3s-.01.37.25.37.25-.37.25-.37v-3s.01-.37-.25-.37Z" style="fill:#999390"/></g><g style="opacity:.4"><path d="M40.44 155.48h-1.16v-.66l1.09-3.33h.75v3.33h.35v.66h-.35v1.11h-.69v-1.11Zm-.52-.66h.52v-1.75h-.04l-.04.15-.44 1.59ZM42 153.11v-.35c0-.69.18-1.32 1-1.32.76 0 1 .57 1 1.27 0 1.04-.79 2.49-1.17 3.14h1.18v.74h-2.03v-.74s1.23-1.84 1.27-3.09c0-.28-.03-.62-.25-.62-.21 0-.25.3-.25.62v.35H42Z" style="fill:#999390"/></g><g style="opacity:.4"><path d="M58.22 156c.16 0 .23-.17.23-.68v-1.14c0-.21-.08-.37-.24-.37-.17 0-.29.26-.29.37h-.63v-2.68h1.81v.74h-1.16v1.06s.24-.19.43-.17c.77 0 .83.89.83 1.05v1.14c0 .47-.06 1.33-.98 1.33s-.98-.86-.98-1.54h.75v.2c0 .52.06.69.23.69ZM61.82 155.5c0 .14-.02 1.14-1 1.14s-1-1-1-1.14v-.6c0-.37.13-.76.39-1-.23-.23-.35-.59-.35-.94v-.43c0-.13.02-1.09.96-1.09s.96.96.96 1.09v.43c0 .35-.12.71-.35.94.26.24.39.63.39 1v.6Zm-1-1.2c-.26 0-.27.29-.27.9 0 .55.06.75.27.75.26 0 .27-.28.27-.75 0-.61-.01-.9-.27-.9Zm0-2.2c-.17 0-.21.17-.22.7 0 .53.03.77.22.77s.22-.24.22-.77c0-.46-.03-.7-.22-.7Z" style="fill:#999390"/></g><g style="opacity:.4"><path d="M102.24 154.29v-.62c.62-.03.57-.26.57-.91 0-.29 0-.66-.24-.66-.19 0-.21.18-.22.87h-.73c0-.58.02-1.52.96-1.52s.97.96.97 1.09c0 .75-.13 1.12-.36 1.34.36.29.43.82.43 1.41 0 .13-.03 1.36-.97 1.36s-.99-.95-.99-1.52h.73c0 .69.07.87.26.87.24 0 .24-.35.24-.64 0-.64.08-1.02-.57-1.05h-.06ZM105.3 155.48h-1.16v-.66l1.09-3.33h.75v3.33h.35v.66h-.35v1.11h-.69v-1.11Zm-.52-.66h.52v-1.75h-.04l-.04.15-.44 1.59Z" style="fill:#999390"/></g><g style="opacity:.4"><path d="M218.31 156.65c-1 0-1-1.1-1-1.1v-3s0-1.1 1-1.1 1 1.1 1 1.1v3s0 1.1-1 1.1Zm0-4.48c-.26 0-.25.37-.25.37v3s-.01.37.25.37.25-.37.25-.37v-3s.01-.37-.25-.37ZM219.9 152.6v-.48c.62-.12.8-.62.8-.62h.45v5.09h-.75v-3.99h-.5Z" style="fill:#999390"/></g><g style="opacity:.4"><path d="M22.65 146.9h-1.16v-.66l1.09-3.33h.75v3.33h.35v.66h-.35v1.11h-.69v-1.11Zm-.52-.66h.52v-1.75h-.04l-.04.15-.44 1.59ZM25.15 143.66h-1.12v-.74h1.88v.75l-.75 4.34h-.78l.76-4.35Z" style="fill:#999390"/></g><g style="opacity:.4"><path d="M49.34 146.9h-1.16v-.66l1.09-3.33h.75v3.33h.35v.66h-.35v1.11h-.69v-1.11Zm-.52-.66h.52v-1.75h-.04l-.04.15-.44 1.59ZM51.93 146.9h-1.16v-.66l1.09-3.33h.75v3.33h.35v.66h-.35v1.11h-.69v-1.11Zm-.52-.66h.52v-1.75h-.04l-.04.15-.44 1.59Z" style="fill:#999390"/></g><g style="opacity:.4"><path d="M120.02 145.71v-.62c.62-.03.57-.26.57-.91 0-.29 0-.66-.24-.66-.19 0-.21.18-.22.87h-.73c0-.58.02-1.52.96-1.52s.97.96.97 1.09c0 .75-.13 1.12-.36 1.34.36.29.43.82.43 1.41 0 .13-.04 1.36-.97 1.36s-.99-.95-.99-1.52h.73c0 .69.07.87.26.87.24 0 .24-.35.24-.64 0-.64.08-1.02-.57-1.05h-.06ZM122.98 143.66h-1.12v-.74h1.88v.75l-.75 4.34h-.78l.76-4.35Z" style="fill:#999390"/></g><g style="opacity:.4"><path d="M164.95 148.06c-1 0-1-1.1-1-1.1v-3s0-1.1 1-1.1 1 1.1 1 1.1v3s0 1.1-1 1.1Zm0-4.48c-.26 0-.25.37-.25.37v3s-.01.37.25.37.25-.37.25-.37v-3s.01-.37-.25-.37ZM168.62 146.96c0 .24-.06 1.1-.98 1.1s-.98-.86-.98-1.1v-2.9c0-.36.04-1.21.98-1.21s.98.85.98 1.21v.32h-.75c0-.69-.01-.87-.23-.87-.19 0-.23.17-.23.55v.91c.12-.08.24-.12.37-.12.77 0 .83.79.83 1.07v1.04Zm-.98.45c.16 0 .23-.17.23-.23v-1.52c0-.06-.07-.23-.23-.23s-.22.14-.23.21v1.54c0 .06.06.23.23.23Z" style="fill:#999390"/></g><g style="opacity:.4"><path d="M191.63 148.06c-1 0-1-1.1-1-1.1v-3s0-1.1 1-1.1 1 1.1 1 1.1v3s0 1.1-1 1.1Zm0-4.48c-.26 0-.25.37-.25.37v3s-.01.37.25.37.25-.37.25-.37v-3s.01-.37-.25-.37ZM194.37 146.9h-1.16v-.66l1.09-3.33h.75v3.33h.35v.66h-.35v1.11h-.69v-1.11Zm-.52-.66h.52v-1.75h-.04l-.04.15-.44 1.59Z" style="fill:#999390"/></g><g style="opacity:.4"><path d="M236.1 148.06c-1 0-1-1.1-1-1.1v-3s0-1.1 1-1.1 1 1.1 1 1.1v3s0 1.1-1 1.1Zm0-4.48c-.26 0-.25.37-.25.37v3s-.01.37.25.37.25-.37.25-.37v-3s.01-.37-.25-.37ZM237.81 144.53v-.35c0-.69.18-1.32 1-1.32.76 0 1 .57 1 1.27 0 1.04-.79 2.49-1.17 3.14h1.18v.74h-2.03v-.74s1.23-1.84 1.27-3.09c0-.28-.03-.62-.25-.62-.21 0-.25.3-.25.62v.35h-.75Z" style="fill:#999390"/></g><g style="opacity:.4"><path d="M31.55 138.32h-1.16v-.66l1.09-3.33h.75v3.33h.35v.66h-.35v1.11h-.69v-1.11Zm-.52-.66h.52v-1.75h-.04l-.04.15-.44 1.59ZM35.07 138.38c0 .24-.06 1.1-.98 1.1s-.98-.86-.98-1.1v-2.9c0-.36.04-1.21.98-1.21s.98.85.98 1.21v.32h-.75c0-.69-.01-.87-.23-.87-.19 0-.23.17-.23.55v.91c.12-.08.24-.12.37-.12.77 0 .83.79.83 1.07v1.04Zm-.98.45c.16 0 .23-.17.23-.23v-1.52c0-.06-.07-.23-.23-.23s-.22.14-.23.21v1.54c0 .06.06.23.23.23Z" style="fill:#999390"/></g><g style="opacity:.4"><path d="M40.44 138.32h-1.16v-.66l1.09-3.33h.75v3.33h.35v.66h-.35v1.11h-.69v-1.11Zm-.52-.66h.52v-1.75h-.04l-.04.15-.44 1.59ZM43.02 138.83c.16 0 .23-.17.23-.68v-1.14c0-.21-.08-.37-.24-.37-.17 0-.29.26-.29.37h-.63v-2.68h1.81v.74h-1.16v1.06s.24-.19.43-.17c.77 0 .83.89.83 1.05v1.14c0 .47-.06 1.33-.98 1.33s-.98-.86-.98-1.54h.75v.2c0 .52.06.69.23.69Z" style="fill:#999390"/></g><g style="opacity:.4"><path d="M67.11 138.83c.16 0 .23-.17.23-.68v-1.14c0-.21-.08-.37-.24-.37-.17 0-.29.26-.29.37h-.63v-2.68h1.81v.74h-1.16v1.06s.24-.19.43-.17c.77 0 .83.89.83 1.05v1.14c0 .47-.06 1.33-.98 1.33s-.98-.86-.98-1.54h.75v.2c0 .52.06.69.23.69ZM68.74 135.38c0-.24.06-1.1.98-1.1s.98.86.98 1.1v2.9c0 .36-.04 1.21-.98 1.21s-.98-.85-.98-1.21v-.32h.75c0 .69.01.87.23.87.19 0 .23-.17.23-.55v-.96c-.12.08-.24.12-.37.12-.77 0-.83-.79-.83-1.07v-.99Zm1.21-.22c0-.06-.06-.23-.23-.23-.16 0-.23.17-.23.23v1.48c0 .06.07.23.23.23s.22-.14.23-.21v-1.5Z" style="fill:#999390"/></g><g style="opacity:.4"><path d="M84.45 137.12v-.62c.62-.03.57-.26.57-.91 0-.29 0-.66-.24-.66-.19 0-.21.18-.22.87h-.73c0-.58.02-1.52.96-1.52s.97.96.97 1.09c0 .75-.13 1.12-.36 1.34.36.29.43.82.43 1.41 0 .13-.04 1.36-.97 1.36s-.99-.95-.99-1.52h.73c0 .69.07.87.26.87.24 0 .24-.35.24-.64 0-.64.08-1.02-.57-1.05h-.06ZM87.05 137.12v-.62c.62-.03.57-.26.57-.91 0-.29 0-.66-.24-.66-.19 0-.21.18-.22.87h-.73c0-.58.02-1.52.96-1.52s.97.96.97 1.09c0 .75-.13 1.12-.36 1.34.36.29.43.82.43 1.41 0 .13-.04 1.36-.97 1.36s-.99-.95-.99-1.52h.73c0 .69.07.87.26.87.24 0 .24-.35.24-.64 0-.64.08-1.02-.57-1.05h-.06Z" style="fill:#999390"/></g><g style="opacity:.4"><path d="M227.2 130.89c-1 0-1-1.1-1-1.1v-3s0-1.1 1-1.1 1 1.1 1 1.1v3s0 1.1-1 1.1Zm0-4.48c-.26 0-.25.37-.25.37v3s-.01.37.25.37.25-.37.25-.37v-3s.01-.37-.25-.37ZM229.48 128.54v-.62c.62-.03.57-.26.57-.91 0-.29 0-.66-.24-.66-.19 0-.21.18-.22.87h-.73c0-.58.02-1.52.96-1.52s.97.96.97 1.09c0 .75-.13 1.12-.36 1.34.36.29.43.82.43 1.41 0 .13-.04 1.36-.97 1.36s-.99-.95-.99-1.52h.73c0 .69.07.87.26.87.24 0 .24-.35.24-.64 0-.64.08-1.02-.57-1.05h-.06Z" style="fill:#999390"/></g><g style="opacity:.4"><path d="M49.34 121.14h-1.16v-.66l1.09-3.33h.75v3.33h.35v.66h-.35v1.11h-.69v-1.11Zm-.52-.66h.52v-1.75h-.04l-.04.15-.44 1.59ZM52.91 121.17c0 .14-.02 1.14-1 1.14s-1-1-1-1.14v-.6c0-.37.13-.76.39-1-.23-.23-.35-.59-.35-.94v-.43c0-.13.02-1.09.96-1.09s.96.96.96 1.09v.43c0 .35-.12.71-.35.94.26.24.39.63.39 1v.6Zm-1-1.2c-.26 0-.27.29-.27.9 0 .55.06.75.27.75.26 0 .27-.28.27-.75 0-.61-.01-.9-.27-.9Zm0-2.2c-.17 0-.21.17-.22.7 0 .53.03.77.22.77s.22-.24.22-.77c0-.46-.03-.7-.22-.7Z" style="fill:#999390"/></g><g style="opacity:.4"><path d="M120.02 119.95v-.62c.62-.03.57-.26.57-.91 0-.29 0-.66-.24-.66-.19 0-.21.18-.22.87h-.73c0-.58.02-1.52.96-1.52s.97.96.97 1.09c0 .75-.13 1.12-.36 1.34.36.29.43.82.43 1.41 0 .13-.04 1.36-.97 1.36s-.99-.95-.99-1.52h.73c0 .69.07.87.26.87.24 0 .24-.35.24-.64 0-.64.08-1.02-.57-1.05h-.06ZM121.93 118.26v-.48c.62-.12.8-.62.8-.62h.45v5.09h-.75v-3.99h-.5Z" style="fill:#999390"/></g><g style="opacity:.4"><path d="M128.92 119.95v-.62c.62-.03.57-.26.57-.91 0-.29 0-.66-.24-.66-.19 0-.21.18-.22.87h-.73c0-.58.02-1.52.96-1.52s.97.96.97 1.09c0 .75-.13 1.12-.36 1.34.36.29.43.82.43 1.41 0 .13-.04 1.36-.97 1.36s-.99-.95-.99-1.52h.73c0 .69.07.87.26.87.24 0 .24-.35.24-.64 0-.64.08-1.02-.57-1.05h-.06ZM132.92 121.17c0 .14-.02 1.14-1 1.14s-1-1-1-1.14v-.6c0-.37.13-.76.39-1-.23-.23-.35-.59-.35-.94v-.43c0-.13.02-1.09.96-1.09s.96.96.96 1.09v.43c0 .35-.12.71-.35.94.26.24.39.63.39 1v.6Zm-1-1.2c-.26 0-.27.29-.27.9 0 .55.06.75.27.75.26 0 .27-.28.27-.75 0-.61-.01-.9-.27-.9Zm0-2.2c-.17 0-.21.17-.22.7 0 .53.03.77.22.77s.22-.24.22-.77c0-.46-.03-.7-.22-.7Z" style="fill:#999390"/></g><g style="opacity:.4"><path d="M111.13 111.37v-.62c.62-.03.57-.26.57-.91 0-.29 0-.66-.24-.66-.19 0-.21.18-.22.87h-.73c0-.58.02-1.52.96-1.52s.97.96.97 1.09c0 .75-.13 1.12-.36 1.34.36.29.43.82.43 1.41 0 .13-.04 1.36-.97 1.36s-.99-.95-.99-1.52h.73c0 .69.07.87.26.87.24 0 .24-.35.24-.64 0-.64.08-1.02-.57-1.05h-.06ZM114.18 113.73c-1 0-1-1.1-1-1.1v-3s0-1.1 1-1.1 1 1.1 1 1.1v3s0 1.1-1 1.1Zm0-4.48c-.26 0-.25.37-.25.37v3s-.01.37.25.37.25-.37.25-.37v-3s.01-.37-.25-.37Z" style="fill:#999390"/></g><g style="opacity:.4"><path d="M164.49 111.37v-.62c.62-.03.57-.26.57-.91 0-.29 0-.66-.24-.66-.19 0-.21.18-.22.87h-.73c0-.58.02-1.52.96-1.52s.97.96.97 1.09c0 .75-.13 1.12-.36 1.34.36.29.43.82.43 1.41 0 .13-.04 1.36-.97 1.36s-.99-.95-.99-1.52h.73c0 .69.07.87.26.87.24 0 .24-.35.24-.64 0-.64.08-1.02-.57-1.05h-.06ZM166.51 109.62c0-.24.06-1.1.98-1.1s.98.86.98 1.1v2.9c0 .36-.04 1.21-.98 1.21s-.98-.85-.98-1.21v-.32h.75c0 .69.01.87.23.87.19 0 .23-.17.23-.55v-.96c-.12.08-.24.12-.37.12-.77 0-.83-.79-.83-1.07v-.99Zm1.21-.22c0-.06-.06-.23-.23-.23-.16 0-.23.17-.23.23v1.48c0 .06.07.23.23.23s.22-.14.23-.21v-1.5Z" style="fill:#999390"/></g><g style="opacity:.4"><path d="M190.48 109.68v-.48c.62-.12.8-.62.8-.62h.45v5.09h-.75v-3.99h-.5ZM193.52 112.56h-1.16v-.66l1.09-3.33h.75v3.33h.35v.66h-.35v1.11h-.69v-1.11Zm-.52-.66h.52v-1.75h-.04l-.04.15-.44 1.59Z" style="fill:#999390"/></g><g style="opacity:.4"><path d="M217.17 109.68v-.48c.62-.12.8-.62.8-.62h.45v5.09h-.75v-3.99h-.5ZM220.19 113.07c.16 0 .23-.17.23-.68v-1.14c0-.21-.08-.37-.24-.37-.17 0-.29.26-.29.37h-.63v-2.68h1.81v.74h-1.16v1.06s.24-.19.43-.17c.77 0 .83.89.83 1.05v1.14c0 .47-.06 1.33-.98 1.33s-.98-.86-.98-1.54h.75v.2c0 .52.06.69.23.69Z" style="fill:#999390"/></g><g style="opacity:.4"><path d="M67.12 103.98h-1.16v-.66l1.09-3.33h.75v3.33h.35v.66h-.35v1.11h-.69v-1.11Zm-.52-.66h.52v-1.75h-.04l-.04.15-.44 1.59ZM68.68 101.04c0-.24.06-1.1.98-1.1s.98.86.98 1.1v2.9c0 .36-.04 1.21-.98 1.21s-.98-.85-.98-1.21v-.32h.75c0 .69.01.87.23.87.19 0 .23-.17.23-.55v-.96c-.12.08-.24.12-.37.12-.77 0-.83-.79-.83-1.07v-.99Zm1.21-.22c0-.06-.06-.23-.23-.23-.16 0-.23.17-.23.23v1.48c0 .06.07.23.23.23s.22-.14.23-.21v-1.5Z" style="fill:#999390"/></g><g style="opacity:.4"><path d="M199.38 101.1v-.48c.62-.12.8-.62.8-.62h.45v5.09h-.75v-3.99h-.5ZM202.41 105.14c-1 0-1-1.1-1-1.1v-3s0-1.1 1-1.1 1 1.1 1 1.1v3s0 1.1-1 1.1Zm0-4.48c-.26 0-.25.37-.25.37v3s-.01.37.25.37.25-.37.25-.37v-3s.01-.37-.25-.37Z" style="fill:#999390"/></g><g style="opacity:.4"><path d="M208.27 101.1v-.48c.62-.12.8-.62.8-.62h.45v5.09h-.75v-3.99h-.5ZM210.28 101.61v-.35c0-.69.18-1.32 1-1.32.76 0 1 .57 1 1.27 0 1.04-.79 2.49-1.17 3.14h1.18v.74h-2.03v-.74s1.23-1.84 1.27-3.09c0-.28-.03-.62-.25-.62-.21 0-.25.3-.25.62v.35h-.75Z" style="fill:#999390"/></g><g style="opacity:.4"><path d="M199.38 92.51v-.48c.62-.12.8-.62.8-.62h.45v5.09h-.75v-3.99h-.5ZM201.96 94.2v-.62c.62-.03.57-.26.57-.91 0-.29 0-.66-.24-.66-.19 0-.21.18-.22.87h-.73c0-.58.02-1.52.96-1.52s.97.96.97 1.09c0 .75-.13 1.12-.36 1.34.36.29.43.82.43 1.41 0 .13-.03 1.36-.97 1.36s-.99-.95-.99-1.52h.73c0 .69.07.87.26.87.24 0 .24-.35.24-.64 0-.64.08-1.02-.57-1.05h-.06Z" style="fill:#999390"/></g><g style="opacity:.4"><path d="M208.27 92.51v-.48c.62-.12.8-.62.8-.62h.45v5.09h-.75v-3.99h-.5ZM210.16 92.51v-.48c.62-.12.8-.62.8-.62h.45v5.09h-.75v-3.99h-.5Z" style="fill:#999390"/></g><g style="opacity:.4"><path d="M128.35 84.44v-.35c0-.69.18-1.32 1-1.32.76 0 1 .57 1 1.27 0 1.04-.79 2.49-1.17 3.14h1.18v.74h-2.03v-.74s1.23-1.84 1.27-3.09c0-.28-.03-.62-.25-.62-.21 0-.25.3-.25.62v.35h-.75ZM131.09 83.87c0-.24.06-1.1.98-1.1s.98.86.98 1.1v2.9c0 .36-.04 1.21-.98 1.21s-.98-.85-.98-1.21v-.32h.75c0 .69.01.87.23.87.19 0 .23-.17.23-.55v-.96c-.12.08-.24.12-.37.12-.77 0-.83-.79-.83-1.07v-.99Zm1.21-.22c0-.06-.06-.23-.23-.23-.16 0-.23.17-.23.23v1.48c0 .06.07.23.23.23s.22-.14.23-.21v-1.5Z" style="fill:#999390"/></g><g style="opacity:.4"><path d="M83.88 75.86v-.35c0-.69.18-1.32 1-1.32.76 0 1 .57 1 1.27 0 1.04-.79 2.49-1.17 3.14h1.18v.74h-2.03v-.74s1.23-1.84 1.27-3.09c0-.28-.03-.62-.25-.62-.21 0-.25.3-.25.62v.35h-.75ZM88.6 78.25c0 .14-.02 1.14-1 1.14s-1-1-1-1.14v-.6c0-.37.13-.76.39-1-.23-.23-.35-.59-.35-.94v-.43c0-.13.02-1.09.96-1.09s.96.96.96 1.09v.43c0 .35-.12.71-.35.94.26.24.39.63.39 1v.6Zm-1-1.2c-.26 0-.27.29-.27.9 0 .55.06.75.27.75.26 0 .27-.28.27-.75 0-.61-.01-.9-.27-.9Zm0-2.2c-.17 0-.21.17-.22.7 0 .53.03.77.22.77s.22-.24.22-.77c0-.46-.03-.7-.22-.7Z" style="fill:#999390"/></g><g style="opacity:.4"><path d="M57.2 67.27v-.35c0-.69.18-1.32 1-1.32.76 0 1 .57 1 1.27 0 1.04-.79 2.49-1.17 3.14h1.18v.74h-2.03v-.74s1.23-1.84 1.27-3.09c0-.28-.03-.62-.25-.62-.21 0-.25.3-.25.62v.35h-.75ZM61.91 69.7c0 .24-.06 1.1-.98 1.1s-.98-.86-.98-1.1v-2.9c0-.36.04-1.21.98-1.21s.98.85.98 1.21v.32h-.75c0-.69-.01-.87-.23-.87-.19 0-.23.17-.23.55v.91c.12-.08.24-.12.37-.12.77 0 .83.79.83 1.07v1.04Zm-.98.45c.16 0 .23-.17.23-.23V68.4c0-.06-.07-.23-.23-.23s-.22.14-.23.21v1.54c0 .06.06.23.23.23Z" style="fill:#999390"/></g><g style="opacity:.4"><path d="M190.48 66.76v-.48c.62-.12.8-.62.8-.62h.45v5.09h-.75v-3.99h-.5ZM194.46 69.7c0 .24-.06 1.1-.98 1.1s-.98-.86-.98-1.1v-2.9c0-.36.04-1.21.98-1.21s.98.85.98 1.21v.32h-.75c0-.69-.01-.87-.23-.87-.19 0-.23.17-.23.55v.91c.12-.08.24-.12.37-.12.77 0 .83.79.83 1.07v1.04Zm-.98.45c.16 0 .23-.17.23-.23V68.4c0-.06-.07-.23-.23-.23s-.22.14-.23.21v1.54c0 .06.06.23.23.23Z" style="fill:#999390"/></g><g style="opacity:.4"><path d="M92.77 58.69v-.35c0-.69.18-1.32 1-1.32.76 0 1 .57 1 1.27 0 1.04-.79 2.49-1.17 3.14h1.18v.74h-2.03v-.74s1.23-1.84 1.27-3.09c0-.28-.03-.62-.25-.62-.21 0-.25.3-.25.62v.35h-.75ZM96.47 57.81h-1.12v-.74h1.88v.75l-.75 4.34h-.78l.76-4.35Z" style="fill:#999390"/></g><g style="opacity:.4"><path d="M110.56 58.69v-.35c0-.69.18-1.32 1-1.32.76 0 1 .57 1 1.27 0 1.04-.79 2.49-1.17 3.14h1.18v.74h-2.03v-.74s1.23-1.84 1.27-3.09c0-.28-.03-.62-.25-.62-.21 0-.25.3-.25.62v.35h-.75ZM114.33 62.22c-1 0-1-1.1-1-1.1v-3s0-1.1 1-1.1 1 1.1 1 1.1v3s0 1.1-1 1.1Zm0-4.48c-.26 0-.25.37-.25.37v3s-.01.37.25.37.25-.37.25-.37v-3s.01-.37-.25-.37Z" style="fill:#999390"/></g><g style="opacity:.4"><path d="M154.91 58.17v-.48c.62-.12.8-.62.8-.62h.45v5.09h-.75v-3.99h-.5ZM156.9 58.12c0-.24.06-1.1.98-1.1s.98.86.98 1.1v2.9c0 .36-.04 1.21-.98 1.21s-.98-.85-.98-1.21v-.32h.75c0 .69.01.87.23.87.19 0 .23-.17.23-.55v-.96c-.12.08-.24.12-.37.12-.77 0-.83-.79-.83-1.07v-.99Zm1.21-.22c0-.06-.06-.23-.23-.23-.16 0-.23.17-.23.23v1.48c0 .06.07.23.23.23s.22-.14.23-.21v-1.5Z" style="fill:#999390"/></g><g style="opacity:.4"><path d="M119.46 50.1v-.35c0-.69.18-1.32 1-1.32.76 0 1 .57 1 1.27 0 1.04-.79 2.49-1.17 3.14h1.18v.74h-2.03v-.74s1.23-1.84 1.27-3.09c0-.28-.03-.62-.25-.62-.21 0-.25.3-.25.62v.35h-.75ZM122.21 50.1v-.35c0-.69.18-1.32 1-1.32.76 0 1 .57 1 1.27 0 1.04-.79 2.49-1.17 3.14h1.18v.74h-2.03v-.74s1.23-1.84 1.27-3.09c0-.28-.03-.62-.25-.62-.21 0-.25.3-.25.62v.35h-.75Z" style="fill:#999390"/></g><g style="opacity:.4"><path d="M199.38 49.59v-.48c.62-.12.8-.62.8-.62h.45v5.09h-.75v-3.99h-.5ZM202.33 49.23h-1.12v-.74h1.88v.75l-.75 4.34h-.78l.76-4.35Z" style="fill:#999390"/></g><g style="opacity:.4"><path d="M128.35 41.52v-.35c0-.69.18-1.32 1-1.32.76 0 1 .57 1 1.27 0 1.04-.79 2.49-1.17 3.14h1.18V45h-2.03v-.74s1.23-1.84 1.27-3.09c0-.28-.03-.62-.25-.62-.21 0-.25.3-.25.62v.35h-.75ZM131.67 42.7v-.62c.62-.03.57-.26.57-.91 0-.29 0-.66-.24-.66-.19 0-.21.18-.22.87h-.73c0-.58.02-1.52.96-1.52s.97.96.97 1.09c0 .76-.13 1.12-.36 1.34.36.29.43.82.43 1.41 0 .13-.04 1.36-.97 1.36s-.99-.95-.99-1.52h.73c0 .69.07.87.26.87.24 0 .24-.35.24-.64 0-.64.08-1.02-.57-1.05h-.06Z" style="fill:#999390"/></g><g style="opacity:.4"><path d="M172.7 41.01v-.48c.62-.12.8-.62.8-.62h.45V45h-.75v-3.99h-.5ZM176.67 43.91c0 .14-.02 1.14-1 1.14s-1-1-1-1.14v-.6c0-.37.13-.76.39-1-.23-.23-.35-.59-.35-.94v-.43c0-.13.02-1.09.96-1.09s.96.96.96 1.09v.43c0 .35-.12.71-.35.94.26.24.39.63.39 1v.6Zm-1-1.2c-.26 0-.27.29-.27.9 0 .55.06.76.27.76.26 0 .27-.28.27-.76 0-.61-.01-.9-.27-.9Zm0-2.2c-.17 0-.21.17-.22.7 0 .53.03.77.22.77s.22-.24.22-.77c0-.46-.03-.7-.22-.7Z" style="fill:#999390"/></g><g style="opacity:.4"><path d="M101.67 32.94v-.35c0-.69.18-1.32 1-1.32.76 0 1 .57 1 1.27 0 1.04-.79 2.49-1.17 3.14h1.18v.74h-2.03v-.74s1.23-1.84 1.27-3.09c0-.28-.03-.62-.25-.62-.21 0-.25.3-.25.62v.35h-.75ZM105.44 35.82c.16 0 .23-.17.23-.68V34c0-.21-.08-.37-.24-.37-.17 0-.29.26-.29.37h-.63v-2.68h1.81v.74h-1.16v1.06s.24-.19.43-.17c.77 0 .83.89.83 1.05v1.14c0 .47-.06 1.33-.98 1.33s-.98-.86-.98-1.54h.75v.2c0 .52.06.69.23.69Z" style="fill:#999390"/></g><g style="opacity:.4"><path d="M110.56 24.35V24c0-.69.18-1.32 1-1.32.76 0 1 .57 1 1.27 0 1.04-.79 2.49-1.17 3.14h1.18v.74h-2.03v-.74s1.23-1.84 1.27-3.09c0-.28-.03-.62-.25-.62-.21 0-.25.3-.25.62v.35h-.75ZM114.34 26.72h-1.16v-.66l1.09-3.33h.75v3.33h.35v.66h-.35v1.11h-.69v-1.11Zm-.52-.66h.52v-1.75h-.04l-.04.15-.44 1.59Z" style="fill:#999390"/></g><g style="opacity:.94"><path d="M139.04 217.32v-1.07s.02-.51-.34-.51-.34.51-.34.51v4.17s-.02.51.34.51.34-.51.34-.51v-1.25h-.41v-.86h1.42v3.45h-.6l-.12-.33c-.19.24-.47.41-.79.41-1.29 0-1.2-1.5-1.2-1.5v-4.08s0-1.5 1.36-1.5 1.36 1.5 1.36 1.5v1.07h-1.02ZM141.19 214.83h2.33v1.05h-1.31v1.82h.94v1.11h-.94v1.9h1.31v1.05h-2.33v-6.93ZM144.46 221.77v-6.93h.9c1.22 0 1.86.46 1.86 1.84 0 .64-.14 1.01-.63 1.43 0 0 .71.32.71 1.7 0 1.02-.36 1.92-1.57 1.96h-1.25Zm1.02-5.92v1.85c.19 0 .75.03.75-.92s-.57-.92-.75-.92Zm0 2.78v2.13c.19 0 .75.08.75-1.07s-.57-1.07-.75-1.07ZM148.27 214.83h1.02v6.93h-1.02v-6.93ZM150.42 214.83h2.33v1.05h-1.31v1.82h.94v1.11h-.94v1.9h1.31v1.05h-2.33v-6.93ZM153.34 215.88v-1.05h2.94v1.05h-.96v5.88h-1.02v-5.88h-.96ZM158.79 217.03v-.48c0-.93.25-1.79 1.36-1.79 1.04 0 1.36.77 1.36 1.73 0 1.41-1.08 3.38-1.59 4.27h1.61v1.01h-2.76v-1.01s1.68-2.51 1.73-4.21c0-.38-.04-.85-.34-.85-.28 0-.34.41-.34.85v.48h-1.02Z" style="fill:#92c01a"/></g><g style="opacity:.94"><path d="M58.24 213.21v-1.07s.02-.51-.34-.51-.34.51-.34.51v4.17s-.02.51.34.51.34-.51.34-.51v-1.25h-.41v-.86h1.42v3.45h-.6l-.12-.33c-.19.24-.47.41-.79.41-1.29 0-1.2-1.5-1.2-1.5v-4.08s0-1.5 1.36-1.5 1.36 1.5 1.36 1.5v1.07h-1.02ZM60.38 210.72h2.33v1.05H61.4v1.82h.94v1.11h-.94v1.9h1.31v1.05h-2.33v-6.93ZM63.65 217.65v-6.93h.9c1.22 0 1.86.46 1.86 1.84 0 .64-.14 1.01-.63 1.43 0 0 .71.32.71 1.7 0 1.02-.36 1.91-1.57 1.96h-1.25Zm1.02-5.92v1.85c.19 0 .75.03.75-.92s-.57-.92-.75-.92Zm0 2.78v2.13c.19 0 .75.08.75-1.07s-.57-1.07-.75-1.07ZM67.47 210.72h1.02v6.93h-1.02v-6.93ZM69.62 210.72h2.33v1.05h-1.31v1.82h.94v1.11h-.94v1.9h1.31v1.05h-2.33v-6.93ZM72.53 211.76v-1.05h2.94v1.05h-.96v5.88h-1.02v-5.88h-.96ZM78.76 214.52v-.85c.85-.05.77-.36.77-1.24 0-.4 0-.9-.32-.9-.25 0-.29.25-.3 1.18h-1c0-.78.03-2.08 1.3-2.08s1.32 1.31 1.32 1.49c0 1.03-.18 1.52-.49 1.83.49.4.58 1.11.58 1.92 0 .18-.05 1.85-1.32 1.85s-1.35-1.29-1.35-2.07h1c0 .93.09 1.18.35 1.18.32 0 .32-.48.32-.88 0-.88.11-1.39-.77-1.43h-.08Z" style="fill:#92c01a"/></g><g style="opacity:.94"><path d="M111.8 298.93v-1.07s.02-.51-.34-.51-.34.51-.34.51v4.17s-.02.51.34.51.34-.51.34-.51v-1.25h-.41v-.86h1.42v3.45h-.6l-.12-.33c-.19.24-.47.41-.79.41-1.29 0-1.2-1.5-1.2-1.5v-4.08s0-1.5 1.36-1.5 1.36 1.5 1.36 1.5v1.07h-1.02ZM113.94 296.44h2.33v1.05h-1.31v1.82h.94v1.11h-.94v1.9h1.31v1.05h-2.33v-6.93ZM117.21 303.37v-6.93h.9c1.22 0 1.86.46 1.86 1.84 0 .64-.14 1.01-.63 1.43 0 0 .71.32.71 1.7 0 1.02-.36 1.92-1.57 1.96h-1.25Zm1.02-5.92v1.85c.19 0 .75.03.75-.92s-.57-.92-.75-.92Zm0 2.78v2.13c.19 0 .75.08.75-1.07s-.57-1.07-.75-1.07ZM121.03 296.44h1.02v6.93h-1.02v-6.93ZM123.18 296.44h2.33v1.05h-1.31v1.82h.94v1.11h-.94v1.9h1.31v1.05h-2.33v-6.93ZM126.09 297.49v-1.05h2.94v1.05h-.96v5.88h-1.02v-5.88h-.96ZM131.38 297.94v-.65c.85-.17 1.08-.85 1.08-.85h.61v6.93h-1.02v-5.43h-.68Z" style="fill:#92c01a"/></g><g style="opacity:.94"><path d="M85.68 99.3v-1.07s.02-.51-.34-.51-.34.51-.34.51v4.17s-.02.51.34.51.34-.51.34-.51v-1.25h-.41v-.86h1.42v3.45h-.6l-.12-.33c-.19.24-.47.41-.79.41-1.29 0-1.2-1.5-1.2-1.5v-4.08s0-1.5 1.36-1.5 1.36 1.5 1.36 1.5v1.07h-1.02ZM87.82 96.81h2.33v1.05h-1.31v1.82h.94v1.11h-.94v1.9h1.31v1.05h-2.33v-6.93ZM91.1 103.74v-6.93h.9c1.22 0 1.86.46 1.86 1.84 0 .64-.14 1.01-.63 1.43 0 0 .71.32.71 1.7 0 1.02-.36 1.91-1.57 1.96h-1.25Zm1.02-5.92v1.85c.19 0 .75.03.75-.92s-.57-.92-.75-.92Zm0 2.78v2.13c.19 0 .75.08.75-1.07s-.57-1.07-.75-1.07ZM94.91 96.81h1.02v6.93h-1.02v-6.93ZM97.06 96.81h2.33v1.05h-1.31v1.82h.94v1.11h-.94v1.9h1.31v1.05h-2.33v-6.93ZM99.97 97.85V96.8h2.94v1.05h-.96v5.88h-1.02v-5.88h-.96ZM106.83 102.23h-1.57v-.9l1.49-4.53h1.02v4.53h.47v.9h-.47v1.51h-.93v-1.51Zm-.71-.9h.71v-2.38h-.06l-.06.21-.59 2.17Z" style="fill:#92c01a"/></g><g style="opacity:.94"><path d="M183.51 80.87V79.8s.02-.51-.34-.51-.34.51-.34.51v4.17s-.02.51.34.51.34-.51.34-.51v-1.25h-.41v-.86h1.42v3.45h-.6l-.12-.33c-.19.24-.47.41-.79.41-1.29 0-1.2-1.5-1.2-1.5v-4.08s0-1.5 1.36-1.5 1.36 1.5 1.36 1.5v1.07h-1.02ZM185.66 78.38h2.33v1.05h-1.31v1.82h.94v1.11h-.94v1.9h1.31v1.05h-2.33v-6.93ZM188.93 85.31v-6.93h.9c1.22 0 1.86.46 1.86 1.84 0 .64-.14 1.01-.63 1.43 0 0 .71.32.71 1.7 0 1.02-.36 1.91-1.57 1.96h-1.25Zm1.02-5.92v1.85c.19 0 .75.03.75-.92s-.57-.92-.75-.92Zm0 2.78v2.13c.19 0 .75.08.75-1.07s-.57-1.07-.75-1.07ZM192.74 78.38h1.02v6.93h-1.02v-6.93ZM194.89 78.38h2.33v1.05h-1.31v1.82h.94v1.11h-.94v1.9h1.31v1.05h-2.33v-6.93ZM197.81 79.42v-1.05h2.94v1.05h-.96v5.88h-1.02v-5.88h-.96ZM204.65 84.5c.22 0 .31-.23.31-.92v-1.55c0-.28-.1-.51-.32-.51s-.4.35-.4.51h-.86v-3.65h2.46v1.01h-1.58v1.44s.32-.25.58-.24c1.05 0 1.13 1.21 1.13 1.43v1.55c0 .64-.08 1.81-1.33 1.81s-1.33-1.17-1.33-2.09h1.02v.27c0 .71.08.93.31.93Z" style="fill:#92c01a"/></g><g style="opacity:.94"><path d="M237.45 308.74c-1.37 0-1.36-1.5-1.36-1.5v-4.08s0-1.5 1.36-1.5 1.36 1.5 1.36 1.5v4.08s0 1.5-1.36 1.5Zm-1.1-8.54h.88v.92h-.88v-.92Zm1.1 2.45c-.36 0-.34.51-.34.51v4.08s-.02.51.34.51.34-.51.34-.51v-4.08s.02-.51-.34-.51Zm.23-2.45h.88v.92h-.88v-.92ZM241.13 301.65c1.23-.03 1.42 1.07 1.42 1.84l-1 .09c0-.46-.07-1-.41-1-.26 0-.35.29-.35.69 0 .47.41 1 .8 1.58.47.71.95 1.4.95 2.14 0 .92-.3 1.74-1.41 1.74-1.31 0-1.48-.99-1.48-2.02l1-.09c0 .58.06 1.18.48 1.18.3 0 .42-.33.42-.76 0-.46-.43-1.02-.82-1.6-.48-.71-.93-1.42-.93-2.16s.37-1.6 1.33-1.62ZM243.13 302.78v-1.05h2.94v1.05h-.96v5.88h-1.02v-5.88h-.96ZM246.84 301.73h2.33v1.05h-1.31v1.82h.94v1.11h-.94v1.9h1.31v1.05h-2.33v-6.93ZM251.94 308.66l-.53-2.92h-.27v2.92h-1.02v-6.93h1.02c1.21 0 1.74.7 1.74 2 0 .69-.18 1.31-.57 1.57l.65 3.36h-1.02Zm-.8-5.92v2.06c.28 0 .75-.04.75-1.03s-.47-1.03-.75-1.03ZM255.72 308.66l-.53-2.92h-.27v2.92h-1.02v-6.93h1.02c1.21 0 1.74.7 1.74 2 0 .69-.18 1.31-.57 1.57l.65 3.36h-1.02Zm-.8-5.92v2.06c.28 0 .75-.04.75-1.03s-.47-1.03-.75-1.03ZM257.68 301.73h2.33v1.05h-1.31v1.82h.94v1.11h-.94v1.9h1.31v1.05h-2.33v-6.93ZM260.96 301.73h1.02v6.93h-1.02v-6.93ZM265.76 306.29v.95s0 1.5-1.36 1.5-1.36-1.5-1.36-1.5v-4.08s0-1.5 1.36-1.5 1.36 1.5 1.36 1.5v.95h-.95v-.95s.04-.51-.39-.51c-.36 0-.36.51-.36.51v4.08s0 .51.36.51c.42 0 .39-.51.39-.51v-.95h.95ZM268.56 305.64h-.79v3.02h-1.02v-6.93h1.02v2.87h.79v-2.87h1.02v6.93h-1.02v-3.02Z" style="fill:#92c01a"/></g><path style="opacity:.94;fill:#fff" d="m6.81 225.35-5.01-1.68 1.71-7.9L0 209.46l5.06-10.65 8.58 2.24-2.47 5.95 8.16 10.1-2.97 8.38-9.55-.13z"/><path style="fill:none" d="m118.89 189.76.3-.28-3.57 2.56 3.27-2.28z"/></svg>
