<svg viewBox="0 0 3747 4455"
  xmlns="http://www.w3.org/2000/svg" fill-rule="evenodd" clip-rule="evenodd" stroke-linejoin="round" stroke-miterlimit="1.414" preserveAspectRatio="xMinYMax">
  <g>
    <path d="M314.906 1828.145c221.6 0 236.183-55.4 233.266-758.108 2.917-699.783-11.667-755.191-233.266-755.191v1513.299zm-67.059 314.9H-.003V-.055h247.85C830.997 2.863 874.74 233.205 874.74 1072.955c0 836.833-43.742 1067.174-626.892 1070.09M1040.339-.004h720.19v323.65h-405.29v562.741h291.574v344.066h-291.575v588.984h405.292v323.658h-720.191V-.005zM2236.338 311.97v635.634c87.467 0 233.258-11.659 233.258-317.809 0-306.166-145.791-317.824-233.258-317.824m247.842 1831.107l-163.292-903.891h-84.55v903.891H1921.43V-.012h314.908c373.217 0 536.5 215.766 536.5 618.132 0 212.859-55.4 405.3-174.942 486.942l201.184 1038.016h-314.9zM332.397 3314.294l-26.241-99.133h-17.5v1215.875H-.003v-2143.1h279.917l306.158 1116.75 26.233 99.133h17.5V2287.936h288.659v2143.1H638.547l-306.15-1116.742zM1107.38 2287.911h720.2v323.659h-405.292v562.741h291.575v344.058h-291.575v588.992h405.292v323.65h-720.2v-2143.1zM2825.321 2287.92v1702.816s2.917 463.608-419.875 463.608c-422.783 0-419.874-463.608-419.874-463.608V2287.92h314.908v1702.816s-5.834 157.45 104.966 157.45 104.967-157.45 104.967-157.45V2287.92h314.908zM3026.48 2287.911h720.2v323.659h-405.292v562.741h291.575v344.058h-291.575v588.992h405.291v323.65h-720.2v-2143.1z" fill="#fff" fill-rule="nonzero"/>
  </g>
</svg>
