<svg xmlns="http://www.w3.org/2000/svg" viewBox="0 0 50 50"><g data-name="Ebene 2"><g data-name="Ebene 1"><circle cx="25" cy="25" r="25" fill="#92c01a"/><path d="M29.57 36.23h-9.14a6.38 6.38 0 0 1-6.36-6.36v-9.74a6.38 6.38 0 0 1 6.36-6.36h9.14a6.38 6.38 0 0 1 6.36 6.36v9.74a6.38 6.38 0 0 1-6.36 6.36zm0-1.68a4.71 4.71 0 0 0 4.68-4.68v-9.74a4.71 4.71 0 0 0-4.68-4.68h-9.14a4.71 4.71 0 0 0-4.68 4.68v9.74a4.71 4.71 0 0 0 4.68 4.68z" fill="#fff"/><path d="M31.05 24.91a6 6 0 1 1-6-6 6 6 0 0 1 6 6zM25 21a3.94 3.94 0 1 0 4 3.92A3.94 3.94 0 0 0 25 21z" fill="#fff"/><circle cx="31.15" cy="18.8" r="1.43" fill="#fff"/></g></g></svg>
