<svg xmlns="http://www.w3.org/2000/svg" viewBox="0 0 987.77 1200"><g data-name="Ebene 2"><g data-name="Ebene 1"><path opacity=".94" fill="#fff" d="M214.46 874.87l-5.33-51.2 43.74 5.29 7.92 12.21 10.26-12.14 29.85-5.26 7.72 18.19 40.08 4.03 6.65-17.9V793.3l-10.65 11.08-42.09-31.5 10.34-74.98-1.66-39 .11-.54 6.27-30.94-18.74-21.63 2.86-30.11-14.66-19.06 4.31-12.94-13.72-19.21V513.1l-12.25-16.71-26.44 13.8v18.59l-13.68 6.84-25.28 19.66-21.71 15.52-20.48-2.93-31.02 14.22-11.22 32.05-39.39-22.06-22.19 2.12.94 6.09-21.58 43.15 28.03 30.98-9.21 26.04-.01.22 24.8 53.73 57.72 4.32 70.15 30.57 3.46 1.6-7.55 8.55-29.16 71.45 23.5 10.76 19.31-6.79zM663.99 783.59l-27.67-22.13-42.19 12.37-4.17 22.35-16.52 14.99h-30.26l-9.6 2.3 6.45 11.15h-33.07L475.8 784l-14.32-3.35-4.36 12.52 26.66 39.84-23.22 42.69-79.38-32.99-7.98 36.14 6.47 22.63-.06.81-3.85 50.38-18.85 27.43.94.93 25.8 25.8 13.33-31.98 36.99-1.32 12.28 2.37 8.51 17.05 28.66-10.43 42.18-16.57 77.92-13.76 18.43 8.38 3.19-2.08-26.72-67.42 42.61-25.27 20.11-37.1h23.08l7.04-24.65-27.27-20.46z"/><path opacity=".94" fill="#fff" d="M322.13 698.34l-.05.41-9.66 70.03 31.29 23.42 20.8-21.64v55.3l91.94 38.22 16.64-30.58-26.12-39.03 8.57-24.61 25.53 5.97 30.41 39.63h12.66l-4.65-8.05 23.15-5.41h27.26l11.62-10.53 4.64-24.85 41.42-12.15-23.63-18.9-39.01-48.37 5.92-28.11-18.28-19.69.98-2.74 5.01-32.27 25.7-17.51 25.18-3.16 60.38-37.81-27.72-31.45-43-10.42-40.03 37.06-17.93-17.93-46.87-8.52-32.21-28.01-16.25 1.62-10.44-37.28-15.28-6.11-47.7 78.63 31.83 13.83-11.86 33.87-24.22 24.12-38.47 27.48-1.9.87-7.29 35.96 1.64 38.71zM370.41 902.41l-6.65-23.28 8.83-40-10.02-4.16-7.74 20.84-52.53-5.28-6.98-16.48-19.41 3.43-16.1 19.02-12.3-18.95-28.09-3.4 4.89 46.96-29.61 10.42-26.51-12.14-25.21 61.77 6.2 24.77 70.89 2.79 25.64-16.6 101.72 18.49 2.9 2.9 16.49-23.99 3.59-47.11z"/><path fill="#fff" d="M400.92 1070.27l-4.54-10.87-21.26 11.95-69.43-31.42 32.12-61.31-90.06-16.37-25.02 16.18-75.74-2.96-22.56 18.04L94 989.53l1.21 15.73-49.58 48.07-3 24.05-35.85 29.88L0 1147.91l41.2-28.72 30.86 1.92-6.48 37.22 33.89 36.61 59.62-9.71 57.41-55.07 47.18 69.84 10.66-4.45-2.71-24.45 25.71-63.42 27.03 30.39 33.44-7.72 9.89 13.21 6.4-6.38-10.56-18.83 12.41-26.87 10.57 7.55 14.4-28.76z" opacity=".94"/><path fill="#fff" d="M626.59 972.85l-24.32-10.68-74.1 13.08-78.14 29.68-10.99-21.98-35.57 1.28-16.46 39.55-40.7-40.69-27.39 52.29 55.73 25.21 26.45-14.87 8.5 20.44 45.69 7.83 9.96-25.62 94.18-19.16 24.35 51.74 197.92 27.64 38.18-33.78 90.25-11.83 35.07-50.48-4.57-50.11 13.41-10.06 2.98-4.46-22.97-17.24-5.57-4.18 59.29-13.19-22.36-118.73-164.33-24.3-22.42 52.3-78.45-14.8-8.74 30.56h-24.61l-18.64 34.43-37.85 22.43 27.44 70.56-11.22 7.14zM764.22 445.81l-20.46-13.64-1-.66-11.24-40.49 7.26-32.18-28.2-75.53-26.97-17.26v-24.56l18.42-40.95-20.49-56.61-23.91-8.32-18.67-44.6-32.58-7.13-23.78-27.93-34.89-2.75-21.01 32.03-54.48 30.84-2.3 11.54-51.44 8.57-8.19-30 22.48-20.44-6.73-13.44-15.18 7.15-68.38-20.87 8.61-22.11-5.12-17.92-19.34-6.15-21 4.19L258.98 0l-8.33 2.98 24.41 61.56-21.19 3.34 1.12 8.96 15.2 4.33-1.14 29.46 9 14.38 30.51 16.35-2.77 8.14-51.7-8.62-9.37 2.89-3.78 50.53-12.4-15.17-3.54 2.56-4.92 21.03-18.32-6.67-11.1-38.39-36.07 1.85-26.81 12.02-1.62 27.54h15.42L120.8 299.56H97.04L95.08 314l26.16 5.69-29.95 51.04 6.57 8.88-2.86 9.27-21.66 12.98-28.21-4.45-19.99 12.92 16.42 28.73-6.34 52.26-12.43 13.83 28.91 73.76.86 5.6 25.8-2.47 31.89 17.86 8.74-24.98 37.42-17.15 19.45 2.78 18.36-13.12 26.32-20.35 8.7-4.35v-18.48l39.15-20.43 19.12 26.07v11.44l14.8 20.71-4.25 12.73 13.85 18-2.84 29.78 12.28 14.17 40.78-29.13 21.74-21.74 8.11-23.16-33.77-14.68 57.82-95.32 27.48 11 9.52 34.01 12.27-1.23 33.38 29.02 47.23 8.59 13.43 13.43 36.97-34.22 51.1 12.38 30.83 34.98 39.5-24.73-2.45-19.64 17.84 1.77 25.86 20.52 8.16-26.89-2.93-45.87z" opacity=".94"/><g opacity=".94" fill="#94c11a"><path d="M162.41 1053.11c3.81-.08 4.42 3.31 4.42 5.72l-3.1.29c0-1.43-.21-3.1-1.26-3.1-.82 0-1.09.9-1.09 2.13 0 1.47 1.26 3.11 2.49 4.9 1.47 2.2 3 4.34 3 6.65 0 2.87-.93 5.42-4.39 5.42-4.07 0-4.6-3.07-4.6-6.27l3.1-.29c0 1.79.18 3.66 1.5 3.66.93 0 1.29-1 1.29-2.37s-1.35-3.17-2.55-5c-1.5-2.2-2.9-4.4-2.9-6.72s1.1-4.96 4.09-5.02zM177.94 1067.5v3s0 4.66-4.22 4.66-4.22-4.66-4.22-4.66v-12.69s0-4.66 4.22-4.66 4.22 4.66 4.22 4.66v3h-3v-3s.12-1.58-1.2-1.58c-1.11 0-1.11 1.58-1.11 1.58v12.69s0 1.59 1.11 1.59c1.32 0 1.2-1.59 1.2-1.59v-3zM186.65 1065.51h-2.46v9.38H181v-21.54h3.17v8.91h2.46v-8.91h3.17v21.54h-3.17zM197.88 1074.89h-2.46l-2.9-21.54h2.93l1.26 11.19.06.71h.23l.09-.71 1.35-11.19h2.28l1.35 11.19.09.71h.23l.06-.71 1.26-11.19h2.93l-2.9 21.54h-2.46l-1.47-10.2-.17-1.26h-.12l-.17 1.26zM209.34 1053.35h7.24v3.25h-4.07v5.66h2.93v3.46h-2.93v5.91h4.07v3.26h-7.24zM219.51 1053.35h3.17v21.54h-3.17zM225.32 1071.49l5-15H226v-3.13h7.68v3.13l-5 15.27h5v3.14h-8.38z"/></g><g opacity=".4" fill="#9b9591"><path d="M478 963.23c0 .43-.06 3.56-3.1 3.56s-3.1-3.13-3.1-3.56v-1.85a4.36 4.36 0 0 1 1.21-3.12 4.18 4.18 0 0 1-1.08-2.9V954c0-.41.07-3.4 3-3.4s3 3 3 3.4v1.34a4.14 4.14 0 0 1-1.08 2.9 4.36 4.36 0 0 1 1.21 3.12zm-3.1-3.72c-.8 0-.84.9-.84 2.8 0 1.7.17 2.34.84 2.34s.84-.88.84-2.34c.02-1.9-.02-2.8-.82-2.8zm0-6.85c-.52 0-.67.54-.69 2.18s.09 2.39.69 2.39.69-.73.69-2.39c.02-1.44-.07-2.18-.67-2.18zM480 955.81v-1.1c0-2.13.55-4.09 3.09-4.09 2.37 0 3.1 1.76 3.1 3.94 0 3.23-2.45 7.73-3.63 9.75h3.68v2.3h-6.31v-2.3s3.83-5.73 3.94-9.6c0-.86-.09-1.94-.78-1.94s-.77.93-.77 1.94v1.1z"/></g><g opacity=".4" fill="#9b9591"><path d="M170.86 926.43h-3.48v-2.31h5.85v2.33l-2.32 13.49h-2.42zM175 927.37c0-.75.19-3.42 3-3.42s3 2.67 3 3.42v9c0 1.12-.13 3.75-3 3.75s-3-2.63-3-3.75v-1h2.33c0 2.13 0 2.71.71 2.71s.71-.51.71-1.72v-3a2.21 2.21 0 0 1-1.17.39c-2.39 0-2.58-2.46-2.58-3.34zm3.75-.69a.74.74 0 0 0-.75-.68.77.77 0 0 0-.71.71v4.59a.77.77 0 0 0 .71.71.73.73 0 0 0 .71-.65z"/></g><g opacity=".4" fill="#9b9591"><path d="M226.13 926.43h-3.49v-2.31h5.86v2.33l-2.33 13.49h-2.41zM236.37 936.57c0 .42-.06 3.55-3.1 3.55s-3.1-3.13-3.1-3.55v-1.86a4.36 4.36 0 0 1 1.21-3.12 4.18 4.18 0 0 1-1.08-2.9v-1.34c0-.41.07-3.4 3-3.4s3 3 3 3.4v1.34a4.17 4.17 0 0 1-1.07 2.9 4.35 4.35 0 0 1 1.2 3.12zm-3.1-3.73c-.79 0-.84.9-.84 2.8 0 1.7.17 2.34.84 2.34s.84-.88.84-2.34c0-1.9-.04-2.8-.84-2.8zm0-6.85c-.51 0-.67.54-.69 2.18s.09 2.39.69 2.39.69-.73.69-2.39c.04-1.44-.08-2.17-.69-2.17z"/></g><g opacity=".4" fill="#9b9591"><path d="M339.85 936.57c0 .42-.06 3.55-3.1 3.55s-3.1-3.13-3.1-3.55v-1.86a4.36 4.36 0 0 1 1.21-3.12 4.18 4.18 0 0 1-1.08-2.9v-1.34c0-.41.07-3.4 3-3.4s3 3 3 3.4v1.34a4.14 4.14 0 0 1-1.08 2.9 4.36 4.36 0 0 1 1.21 3.12zm-3.1-3.73c-.8 0-.84.9-.84 2.8 0 1.7.17 2.34.84 2.34s.84-.88.84-2.34c0-1.9-.04-2.8-.84-2.8zm0-6.85c-.52 0-.67.54-.69 2.18s.09 2.39.69 2.39.69-.73.69-2.39c0-1.44-.09-2.17-.69-2.17zM348 936.57c0 .42-.07 3.55-3.1 3.55s-3.1-3.13-3.1-3.55v-1.86a4.39 4.39 0 0 1 1.2-3.12 4.17 4.17 0 0 1-1.07-2.9v-1.34c0-.41.06-3.4 3-3.4s3 3 3 3.4v1.34a4.18 4.18 0 0 1-1.08 2.9 4.36 4.36 0 0 1 1.21 3.12zm-3.1-3.73c-.8 0-.84.9-.84 2.8 0 1.7.17 2.34.84 2.34s.84-.88.84-2.34c.03-1.9-.02-2.8-.81-2.8zm0-6.85c-.52 0-.67.54-.69 2.18s.08 2.39.69 2.39.68-.73.68-2.39c.03-1.44-.05-2.17-.65-2.17z"/></g><g opacity=".4" fill="#9b9591"><path d="M395.12 936.57c0 .42-.06 3.55-3.1 3.55s-3.1-3.13-3.1-3.55v-1.86a4.36 4.36 0 0 1 1.21-3.12 4.18 4.18 0 0 1-1.08-2.9v-1.34c0-.41.07-3.4 3-3.4s3 3 3 3.4v1.34a4.17 4.17 0 0 1-1.07 2.9 4.39 4.39 0 0 1 1.2 3.12zm-3.1-3.73c-.79 0-.84.9-.84 2.8 0 1.7.17 2.34.84 2.34s.84-.88.84-2.34c0-1.9-.04-2.8-.86-2.8zm0-6.85c-.51 0-.67.54-.69 2.18s.09 2.39.69 2.39.69-.73.69-2.39c0-1.44-.09-2.17-.71-2.17zM400.11 926.43h-3.48v-2.31h5.85v2.33l-2.32 13.49h-2.42z"/></g><g opacity=".4" fill="none"><path d="M478 936.57c0 .42-.06 3.55-3.1 3.55s-3.1-3.13-3.1-3.55v-1.86a4.36 4.36 0 0 1 1.21-3.12 4.18 4.18 0 0 1-1.08-2.9v-1.34c0-.41.07-3.4 3-3.4s3 3 3 3.4v1.34a4.14 4.14 0 0 1-1.08 2.9 4.36 4.36 0 0 1 1.21 3.12zm-3.1-3.73c-.8 0-.84.9-.84 2.8 0 1.7.17 2.34.84 2.34s.84-.88.84-2.34c.02-1.9-.02-2.8-.82-2.8zm0-6.85c-.52 0-.67.54-.69 2.18s.09 2.39.69 2.39.69-.73.69-2.39c.02-1.44-.07-2.17-.67-2.17zM480 929.14V928c0-2.13.55-4.09 3.09-4.09 2.37 0 3.1 1.76 3.1 3.94 0 3.23-2.45 7.73-3.63 9.75h3.68v2.3h-6.31v-2.3s3.83-5.73 3.94-9.6c0-.86-.09-1.94-.78-1.94s-.77.93-.77 1.94v1.1z"/></g><g opacity=".4" fill="#9b9591"><path d="M560.92 936.57c0 .42-.06 3.55-3.1 3.55s-3.1-3.13-3.1-3.55v-1.86a4.36 4.36 0 0 1 1.21-3.12 4.18 4.18 0 0 1-1.08-2.9v-1.34c0-.41.07-3.4 3-3.4s3 3 3 3.4v1.34a4.17 4.17 0 0 1-1.07 2.9 4.35 4.35 0 0 1 1.2 3.12zm-3.1-3.73c-.79 0-.84.9-.84 2.8 0 1.7.17 2.34.84 2.34s.84-.88.84-2.34c0-1.9-.04-2.8-.84-2.8zm0-6.85c-.51 0-.67.54-.69 2.18s.09 2.39.69 2.39.69-.73.69-2.39c0-1.44-.09-2.17-.69-2.17zM564.75 932.8v-1.94c1.94-.11 1.76-.82 1.76-2.82 0-.9 0-2-.73-2-.58 0-.66.57-.68 2.7h-2.29c0-1.79.07-4.74 3-4.74s3 3 3 3.4c0 2.35-.41 3.47-1.12 4.18 1.11.88 1.33 2.52 1.33 4.35 0 .41-.11 4.22-3 4.22s-3.08-3-3.08-4.74h2.28c0 2.13.22 2.69.8 2.69s.73-1.1.73-2c0-2 .26-3.17-1.77-3.27z"/></g><g opacity=".4" fill="none"><path d="M226.13 899.75h-3.49v-2.3h5.86v2.32l-2.33 13.5h-2.41zM236.37 909.89c0 .43-.06 3.55-3.1 3.55s-3.1-3.12-3.1-3.55V908a4.34 4.34 0 0 1 1.21-3.12 4.19 4.19 0 0 1-1.08-2.88v-1.33c0-.41.07-3.4 3-3.4s3 3 3 3.4V902a4.18 4.18 0 0 1-1.07 2.91 4.33 4.33 0 0 1 1.2 3.12zm-3.1-3.72c-.79 0-.84.9-.84 2.79 0 1.71.17 2.35.84 2.35s.84-.88.84-2.35c0-1.89-.04-2.79-.84-2.79zm0-6.85c-.51 0-.67.54-.69 2.18s.09 2.39.69 2.39.69-.74.69-2.39c.04-1.44-.08-2.18-.69-2.18z"/></g><g opacity=".4" fill="none"><path d="M339.85 909.89c0 .43-.06 3.55-3.1 3.55s-3.1-3.12-3.1-3.55V908a4.34 4.34 0 0 1 1.21-3.12 4.19 4.19 0 0 1-1.08-2.91v-1.33c0-.41.07-3.4 3-3.4s3 3 3 3.4V902a4.14 4.14 0 0 1-1.08 2.91 4.34 4.34 0 0 1 1.21 3.12zm-3.1-3.72c-.8 0-.84.9-.84 2.79 0 1.71.17 2.35.84 2.35s.84-.88.84-2.35c0-1.89-.04-2.79-.84-2.79zm0-6.85c-.52 0-.67.54-.69 2.18s.09 2.39.69 2.39.69-.74.69-2.39c0-1.44-.09-2.18-.69-2.18zM348 909.89c0 .43-.07 3.55-3.1 3.55s-3.1-3.12-3.1-3.55V908a4.38 4.38 0 0 1 1.2-3.12 4.18 4.18 0 0 1-1-2.88v-1.33c0-.41.06-3.4 3-3.4s3 3 3 3.4V902a4.19 4.19 0 0 1-1.08 2.91A4.34 4.34 0 0 1 348 908zm-3.1-3.72c-.8 0-.84.9-.84 2.79 0 1.71.17 2.35.84 2.35s.84-.88.84-2.35c.03-1.89-.02-2.79-.81-2.79zm0-6.85c-.52 0-.67.54-.69 2.18s.08 2.39.69 2.39.68-.74.68-2.39c.03-1.44-.05-2.18-.65-2.18z"/></g><g opacity=".4" fill="#9b9591"><path d="M339.85 883.22c0 .43-.06 3.55-3.1 3.55s-3.1-3.12-3.1-3.55v-1.85a4.32 4.32 0 0 1 1.21-3.12 4.19 4.19 0 0 1-1.08-2.91V874c0-.41.07-3.41 3-3.41s3 3 3 3.41v1.33a4.14 4.14 0 0 1-1.08 2.91 4.32 4.32 0 0 1 1.21 3.12zm-3.1-3.72c-.8 0-.84.9-.84 2.79 0 1.7.17 2.35.84 2.35s.84-.88.84-2.35c0-1.89-.04-2.79-.84-2.79zm0-6.85c-.52 0-.67.54-.69 2.17s.09 2.39.69 2.39.69-.73.69-2.39c0-1.44-.09-2.17-.69-2.17zM341.87 874c0-.76.19-3.43 3-3.43s3 2.67 3 3.43v9c0 1.11-.13 3.74-3 3.74s-3-2.63-3-3.74v-1h2.33c0 2.12 0 2.71.71 2.71s.7-.52.7-1.72v-3a2.22 2.22 0 0 1-1.16.38c-2.39 0-2.58-2.45-2.58-3.33zm3.74-.69a.72.72 0 0 0-.7-.71.76.76 0 0 0-.71.71v4.58a.76.76 0 0 0 .71.71.71.71 0 0 0 .7-.64z"/></g><g opacity=".4" fill="#9b9591"><path d="M395.12 883.22c0 .43-.06 3.55-3.1 3.55s-3.1-3.12-3.1-3.55v-1.85a4.32 4.32 0 0 1 1.21-3.12 4.19 4.19 0 0 1-1.08-2.91V874c0-.41.07-3.41 3-3.41s3 3 3 3.41v1.33a4.18 4.18 0 0 1-1.07 2.91 4.36 4.36 0 0 1 1.2 3.12zM392 879.5c-.79 0-.84.9-.84 2.79 0 1.7.17 2.35.84 2.35s.84-.88.84-2.35c.02-1.89-.02-2.79-.84-2.79zm0-6.85c-.51 0-.67.54-.69 2.17s.09 2.39.69 2.39.69-.73.69-2.39c.02-1.44-.07-2.17-.69-2.17zM397.14 874c0-.76.2-3.43 3-3.43s3 2.67 3 3.43v9c0 1.11-.13 3.74-3 3.74s-3-2.63-3-3.74v-1h2.33c0 2.12 0 2.71.71 2.71s.71-.52.71-1.72v-3a2.25 2.25 0 0 1-1.17.38c-2.38 0-2.58-2.45-2.58-3.33zm3.75-.69a.73.73 0 0 0-.71-.71.76.76 0 0 0-.71.71v4.58a.76.76 0 0 0 .71.71.72.72 0 0 0 .71-.64z"/></g><g opacity=".4" fill="#9b9591"><path d="M422.75 883.22c0 .43-.06 3.55-3.1 3.55s-3.1-3.12-3.1-3.55v-1.85a4.32 4.32 0 0 1 1.21-3.12 4.19 4.19 0 0 1-1.08-2.91V874c0-.41.07-3.41 3-3.41s3 3 3 3.41v1.33a4.18 4.18 0 0 1-1.07 2.91 4.36 4.36 0 0 1 1.2 3.12zm-3.1-3.72c-.79 0-.84.9-.84 2.79 0 1.7.17 2.35.84 2.35s.84-.88.84-2.35c0-1.89-.04-2.79-.84-2.79zm0-6.85c-.51 0-.67.54-.69 2.17s.09 2.39.69 2.39.69-.73.69-2.39c0-1.44-.09-2.17-.69-2.17zM430.93 883.35c0 .75-.19 3.42-3 3.42s-3-2.67-3-3.42v-9c0-1.12.13-3.75 3-3.75s3 2.63 3 3.75v1h-2.33c0-2.13 0-2.71-.71-2.71s-.71.51-.71 1.72v2.82a2.2 2.2 0 0 1 1.16-.39c2.4 0 2.59 2.46 2.59 3.34zm-3 1.4a.77.77 0 0 0 .71-.71v-4.74a.77.77 0 0 0-.71-.71.72.72 0 0 0-.71.65V884a.73.73 0 0 0 .67.75z"/></g><g opacity=".4" fill="#9b9591"><path d="M478 883.22c0 .43-.06 3.55-3.1 3.55s-3.1-3.12-3.1-3.55v-1.85a4.32 4.32 0 0 1 1.21-3.12 4.19 4.19 0 0 1-1.08-2.91V874c0-.41.07-3.41 3-3.41s3 3 3 3.41v1.33a4.14 4.14 0 0 1-1.08 2.91 4.32 4.32 0 0 1 1.21 3.12zm-3.1-3.72c-.8 0-.84.9-.84 2.79 0 1.7.17 2.35.84 2.35s.84-.88.84-2.35c.02-1.89-.02-2.79-.82-2.79zm0-6.85c-.52 0-.67.54-.69 2.17s.09 2.39.69 2.39.69-.73.69-2.39c.02-1.44-.07-2.17-.67-2.17zM483.25 886.77c-3.12 0-3.1-3.42-3.1-3.42V874s0-3.43 3.1-3.43 3.1 3.43 3.1 3.43v9.32s.02 3.45-3.1 3.45zm0-13.91c-.82 0-.78 1.17-.78 1.17v9.32s0 1.16.78 1.16.77-1.16.77-1.16V874s.05-1.14-.77-1.14z"/></g><g opacity=".4" fill="#9b9591"><path d="M505.66 883.22c0 .43-.07 3.55-3.1 3.55s-3.1-3.12-3.1-3.55v-1.85a4.36 4.36 0 0 1 1.2-3.12 4.18 4.18 0 0 1-1.07-2.91V874c0-.41.06-3.41 3-3.41s3 3 3 3.41v1.33a4.19 4.19 0 0 1-1.08 2.91 4.32 4.32 0 0 1 1.21 3.12zm-3.1-3.72c-.8 0-.84.9-.84 2.79 0 1.7.17 2.35.84 2.35s.84-.88.84-2.35c0-1.89-.05-2.79-.84-2.79zm0-6.85c-.52 0-.67.54-.69 2.17s.08 2.39.69 2.39.69-.73.69-2.39c0-1.44-.09-2.17-.69-2.17zM507.33 874.2v-1.49a3.27 3.27 0 0 0 2.48-1.93h1.4v15.82h-2.33v-12.4z"/></g><g opacity=".4" fill="#9b9591"><path d="M198.5 846.41H195v-2.3h5.85v2.33l-2.32 13.49h-2.41zM205.55 846.41h-3.48v-2.3h5.85v2.33l-2.32 13.49h-2.41z"/></g><g opacity=".4" fill="#9b9591"><path d="M281.4 846.41h-3.49v-2.3h5.85v2.33l-2.32 13.49H279zM285.53 849.12V848c0-2.13.56-4.09 3.1-4.09 2.37 0 3.1 1.76 3.1 3.94 0 3.22-2.45 7.72-3.64 9.75h3.68v2.3h-6.31v-2.3s3.84-5.73 3.94-9.6c0-.86-.08-1.94-.77-1.94s-.78.93-.78 1.94v1.09z"/></g><g opacity=".4" fill="none"><path d="M422.75 856.55c0 .43-.06 3.55-3.1 3.55s-3.1-3.12-3.1-3.55v-1.85a4.34 4.34 0 0 1 1.21-3.12 4.19 4.19 0 0 1-1.08-2.91v-1.33c0-.41.07-3.4 3-3.4s3 3 3 3.4v1.33a4.18 4.18 0 0 1-1.07 2.91 4.38 4.38 0 0 1 1.2 3.12zm-3.1-3.72c-.79 0-.84.9-.84 2.8 0 1.7.17 2.34.84 2.34s.84-.88.84-2.34c0-1.9-.04-2.8-.84-2.8zm0-6.85c-.51 0-.67.54-.69 2.18s.09 2.39.69 2.39.69-.74.69-2.39c0-1.44-.09-2.16-.69-2.16zM430.93 856.68c0 .76-.19 3.42-3 3.42s-3-2.66-3-3.42v-9c0-1.12.13-3.74 3-3.74s3 2.62 3 3.74v1h-2.33c0-2.13 0-2.71-.71-2.71s-.71.52-.71 1.72v2.82a2.3 2.3 0 0 1 1.16-.39c2.4 0 2.59 2.46 2.59 3.34zm-3 1.4a.77.77 0 0 0 .71-.71v-4.74a.77.77 0 0 0-.71-.71.72.72 0 0 0-.71.65v4.8a.73.73 0 0 0 .67.71z"/></g><g opacity=".4" fill="#9b9591"><path d="M505.66 856.55c0 .43-.07 3.55-3.1 3.55s-3.1-3.12-3.1-3.55v-1.85a4.38 4.38 0 0 1 1.2-3.12 4.18 4.18 0 0 1-1.07-2.91v-1.33c0-.41.06-3.4 3-3.4s3 3 3 3.4v1.33a4.19 4.19 0 0 1-1.08 2.91 4.34 4.34 0 0 1 1.21 3.12zm-3.1-3.72c-.8 0-.84.9-.84 2.8 0 1.7.17 2.34.84 2.34s.84-.88.84-2.34c0-1.9-.05-2.8-.84-2.8zm0-6.85c-.52 0-.67.54-.69 2.18s.08 2.39.69 2.39.69-.74.69-2.39c0-1.44-.09-2.16-.69-2.16zM510.88 858.08c.5 0 .71-.52.71-2.11v-3.53c0-.65-.23-1.16-.73-1.16s-.9.79-.9 1.16h-2v-8.33h5.62v2.3H510v3.3a2.39 2.39 0 0 1 1.34-.54c2.39 0 2.58 2.75 2.58 3.27V856c0 1.47-.19 4.13-3 4.13s-3-2.66-3-4.78h2.33v.65c-.07 1.56.1 2.08.63 2.08z"/></g><g opacity=".4" fill="#9b9591"><path d="M588.56 856.55c0 .43-.07 3.55-3.1 3.55s-3.1-3.12-3.1-3.55v-1.85a4.38 4.38 0 0 1 1.2-3.12 4.23 4.23 0 0 1-1.07-2.91v-1.33c0-.41.06-3.4 3-3.4s3 3 3 3.4v1.33a4.19 4.19 0 0 1-1.08 2.91 4.34 4.34 0 0 1 1.21 3.12zm-3.1-3.72c-.8 0-.84.9-.84 2.8 0 1.7.17 2.34.84 2.34s.84-.88.84-2.34c0-1.9-.05-2.8-.84-2.8zm0-6.85c-.52 0-.67.54-.69 2.18s.09 2.39.69 2.39.69-.74.69-2.39c0-1.44-.09-2.16-.69-2.16zM593.83 856.49h-3.59v-2l3.39-10.33H596v10.33h1v2h-1v3.44h-2.13zm-1.61-2h1.61V849h-.13l-.13.47z"/></g><g opacity=".4" fill="#9b9591"><path d="M422.75 829.88c0 .43-.06 3.55-3.1 3.55s-3.1-3.12-3.1-3.55V828a4.36 4.36 0 0 1 1.21-3.13 4.16 4.16 0 0 1-1.08-2.9v-1.34c0-.41.07-3.4 3-3.4s3 3 3 3.4V822a4.16 4.16 0 0 1-1.07 2.9 4.4 4.4 0 0 1 1.2 3.13zm-3.1-3.73c-.79 0-.84.91-.84 2.8 0 1.7.17 2.35.84 2.35s.84-.89.84-2.35c0-1.89-.04-2.8-.84-2.8zm0-6.84c-.51 0-.67.54-.69 2.17s.09 2.39.69 2.39.69-.73.69-2.39c0-1.48-.09-2.17-.69-2.17zM430.93 830c0 .75-.19 3.42-3 3.42s-3-2.67-3-3.42v-9c0-1.12.13-3.75 3-3.75s3 2.63 3 3.75v1h-2.33c0-2.13 0-2.71-.71-2.71s-.71.51-.71 1.72v2.82a2.2 2.2 0 0 1 1.16-.39c2.4 0 2.59 2.45 2.59 3.34zm-3 1.39a.76.76 0 0 0 .71-.71V826a.76.76 0 0 0-.71-.71.72.72 0 0 0-.71.64v4.8a.73.73 0 0 0 .67.67z"/></g><g opacity=".4" fill="#9b9591"><path d="M253.76 793.07h-3.48v-2.31h5.85v2.33l-2.32 13.5h-2.41zM261.06 804.73c.5 0 .71-.51.71-2.1v-3.53c0-.65-.24-1.17-.73-1.17s-.91.8-.91 1.17h-2v-8.34h5.63v2.31h-3.62v3.29a2.46 2.46 0 0 1 1.33-.54c2.39 0 2.59 2.76 2.59 3.28v3.53c0 1.46-.2 4.13-3 4.13s-3-2.67-3-4.78h2.32v.62c-.03 1.62.14 2.13.68 2.13z"/></g><g opacity=".4" fill="#9b9591"><path d="M281.4 793.07h-3.49v-2.31h5.85v2.33l-2.32 13.5H279zM288.69 806.76c-3.12 0-3.1-3.42-3.1-3.42V794s0-3.42 3.1-3.42 3.1 3.42 3.1 3.42v9.33s.02 3.43-3.1 3.43zm0-13.91c-.82 0-.77 1.16-.77 1.16v9.33s-.05 1.16.77 1.16.78-1.16.78-1.16V794s.04-1.15-.78-1.15z"/></g><g opacity=".4" fill="#9b9591"><path d="M309 793.07h-3.48v-2.31h5.85v2.33l-2.32 13.5h-2.41zM314.93 799.44v-1.94c1.94-.1 1.76-.82 1.76-2.82 0-.9 0-2-.73-2-.58 0-.66.56-.69 2.69H313c0-1.79.07-4.74 3-4.74s3 3 3 3.4c0 2.35-.41 3.47-1.12 4.18 1.11.88 1.33 2.52 1.33 4.35 0 .41-.11 4.22-3 4.22s-3.08-3-3.08-4.74h2.28c0 2.13.22 2.69.8 2.69s.73-1.09.73-2c0-2 .26-3.16-1.77-3.27z"/></g><g opacity=".4" fill="none"><path d="M336.66 793.07h-3.48v-2.31H339v2.33l-2.32 13.5h-2.38zM342.56 799.44v-1.94c1.94-.1 1.76-.82 1.76-2.82 0-.9 0-2-.73-2-.58 0-.66.56-.69 2.69h-2.28c0-1.79.07-4.74 3-4.74s3 3 3 3.4c0 2.35-.41 3.47-1.12 4.18 1.11.88 1.33 2.52 1.33 4.35 0 .41-.11 4.22-3 4.22s-3.08-3-3.08-4.74H343c0 2.13.22 2.69.8 2.69s.73-1.09.73-2c0-2 .26-3.16-1.77-3.27z"/></g><g opacity=".4" fill="#9b9591"><path d="M610 794c0-.75.19-3.42 3-3.42s3 2.67 3 3.42v9c0 1.12-.13 3.75-3 3.75s-3-2.63-3-3.75v-1h2.32c0 2.13 0 2.71.71 2.71s.71-.51.71-1.72v-3a2.15 2.15 0 0 1-1.16.39c-2.39 0-2.58-2.45-2.58-3.34zm3.74-.68a.73.73 0 0 0-.71-.71.77.77 0 0 0-.71.71v4.58a.77.77 0 0 0 .71.71.71.71 0 0 0 .71-.64zM621.51 803.14h-3.59v-2l3.4-10.34h2.32v10.3h1.08v2h-1.08v3.45h-2.13zm-1.61-2h1.61v-5.43h-.13l-.13.48z"/></g><g opacity=".4" fill="#9b9591"><path d="M198.5 766.4H195v-2.31h5.85v2.33l-2.32 13.49h-2.41zM208.74 776.66c0 .76-.19 3.43-3 3.43s-3-2.67-3-3.43v-9c0-1.13.13-3.75 3-3.75s3 2.62 3 3.75v1h-2.32c0-2.14 0-2.72-.71-2.72s-.71.52-.71 1.73v2.81a2.22 2.22 0 0 1 1.16-.38c2.39 0 2.58 2.45 2.58 3.33zm-3 1.4a.77.77 0 0 0 .71-.71v-4.73a.77.77 0 0 0-.71-.71.71.71 0 0 0-.71.64v4.8a.73.73 0 0 0 .68.71z"/></g><g opacity=".4" fill="#9b9591"><path d="M281.4 766.4h-3.49v-2.31h5.85v2.33l-2.32 13.49H279zM285.25 767.51V766a3.29 3.29 0 0 0 2.47-1.94h1.4v15.82h-2.33v-12.4z"/></g><g opacity=".4" fill="none"><path d="M309 766.4h-3.48v-2.31h5.85v2.33l-2.32 13.49h-2.41zM312.88 767.51V766a3.29 3.29 0 0 0 2.48-1.94h1.4v15.82h-2.33v-12.4z"/></g><g opacity=".4" fill="#9b9591"><path d="M336.66 766.4h-3.48v-2.31H339v2.33l-2.32 13.49h-2.38zM342.56 772.77v-1.94c1.94-.11 1.76-.82 1.76-2.82 0-.9 0-2-.73-2-.58 0-.66.56-.69 2.7h-2.28c0-1.79.07-4.74 3-4.74s3 3 3 3.4c0 2.35-.41 3.47-1.12 4.17 1.11.88 1.33 2.52 1.33 4.35 0 .4-.11 4.22-3 4.22s-3.08-3-3.08-4.74H343c0 2.13.22 2.69.8 2.69s.73-1.1.73-2c0-2 .26-3.17-1.77-3.27z"/></g><g opacity=".4" fill="#9b9591"><path d="M554.77 767.34c0-.75.19-3.42 3-3.42s3 2.67 3 3.42v9c0 1.12-.13 3.75-3 3.75s-3-2.63-3-3.75v-1h2.32c0 2.13 0 2.71.71 2.71s.71-.51.71-1.72v-3a2.18 2.18 0 0 1-1.16.39c-2.39 0-2.58-2.46-2.58-3.34zm3.74-.69a.73.73 0 0 0-.71-.71.78.78 0 0 0-.71.71v4.59a.78.78 0 0 0 .71.71.71.71 0 0 0 .71-.65zM564.8 772.77v-1.94c1.93-.11 1.76-.82 1.76-2.82 0-.9 0-2-.73-2s-.67.56-.69 2.7h-2.28c0-1.79.06-4.74 3-4.74s3 3 3 3.4c0 2.35-.41 3.47-1.12 4.17 1.12.88 1.34 2.52 1.34 4.35 0 .4-.11 4.22-3 4.22s-3.07-3-3.07-4.74h2.28c0 2.13.21 2.69.79 2.69.73 0 .73-1.1.73-2 0-2 .26-3.17-1.76-3.27z"/></g><g opacity=".4" fill="#9b9591"><path d="M281.4 739.73h-3.49v-2.31h5.85v2.33l-2.32 13.49H279zM288.47 749.8h-3.59v-2l3.4-10.33h2.33v10.33h1.07v2h-1.07v3.44h-2.14zm-1.61-2h1.61v-5.42h-.13l-.12.47z"/></g><g opacity=".4" fill="#9b9591"><path d="M336.66 739.73h-3.48v-2.31H339v2.33l-2.32 13.49h-2.38zM343.74 749.8h-3.59v-2l3.4-10.33h2.32v10.33H347v2h-1.08v3.44h-2.13zm-1.61-2h1.61v-5.42h-.13l-.13.47z"/></g><g opacity=".4" fill="#9b9591"><path d="M416.6 740.67c0-.75.19-3.42 3-3.42s3 2.67 3 3.42v9c0 1.12-.13 3.75-3 3.75s-3-2.63-3-3.75v-1h2.32c0 2.13 0 2.71.71 2.71s.71-.51.71-1.72v-3a2.18 2.18 0 0 1-1.16.39c-2.39 0-2.58-2.46-2.58-3.34zm3.74-.69a.73.73 0 0 0-.71-.71.78.78 0 0 0-.71.71v4.59a.78.78 0 0 0 .71.71.71.71 0 0 0 .71-.65zM424.47 740.84v-1.48a3.29 3.29 0 0 0 2.48-1.94h1.4v15.82H426v-12.4z"/></g><g opacity=".4" fill="#9b9591"><path d="M118.78 723.32c0 .76-.19 3.43-3 3.43s-3-2.67-3-3.43v-9c0-1.12.13-3.75 3-3.75s3 2.63 3 3.75v1h-2.32c0-2.14 0-2.72-.71-2.72s-.71.52-.71 1.73v2.81a2.22 2.22 0 0 1 1.16-.38c2.39 0 2.58 2.45 2.58 3.33zm-3 1.4a.77.77 0 0 0 .71-.71v-4.73a.77.77 0 0 0-.71-.71.71.71 0 0 0-.71.64V724a.73.73 0 0 0 .68.72zM127 723.32c0 .76-.19 3.43-3 3.43s-3-2.67-3-3.43v-9c0-1.12.13-3.75 3-3.75s3 2.63 3 3.75v1h-2.32c0-2.14-.05-2.72-.71-2.72s-.71.52-.71 1.73v2.81a2.22 2.22 0 0 1 1.16-.38c2.39 0 2.58 2.45 2.58 3.33zm-3 1.4a.77.77 0 0 0 .71-.71v-4.73a.77.77 0 0 0-.71-.71.71.71 0 0 0-.71.64V724a.73.73 0 0 0 .71.72z"/></g><g opacity=".4" fill="#9b9591"><path d="M201.68 723.32c0 .76-.19 3.43-3 3.43s-3-2.67-3-3.43v-9c0-1.12.13-3.75 3-3.75s3 2.63 3 3.75v1h-2.32c0-2.14 0-2.72-.71-2.72s-.71.52-.71 1.73v2.81a2.25 2.25 0 0 1 1.16-.38c2.39 0 2.58 2.45 2.58 3.33zm-3 1.4a.77.77 0 0 0 .71-.71v-4.73a.77.77 0 0 0-.71-.71.71.71 0 0 0-.71.64V724a.73.73 0 0 0 .68.72zM206.72 713.06h-3.49v-2.31h5.85v2.33l-2.32 13.49h-2.41z"/></g><g opacity=".4" fill="#9b9591"><path d="M257 723.32c0 .76-.19 3.43-3 3.43s-3-2.67-3-3.43v-9c0-1.12.13-3.75 3-3.75s3 2.63 3 3.75v1h-2.32c0-2.14 0-2.72-.71-2.72s-.71.52-.71 1.73v2.81a2.22 2.22 0 0 1 1.16-.38c2.39 0 2.58 2.45 2.58 3.33zm-3 1.4a.77.77 0 0 0 .71-.71v-4.73a.77.77 0 0 0-.71-.71.71.71 0 0 0-.71.64V724a.73.73 0 0 0 .63.72zM259 714c0-.75.19-3.42 3-3.42s3 2.67 3 3.42v9c0 1.12-.13 3.75-3 3.75s-3-2.63-3-3.75v-1h2.32c0 2.13 0 2.71.71 2.71s.71-.51.71-1.72v-3a2.18 2.18 0 0 1-1.16.39c-2.39 0-2.58-2.46-2.58-3.34zm3.74-.69a.73.73 0 0 0-.71-.71.78.78 0 0 0-.71.71v4.59a.78.78 0 0 0 .71.71.71.71 0 0 0 .71-.65z"/></g><g opacity=".4" fill="#9b9591"><path d="M471.86 714c0-.75.2-3.42 3-3.42s3 2.67 3 3.42v9c0 1.12-.14 3.75-3 3.75s-3-2.63-3-3.75v-1h2.33c0 2.13 0 2.71.71 2.71s.71-.51.71-1.72v-3a2.18 2.18 0 0 1-1.16.39c-2.39 0-2.59-2.46-2.59-3.34zm3.75-.69a.73.73 0 0 0-.71-.71.77.77 0 0 0-.71.71v4.59a.77.77 0 0 0 .71.71.72.72 0 0 0 .71-.65zM483.29 726.75c-3.12 0-3.1-3.43-3.1-3.43V714s0-3.42 3.1-3.42 3.1 3.42 3.1 3.42v9.32s.02 3.43-3.1 3.43zm0-13.91c-.82 0-.77 1.16-.77 1.16v9.32s0 1.17.77 1.17.78-1.17.78-1.17V714s.04-1.16-.78-1.16z"/></g><g opacity=".4" fill="#9b9591"><path d="M527.14 714c0-.75.19-3.42 3-3.42s3 2.67 3 3.42v9c0 1.12-.13 3.75-3 3.75s-3-2.63-3-3.75v-1h2.32c0 2.13 0 2.71.71 2.71s.71-.51.71-1.72v-3a2.18 2.18 0 0 1-1.16.39c-2.39 0-2.58-2.46-2.58-3.34zm3.74-.69a.73.73 0 0 0-.71-.71.78.78 0 0 0-.71.71v4.59a.78.78 0 0 0 .71.71.71.71 0 0 0 .71-.65zM535.4 715.77v-1.1c0-2.13.56-4.09 3.1-4.09 2.37 0 3.1 1.76 3.1 3.94 0 3.23-2.45 7.73-3.64 9.75h3.68v2.3h-6.3v-2.3s3.83-5.73 3.94-9.6c0-.86-.09-1.94-.78-1.94s-.78.93-.78 1.94v1.1z"/></g><g opacity=".4" fill="#9b9591"><path d="M229.32 696.65c0 .75-.2 3.42-3 3.42s-3-2.67-3-3.42v-9c0-1.12.13-3.75 3-3.75s3 2.63 3 3.75v1H227c0-2.13 0-2.71-.71-2.71s-.71.51-.71 1.72v2.82a2.18 2.18 0 0 1 1.16-.39c2.39 0 2.59 2.45 2.59 3.34zm-3 1.4a.77.77 0 0 0 .71-.71v-4.74a.77.77 0 0 0-.71-.71.72.72 0 0 0-.71.64v4.81a.73.73 0 0 0 .67.71zM237.54 696.52c0 .43-.07 3.55-3.1 3.55s-3.1-3.12-3.1-3.55v-1.85a4.36 4.36 0 0 1 1.2-3.12 4.18 4.18 0 0 1-1.07-2.91v-1.34c0-.4.06-3.4 3-3.4s3 3 3 3.4v1.34a4.19 4.19 0 0 1-1.08 2.91 4.32 4.32 0 0 1 1.21 3.12zm-3.1-3.73c-.8 0-.84.91-.84 2.8 0 1.7.17 2.35.84 2.35s.84-.88.84-2.35c0-1.89-.05-2.8-.84-2.8zm0-6.84c-.52 0-.67.54-.69 2.17s.08 2.39.69 2.39.68-.73.68-2.39c0-1.44-.12-2.12-.68-2.12z"/></g><g opacity=".4" fill="#9b9591"><path d="M143.46 671.38c.5 0 .71-.52.71-2.11v-3.53c0-.65-.23-1.16-.73-1.16s-.9.79-.9 1.16h-2v-8.33h5.62v2.3h-3.62V663a2.39 2.39 0 0 1 1.34-.54c2.39 0 2.58 2.75 2.58 3.27v3.53c0 1.46-.19 4.13-3 4.13s-3-2.67-3-4.78h2.33v.63c-.03 1.62.14 2.14.67 2.14zM151.73 671.38c.49 0 .71-.52.71-2.11v-3.53c0-.65-.24-1.16-.73-1.16s-.91.79-.91 1.16h-2v-8.33h5.62v2.3h-3.61V663a2.39 2.39 0 0 1 1.33-.54c2.39 0 2.58 2.75 2.58 3.27v3.53c0 1.46-.19 4.13-3 4.13s-3-2.67-3-4.78H151v.63c0 1.62.19 2.14.73 2.14z"/></g><g opacity=".4" fill="#9b9591"><path d="M257 670c0 .75-.19 3.42-3 3.42s-3-2.67-3-3.42v-9c0-1.12.13-3.74 3-3.74s3 2.62 3 3.74v1h-2.32c0-2.13 0-2.71-.71-2.71s-.71.52-.71 1.72v2.82a2.23 2.23 0 0 1 1.16-.39c2.39 0 2.58 2.46 2.58 3.34zm-3 1.4a.78.78 0 0 0 .71-.71v-4.74a.78.78 0 0 0-.71-.71.71.71 0 0 0-.71.65v4.8a.73.73 0 0 0 .63.69zM262.27 669.79h-3.6v-2l3.4-10.33h2.33v10.33h1.07v2h-1.07v3.44h-2.13zm-1.62-2h1.62v-5.42h-.13l-.13.47z"/></g><g opacity=".4" fill="#9b9591"><path d="M361.33 660.66c0-.75.19-3.42 3-3.42s3 2.67 3 3.42v9c0 1.12-.13 3.74-3 3.74s-3-2.62-3-3.74v-1h2.33c0 2.13 0 2.71.7 2.71s.71-.52.71-1.72v-3a2.22 2.22 0 0 1-1.16.38c-2.39 0-2.58-2.45-2.58-3.33zm3.74-.69a.73.73 0 0 0-.71-.71.76.76 0 0 0-.7.71v4.59a.76.76 0 0 0 .7.71.71.71 0 0 0 .71-.65zM372.52 659.71H369v-2.3h5.86v2.32l-2.33 13.5h-2.41z"/></g><g opacity=".4" fill="#9b9591"><path d="M60.56 644.71c.5 0 .71-.52.71-2.11v-3.53c0-.65-.23-1.16-.73-1.16s-.9.79-.9 1.16h-2v-8.33h5.61V633h-3.57v3.3a2.39 2.39 0 0 1 1.32-.5c2.39 0 2.59 2.75 2.59 3.27v3.53c0 1.46-.2 4.13-3 4.13s-3-2.67-3-4.78h2.32v.63c-.06 1.61.09 2.13.65 2.13zM68.87 643.12h-3.6v-2l3.4-10.33H71v10.33h1.08v2H71v3.44h-2.13zm-1.62-2h1.62v-5.42h-.13l-.13.47z"/></g><g opacity=".4" fill="#9b9591"><path d="M201.68 643.31c0 .75-.19 3.42-3 3.42s-3-2.67-3-3.42v-9c0-1.12.13-3.74 3-3.74s3 2.62 3 3.74v1h-2.32c0-2.13 0-2.71-.71-2.71s-.71.52-.71 1.72v2.82a2.26 2.26 0 0 1 1.16-.39c2.39 0 2.58 2.46 2.58 3.34zm-3 1.4a.78.78 0 0 0 .71-.71v-4.74a.78.78 0 0 0-.71-.71.71.71 0 0 0-.71.65v4.8a.73.73 0 0 0 .68.71zM207 644.71c.5 0 .71-.52.71-2.11v-3.53c0-.65-.23-1.16-.73-1.16s-.9.79-.9 1.16h-2v-8.33h5.62V633h-3.62v3.3a2.39 2.39 0 0 1 1.34-.54c2.39 0 2.58 2.75 2.58 3.27v3.53c0 1.46-.19 4.13-3 4.13s-3-2.67-3-4.78h2.33v.63c-.08 1.65.09 2.17.67 2.17z"/></g><g opacity=".4" fill="#9b9591"><path d="M284.58 643.31c0 .75-.19 3.42-3 3.42s-3-2.67-3-3.42v-9c0-1.12.13-3.74 3-3.74s3 2.62 3 3.74v1h-2.32c0-2.13 0-2.71-.71-2.71s-.71.52-.71 1.72v2.82a2.26 2.26 0 0 1 1.16-.39c2.39 0 2.58 2.46 2.58 3.34zm-3 1.4a.78.78 0 0 0 .71-.71v-4.74a.78.78 0 0 0-.71-.71.71.71 0 0 0-.71.65v4.8a.73.73 0 0 0 .68.71zM288.46 639.41v-1.93c1.93-.11 1.76-.82 1.76-2.82 0-.91 0-2-.73-2-.58 0-.67.56-.69 2.69h-2.28c0-1.79.06-4.73 3-4.73s3 3 3 3.4c0 2.34-.41 3.46-1.12 4.17 1.12.88 1.34 2.51 1.34 4.34 0 .41-.11 4.22-3 4.22s-3.07-3-3.07-4.73h2.28c0 2.13.21 2.69.79 2.69.73 0 .73-1.1.73-2 0-2 .26-3.17-1.76-3.28z"/></g><g opacity=".4" fill="#9b9591"><path d="M444.23 634c0-.75.19-3.42 3-3.42s3 2.67 3 3.42v9c0 1.12-.13 3.74-3 3.74s-3-2.62-3-3.74v-1h2.33c0 2.13 0 2.71.71 2.71s.71-.52.71-1.72v-3a2.28 2.28 0 0 1-1.17.38c-2.39 0-2.58-2.45-2.58-3.33zm3.75-.69a.74.74 0 0 0-.71-.71.77.77 0 0 0-.71.71v4.59a.77.77 0 0 0 .71.71.72.72 0 0 0 .73-.61zM458.61 643.31c0 .75-.19 3.42-3 3.42s-3-2.67-3-3.42v-9c0-1.12.13-3.74 3-3.74s3 2.62 3 3.74v1h-2.33c0-2.13 0-2.71-.71-2.71s-.71.52-.71 1.72v2.82a2.3 2.3 0 0 1 1.16-.39c2.4 0 2.59 2.46 2.59 3.34zm-3 1.4a.77.77 0 0 0 .71-.71v-4.74a.77.77 0 0 0-.71-.71.73.73 0 0 0-.71.65v4.8a.73.73 0 0 0 .67.71z"/></g><g opacity=".4" fill="#9b9591"><path d="M499.5 634c0-.75.19-3.42 3-3.42s3 2.67 3 3.42v9c0 1.12-.13 3.74-3 3.74s-3-2.62-3-3.74v-1h2.33c0 2.13 0 2.71.71 2.71s.71-.52.71-1.72v-3a2.28 2.28 0 0 1-1.17.38c-2.39 0-2.58-2.45-2.58-3.33zm3.75-.69a.74.74 0 0 0-.71-.71.77.77 0 0 0-.71.71v4.59a.77.77 0 0 0 .71.71.73.73 0 0 0 .71-.65zM510.93 644.71c.49 0 .71-.52.71-2.11v-3.53c0-.65-.24-1.16-.73-1.16s-.91.79-.91 1.16h-2v-8.33h5.62V633h-3.61v3.3a2.39 2.39 0 0 1 1.33-.54c2.39 0 2.59 2.75 2.59 3.27v3.53c0 1.46-.2 4.13-3 4.13s-3-2.67-3-4.78h2.33v.63c-.04 1.65.13 2.17.67 2.17z"/></g><g opacity=".4" fill="#9b9591"><path d="M143.46 618c.5 0 .71-.52.71-2.11v-3.49c0-.65-.23-1.16-.73-1.16s-.9.79-.9 1.16h-2v-8.33h5.62v2.3h-3.62v3.3a2.39 2.39 0 0 1 1.34-.54c2.39 0 2.58 2.75 2.58 3.27v3.53c0 1.46-.19 4.13-3 4.13s-3-2.67-3-4.78h2.33v.63c-.03 1.61.14 2.09.67 2.09zM154.68 616.64c0 .75-.2 3.42-3 3.42s-3-2.67-3-3.42v-9c0-1.12.12-3.74 3-3.74s3 2.62 3 3.74v1h-2.33c0-2.13 0-2.71-.71-2.71s-.71.52-.71 1.72v2.82a2.26 2.26 0 0 1 1.16-.39c2.39 0 2.59 2.46 2.59 3.34zm-3 1.4a.77.77 0 0 0 .71-.71v-4.74a.77.77 0 0 0-.71-.71.72.72 0 0 0-.71.65v4.8a.73.73 0 0 0 .67.67z"/></g><g opacity=".4" fill="#9b9591"><path d="M257 616.64c0 .75-.19 3.42-3 3.42s-3-2.67-3-3.42v-9c0-1.12.13-3.74 3-3.74s3 2.62 3 3.74v1h-2.32c0-2.13 0-2.71-.71-2.71s-.71.52-.71 1.72v2.82a2.23 2.23 0 0 1 1.16-.39c2.39 0 2.58 2.46 2.58 3.34zm-3 1.4a.78.78 0 0 0 .71-.71v-4.74a.78.78 0 0 0-.71-.71.71.71 0 0 0-.71.65v4.8a.73.73 0 0 0 .63.67zM258.67 607.49V606a3.29 3.29 0 0 0 2.48-1.94h1.4v15.82h-2.33v-12.4z"/></g><g opacity=".4" fill="#9b9591"><path d="M416.6 580.65c0-.76.19-3.43 3-3.43s3 2.67 3 3.43v9c0 1.12-.13 3.75-3 3.75s-3-2.63-3-3.75v-1h2.32c0 2.13 0 2.71.71 2.71s.71-.51.71-1.72v-3a2.18 2.18 0 0 1-1.16.39c-2.39 0-2.58-2.45-2.58-3.34zm3.74-.69a.73.73 0 0 0-.71-.71.77.77 0 0 0-.71.71v4.58a.77.77 0 0 0 .71.71.71.71 0 0 0 .71-.64zM431 589.84c0 .43-.06 3.55-3.1 3.55s-3.1-3.12-3.1-3.55V588a4.36 4.36 0 0 1 1.21-3.13 4.18 4.18 0 0 1-1.08-2.9v-1.34c0-.4.07-3.4 3-3.4s3 3 3 3.4V582a4.17 4.17 0 0 1-1.07 2.9A4.36 4.36 0 0 1 431 588zm-3.1-3.73c-.79 0-.84.91-.84 2.8 0 1.7.17 2.35.84 2.35s.84-.89.84-2.35c-.03-1.91-.07-2.8-.87-2.8zm0-6.84c-.51 0-.67.54-.69 2.17s.09 2.39.69 2.39.69-.73.69-2.39c-.03-1.44-.12-2.17-.72-2.17z"/></g><g opacity=".4" fill="#9b9591"><path d="M88.2 564.69c.49 0 .71-.51.71-2.11v-3.53c0-.64-.24-1.16-.73-1.16s-.91.8-.91 1.16h-2v-8.33h5.62V553h-3.58v3.29a2.47 2.47 0 0 1 1.34-.54c2.39 0 2.58 2.76 2.58 3.27v3.53c0 1.47-.19 4.14-3 4.14s-3-2.67-3-4.78h2.32v.62c-.07 1.65.11 2.16.65 2.16zM95.06 559.4v-1.94c1.94-.11 1.76-.82 1.76-2.82 0-.9 0-2-.73-2s-.67.55-.69 2.69h-2.28c0-1.79.06-4.74 3-4.74s3 3 3 3.4c0 2.35-.41 3.47-1.12 4.18 1.12.88 1.34 2.52 1.34 4.35 0 .41-.11 4.22-3 4.22s-3.08-3-3.08-4.74h2.28c0 2.13.21 2.69.8 2.69s.73-1.1.73-2c0-2 .26-3.17-1.77-3.27z"/></g><g opacity=".4" fill="#9b9591"><path d="M252.6 559.4v-1.94c1.94-.11 1.77-.82 1.77-2.82 0-.9 0-2-.73-2s-.67.55-.69 2.69h-2.28c0-1.79.06-4.74 3-4.74s3 3 3 3.4c0 2.35-.41 3.47-1.12 4.18 1.12.88 1.33 2.52 1.33 4.35 0 .41-.11 4.22-3 4.22s-3.08-3-3.08-4.74h2.2c0 2.13.22 2.69.8 2.69s.73-1.1.73-2c0-2 .26-3.17-1.76-3.27zM262.07 564.69c.5 0 .71-.51.71-2.11v-3.53c0-.64-.23-1.16-.73-1.16s-.91.8-.91 1.16h-1.95v-8.33h5.61V553h-3.61v3.29a2.46 2.46 0 0 1 1.33-.54c2.39 0 2.59 2.76 2.59 3.27v3.53c0 1.47-.2 4.14-3 4.14s-3-2.67-3-4.78h2.32v.62c-.07 1.65.1 2.16.64 2.16z"/></g><g opacity=".4" fill="#9b9591"><path d="M335.5 559.4v-1.94c1.94-.11 1.77-.82 1.77-2.82 0-.9 0-2-.74-2-.58 0-.66.55-.68 2.69h-2.28c0-1.79.06-4.74 3-4.74s3 3 3 3.4c0 2.35-.41 3.47-1.12 4.18 1.12.88 1.33 2.52 1.33 4.35 0 .41-.1 4.22-3 4.22s-3.08-3-3.08-4.74h2.28c0 2.13.22 2.69.8 2.69s.73-1.1.73-2c0-2 .26-3.17-1.77-3.27zM347.92 563.29c0 .76-.19 3.43-3 3.43s-3-2.67-3-3.43v-9c0-1.12.13-3.75 3-3.75s3 2.63 3 3.75v1h-2.33c0-2.14 0-2.72-.71-2.72s-.71.52-.71 1.73v2.81a2.28 2.28 0 0 1 1.16-.38c2.4 0 2.59 2.45 2.59 3.33zm-3 1.4a.76.76 0 0 0 .71-.71v-4.73a.76.76 0 0 0-.71-.71.73.73 0 0 0-.71.64V564a.73.73 0 0 0 .67.69z"/></g><g opacity=".4" fill="#9b9591"><path d="M502.71 566.72c-3.12 0-3.1-3.43-3.1-3.43V554s0-3.42 3.1-3.42 3.1 3.42 3.1 3.42v9.32s.02 3.4-3.1 3.4zm0-13.91c-.82 0-.78 1.16-.78 1.16v9.32s0 1.17.78 1.17.77-1.17.77-1.17V554s.05-1.19-.77-1.19zM511 553h-3.49v-2.31h5.86v2.33L511 566.54h-2.41z"/></g><g opacity=".4" fill="#9b9591"><path d="M558 566.72c-3.12 0-3.1-3.43-3.1-3.43V554s0-3.42 3.1-3.42 3.1 3.42 3.1 3.42v9.32s-.01 3.4-3.1 3.4zm0-13.91c-.82 0-.77 1.16-.77 1.16v9.32s-.05 1.17.77 1.17.78-1.17.78-1.17V554s.01-1.19-.78-1.19zM569.4 563.16c0 .43-.06 3.56-3.1 3.56s-3.1-3.13-3.1-3.56v-1.85a4.36 4.36 0 0 1 1.21-3.12 4.18 4.18 0 0 1-1.08-2.9V554c0-.41.07-3.4 3-3.4s3 3 3 3.4v1.34a4.14 4.14 0 0 1-1.08 2.9 4.36 4.36 0 0 1 1.21 3.12zm-3.1-3.72c-.8 0-.84.9-.84 2.8 0 1.7.17 2.34.84 2.34s.84-.88.84-2.34c0-1.9-.04-2.8-.84-2.8zm0-6.84c-.52 0-.67.53-.69 2.17s.09 2.39.69 2.39.69-.73.69-2.39c.01-1.44-.09-2.17-.69-2.17z"/></g><g opacity=".4" fill="#9b9591"><path d="M60.56 538c.5 0 .71-.51.71-2.1v-3.53c0-.65-.23-1.17-.73-1.17s-.9.8-.9 1.17h-2v-8.34h5.61v2.31h-3.57v3.29a2.46 2.46 0 0 1 1.33-.54c2.39 0 2.59 2.76 2.59 3.28v3.53c0 1.46-.2 4.13-3 4.13s-3-2.67-3-4.78h2.32v.62c-.07 1.64.08 2.13.64 2.13zM65.66 529.07V528c0-2.13.56-4.09 3.1-4.09 2.37 0 3.1 1.77 3.1 3.94 0 3.23-2.45 7.73-3.64 9.75h3.68v2.31h-6.3v-2.31s3.83-5.72 3.94-9.6c0-.86-.09-1.93-.78-1.93S68 527 68 528v1.1z"/></g><g opacity=".4" fill="#9b9591"><path d="M88.2 538c.49 0 .71-.51.71-2.1v-3.53c0-.65-.24-1.17-.73-1.17s-.91.8-.91 1.17h-2v-8.34h5.62v2.31h-3.58v3.29a2.47 2.47 0 0 1 1.34-.54c2.39 0 2.58 2.76 2.58 3.28v3.53c0 1.46-.19 4.13-3 4.13s-3-2.67-3-4.78h2.32v.62c-.07 1.64.11 2.13.65 2.13zM96.46 540.05c-3.12 0-3.1-3.42-3.1-3.42v-9.32s0-3.43 3.1-3.43 3.1 3.43 3.1 3.43v9.32s.02 3.42-3.1 3.42zm0-13.91c-.82 0-.78 1.17-.78 1.17v9.32s0 1.16.78 1.16.77-1.16.77-1.16v-9.32s.05-1.17-.77-1.17z"/></g><g opacity=".4" fill="#9b9591"><path d="M613.25 540.05c-3.13 0-3.1-3.42-3.1-3.42v-9.32s0-3.43 3.1-3.43 3.09 3.43 3.09 3.43v9.32s.03 3.42-3.09 3.42zm0-13.91c-.82 0-.78 1.17-.78 1.17v9.32s0 1.16.78 1.16.77-1.16.77-1.16v-9.32s.04-1.17-.77-1.17zM618.52 527.31c0-.76.19-3.43 3-3.43s3 2.67 3 3.43v9c0 1.12-.13 3.75-3 3.75s-3-2.63-3-3.75v-1h2.32c0 2.14 0 2.71.71 2.71s.71-.51.71-1.72v-3a2.18 2.18 0 0 1-1.16.39c-2.39 0-2.58-2.45-2.58-3.34zm3.74-.69a.73.73 0 0 0-.71-.71.77.77 0 0 0-.71.71v4.58a.77.77 0 0 0 .71.71.71.71 0 0 0 .71-.64z"/></g><g opacity=".4" fill="#9b9591"><path d="M198.73 511.35c.5 0 .71-.51.71-2.11v-3.53c0-.64-.23-1.16-.73-1.16s-.9.8-.9 1.16h-2v-8.33h5.62v2.31h-3.62V503a2.46 2.46 0 0 1 1.33-.54c2.4 0 2.59 2.76 2.59 3.27v3.53c0 1.47-.19 4.14-3 4.14s-3-2.67-3-4.78H198v.62c0 1.6.19 2.11.73 2.11zM206.76 499.69h-3.49v-2.31h5.86v2.33l-2.33 13.49h-2.41z"/></g><g opacity=".4" fill="#9b9591"><path d="M416.6 500.63c0-.75.19-3.42 3-3.42s3 2.67 3 3.42v9c0 1.12-.13 3.75-3 3.75s-3-2.63-3-3.75v-1h2.32c0 2.13 0 2.71.71 2.71s.71-.51.71-1.72v-3a2.18 2.18 0 0 1-1.16.39c-2.39 0-2.58-2.46-2.58-3.34zm3.74-.68a.73.73 0 0 0-.71-.72.78.78 0 0 0-.71.72v4.58a.78.78 0 0 0 .71.71.71.71 0 0 0 .71-.65zM424.82 500.63c0-.75.19-3.42 3-3.42s3 2.67 3 3.42v9c0 1.12-.13 3.75-3 3.75s-3-2.63-3-3.75v-1h2.32c0 2.13 0 2.71.71 2.71s.71-.51.71-1.72v-3a2.18 2.18 0 0 1-1.16.39c-2.39 0-2.58-2.46-2.58-3.34zm3.74-.68a.73.73 0 0 0-.71-.72.78.78 0 0 0-.71.72v4.58a.78.78 0 0 0 .71.71.71.71 0 0 0 .71-.65z"/></g><g opacity=".4" fill="#9b9591"><path d="M60.6 483.09H57v-2l3.4-10.33h2.33V481h1.07v2h-1.06v3.44H60.6zM59 481h1.6v-5.42h-.12l-.13.47zM65.06 474.13v-1.48a3.29 3.29 0 0 0 2.47-1.94h1.4v15.82h-2.32v-12.4z"/></g><g opacity=".4" fill="#9b9591"><path d="M88.24 483.09h-3.6v-2L88 470.71h2.33V481h1.08v2h-1.04v3.44h-2.13zm-1.62-2h1.62v-5.42h-.13l-.13.47zM96.24 486.7c-3.12 0-3.1-3.42-3.1-3.42V474s0-3.42 3.1-3.42 3.1 3.42 3.1 3.42v9.32s.02 3.38-3.1 3.38zm0-13.9c-.82 0-.77 1.16-.77 1.16v9.32s0 1.16.77 1.16.78-1.16.78-1.16V474s.04-1.2-.78-1.2z"/></g><g opacity=".4" fill="#9b9591"><path d="M115.87 483.09h-3.59v-2l3.4-10.33H118V481h1.07v2H118v3.44h-2.14zm-1.61-2h1.61v-5.42h-.12l-.13.47zM120.72 475.72v-1.09c0-2.13.55-4.09 3.09-4.09 2.37 0 3.11 1.76 3.11 3.94 0 3.23-2.46 7.72-3.64 9.75H127v2.3h-6.31v-2.3s3.83-5.73 3.94-9.6c0-.86-.09-1.94-.78-1.94s-.77.93-.77 1.94v1.09z"/></g><g opacity=".4" fill="#9b9591"><path d="M171.1 484.68c.5 0 .71-.52.71-2.11V479c0-.64-.24-1.16-.73-1.16s-.91.79-.91 1.16h-2v-8.33h5.62V473h-3.61v3.3a2.39 2.39 0 0 1 1.33-.54c2.39 0 2.59 2.75 2.59 3.27v3.53c0 1.46-.2 4.13-3 4.13s-3-2.67-3-4.78h2.32v.63c-.03 1.62.14 2.14.68 2.14zM182.31 483.15c0 .43-.06 3.55-3.1 3.55s-3.1-3.12-3.1-3.55v-1.85a4.34 4.34 0 0 1 1.21-3.12 4.19 4.19 0 0 1-1.08-2.91v-1.33c0-.41.07-3.4 3-3.4s3 3 3 3.4v1.33a4.18 4.18 0 0 1-1.07 2.91 4.38 4.38 0 0 1 1.2 3.12zm-3.1-3.72c-.79 0-.84.9-.84 2.8 0 1.7.17 2.34.84 2.34s.84-.88.84-2.34c0-1.9-.05-2.8-.84-2.8zm0-6.85c-.51 0-.67.54-.69 2.18s.09 2.39.69 2.39.69-.74.69-2.39c0-1.45-.09-2.18-.69-2.18z"/></g><g opacity=".4" fill="#9b9591"><path d="M307.87 479.39v-1.94c1.94-.11 1.77-.82 1.77-2.82 0-.91 0-2.05-.74-2.05-.58 0-.66.56-.68 2.69h-2.28c0-1.78.06-4.73 3-4.73s3 3 3 3.4c0 2.35-.41 3.47-1.12 4.17 1.12.88 1.33 2.52 1.33 4.34 0 .41-.1 4.22-3 4.22S306 483.75 306 482h2.28c0 2.13.22 2.69.8 2.69s.73-1.1.73-2c0-2 .26-3.17-1.77-3.27zM317.38 483.09h-3.59v-2l3.4-10.33h2.32V481h1.08v2h-1.08v3.44h-2.13zm-1.61-2h1.61v-5.42h-.13l-.12.47z"/></g><g opacity=".4" fill="#9b9591"><path d="M668.52 486.7c-3.13 0-3.11-3.42-3.11-3.42V474s0-3.42 3.11-3.42 3.09 3.42 3.09 3.42v9.32s.02 3.38-3.09 3.38zm0-13.9c-.82 0-.78 1.16-.78 1.16v9.32s0 1.16.78 1.16.77-1.16.77-1.16V474s.04-1.2-.77-1.2zM673.44 474.13v-1.48a3.29 3.29 0 0 0 2.48-1.94h1.39v15.82H675v-12.4z"/></g><g opacity=".4" fill="#9b9591"><path d="M60.6 456.41H57v-2L60.41 444h2.33v10.33h1.07v2h-1.07v3.45H60.6zm-1.61-2h1.61v-5.43h-.12l-.13.48zM68.37 446.34h-3.48V444h5.85v2.32l-2.32 13.5H66z"/></g><g opacity=".4" fill="#9b9591"><path d="M143.51 456.41h-3.6v-2l3.4-10.33h2.33v10.33h1.08v2h-1.08v3.45h-2.13zm-1.62-2h1.62v-5.43h-.13l-.13.48zM151.55 456.41H148v-2l3.4-10.33h2.33v10.33h1.07v2h-1.07v3.45h-2.14zm-1.61-2h1.61v-5.43h-.12l-.13.48z"/></g><g opacity=".4" fill="#9b9591"><path d="M363.14 452.71v-1.94c1.93-.1 1.76-.81 1.76-2.82 0-.9 0-2-.73-2s-.67.56-.69 2.69h-2.28c0-1.79.06-4.73 3-4.73s3 3 3 3.4c0 2.34-.42 3.46-1.13 4.17 1.12.89 1.34 2.52 1.34 4.35 0 .41-.11 4.22-3 4.22s-3.07-2.95-3.07-4.74h2.28c0 2.14.21 2.7.79 2.7.74 0 .74-1.1.74-2 0-2 .25-3.16-1.77-3.27zM372.32 446.34h-3.49V444h5.86v2.32l-2.32 13.5H370z"/></g><g opacity=".4" fill="#9b9591"><path d="M502.71 460c-3.12 0-3.1-3.42-3.1-3.42v-9.32s0-3.42 3.1-3.42 3.1 3.42 3.1 3.42v9.32s.02 3.42-3.1 3.42zm0-13.9c-.82 0-.78 1.16-.78 1.16v9.32s0 1.16.78 1.16.77-1.16.77-1.16v-9.32s.05-1.13-.77-1.13zM514.14 456.61c0 .75-.2 3.42-3 3.42s-3-2.67-3-3.42v-9c0-1.12.13-3.74 3-3.74s3 2.62 3 3.74v1h-2.33c0-2.13 0-2.71-.71-2.71s-.71.52-.71 1.72v2.82a2.18 2.18 0 0 1 1.16-.39c2.39 0 2.59 2.46 2.59 3.34zm-3 1.4a.78.78 0 0 0 .71-.71v-4.74a.78.78 0 0 0-.71-.71.71.71 0 0 0-.71.65v4.8a.73.73 0 0 0 .67.7z"/></g><g opacity=".4" fill="#9b9591"><path d="M585.61 460c-3.12 0-3.1-3.42-3.1-3.42v-9.32s0-3.42 3.1-3.42 3.1 3.42 3.1 3.42v9.32s.02 3.42-3.1 3.42zm0-13.9c-.82 0-.77 1.16-.77 1.16v9.32s-.05 1.16.77 1.16.78-1.16.78-1.16v-9.32s.04-1.13-.78-1.13zM594.13 456.41h-3.59v-2l3.4-10.33h2.32v10.33h1.08v2h-1.08v3.45h-2.13zm-1.61-2h1.61v-5.43H594l-.13.48z"/></g><g opacity=".4" fill="#9b9591"><path d="M723.78 460c-3.12 0-3.1-3.42-3.1-3.42v-9.32s0-3.42 3.1-3.42 3.1 3.42 3.1 3.42v9.32s.02 3.42-3.1 3.42zm0-13.9c-.82 0-.77 1.16-.77 1.16v9.32s0 1.16.77 1.16.78-1.16.78-1.16v-9.32s.04-1.13-.78-1.13zM729.09 449.05V448c0-2.13.56-4.08 3.1-4.08 2.37 0 3.1 1.76 3.1 3.93 0 3.23-2.45 7.73-3.63 9.75h3.68v2.31H729v-2.31s3.83-5.72 3.94-9.6c0-.86-.09-1.93-.78-1.93s-.77.92-.77 1.93v1.1z"/></g><g opacity=".4" fill="#9b9591"><path d="M88.24 429.75h-3.6v-2.05L88 417.37h2.33v10.33h1.08v2.05h-1.04v3.44h-2.13zm-1.62-2.05h1.62v-5.42h-.13l-.13.47zM99.19 429.94c0 .75-.19 3.42-3 3.42s-3-2.67-3-3.42v-9c0-1.12.13-3.74 3-3.74s3 2.62 3 3.74v1h-2.32c0-2.13 0-2.71-.71-2.71s-.71.52-.71 1.72v2.82a2.25 2.25 0 0 1 1.16-.38c2.39 0 2.58 2.45 2.58 3.33zm-3 1.4a.78.78 0 0 0 .71-.71v-4.74a.78.78 0 0 0-.71-.71.71.71 0 0 0-.71.65v4.8a.73.73 0 0 0 .68.71z"/></g><g opacity=".4" fill="#9b9591"><path d="M115.87 429.75h-3.59v-2.05l3.4-10.33H118v10.33h1.07v2.05H118v3.44h-2.14zm-1.61-2.05h1.61v-5.42h-.12l-.13.47zM123.88 431.34c.49 0 .71-.52.71-2.11v-3.53c0-.64-.24-1.16-.73-1.16s-.91.79-.91 1.16h-2v-8.33h5.62v2.3H123V423a2.46 2.46 0 0 1 1.33-.54c2.39 0 2.59 2.75 2.59 3.27v3.53c0 1.46-.2 4.13-3 4.13s-3-2.67-3-4.78h2.33v.63c-.08 1.58.09 2.1.63 2.1z"/></g><g opacity=".4" fill="#9b9591"><path d="M198.73 431.34c.5 0 .71-.52.71-2.11v-3.53c0-.64-.23-1.16-.73-1.16s-.9.79-.9 1.16h-2v-8.33h5.62v2.3h-3.62V423a2.46 2.46 0 0 1 1.33-.54c2.4 0 2.59 2.75 2.59 3.27v3.53c0 1.46-.19 4.13-3 4.13s-3-2.67-3-4.78H198v.63c0 1.58.19 2.1.73 2.1zM203.79 420.62c0-.75.19-3.42 3-3.42s3 2.67 3 3.42v9c0 1.12-.13 3.74-3 3.74s-3-2.62-3-3.74v-1h2.32c0 2.13 0 2.71.71 2.71s.71-.52.71-1.72v-3a2.23 2.23 0 0 1-1.16.39c-2.39 0-2.58-2.46-2.58-3.34zm3.74-.69a.73.73 0 0 0-.71-.71.78.78 0 0 0-.71.71v4.59a.78.78 0 0 0 .71.71.71.71 0 0 0 .71-.65z"/></g><g opacity=".4" fill="#9b9591"><path d="M252.6 426.05v-1.94c1.94-.11 1.77-.82 1.77-2.82 0-.91 0-2.05-.73-2.05s-.67.56-.69 2.69h-2.28c0-1.78.06-4.73 3-4.73s3 3 3 3.4c0 2.35-.41 3.47-1.12 4.18 1.12.88 1.33 2.52 1.33 4.35 0 .4-.11 4.21-3 4.21s-3.08-2.94-3.08-4.73h2.2c0 2.13.22 2.69.8 2.69s.73-1.1.73-2c0-2 .26-3.17-1.76-3.27zM260.67 426.05v-1.94c1.94-.11 1.77-.82 1.77-2.82 0-.91 0-2.05-.74-2.05-.58 0-.66.56-.68 2.69h-2.28c0-1.78.06-4.73 3-4.73s3 3 3 3.4c0 2.35-.41 3.47-1.12 4.18 1.12.88 1.33 2.52 1.33 4.35 0 .4-.11 4.21-3 4.21s-3.08-2.94-3.08-4.73h2.28c0 2.13.22 2.69.8 2.69.73 0 .73-1.1.73-2 0-2 .26-3.17-1.77-3.27z"/></g><g opacity=".4" fill="#9b9591"><path d="M696.15 406.69c-3.13 0-3.11-3.42-3.11-3.42V394s0-3.42 3.11-3.42 3.09 3.42 3.09 3.42v9.32s.02 3.37-3.09 3.37zm0-13.9c-.82 0-.78 1.16-.78 1.16v9.32s0 1.16.78 1.16.77-1.16.77-1.16V394s.08-1.21-.77-1.21zM703.22 399.37v-1.94c1.94-.1 1.77-.81 1.77-2.82 0-.9 0-2-.73-2s-.67.56-.69 2.69h-2.28c0-1.79.06-4.73 3-4.73s3 3 3 3.4c0 2.34-.41 3.46-1.12 4.17 1.12.89 1.33 2.52 1.33 4.35 0 .41-.11 4.22-3 4.22s-3.08-2.95-3.08-4.74h2.28c0 2.14.22 2.7.8 2.7s.73-1.1.73-2c0-2 .26-3.16-1.76-3.27z"/></g><g opacity=".4" fill="#9b9591"><path d="M143.51 376.4h-3.6v-2l3.4-10.33h2.33v10.33h1.08v2h-1.08v3.44h-2.13zm-1.62-2h1.62v-5.42h-.13l-.13.47zM154.63 376.46c0 .43-.07 3.55-3.1 3.55s-3.1-3.12-3.1-3.55v-1.85a4.39 4.39 0 0 1 1.2-3.12 4.18 4.18 0 0 1-1.07-2.91v-1.33c0-.41.06-3.4 3-3.4s3 3 3 3.4v1.33a4.19 4.19 0 0 1-1.08 2.91 4.36 4.36 0 0 1 1.21 3.12zm-3.1-3.72c-.8 0-.84.9-.84 2.8 0 1.7.17 2.34.84 2.34s.84-.88.84-2.34c0-1.9-.05-2.8-.84-2.8zm0-6.84c-.52 0-.67.53-.69 2.17s.09 2.39.69 2.39.69-.73.69-2.39c0-1.44-.09-2.17-.69-2.17z"/></g><g opacity=".4" fill="#9b9591"><path d="M363.14 372.7v-1.94c1.93-.11 1.76-.82 1.76-2.82 0-.9 0-2-.73-2s-.67.55-.69 2.68h-2.28c0-1.78.06-4.73 3-4.73s3 3 3 3.4c0 2.35-.42 3.47-1.13 4.18 1.12.88 1.34 2.52 1.34 4.35 0 .4-.11 4.21-3 4.21s-3.07-2.94-3.07-4.73h2.28c0 2.13.21 2.69.79 2.69.74 0 .74-1.1.74-2 0-2 .25-3.17-1.77-3.27zM369.06 367.44V366a3.29 3.29 0 0 0 2.47-1.94h1.4v15.82h-2.33v-12.4z"/></g><g opacity=".4" fill="#9b9591"><path d="M390.78 372.7v-1.94c1.93-.11 1.76-.82 1.76-2.82 0-.9 0-2-.73-2-.58 0-.67.55-.69 2.68h-2.28c0-1.78.06-4.73 3-4.73s3 3 3 3.4c0 2.35-.41 3.47-1.12 4.18 1.12.88 1.34 2.52 1.34 4.35 0 .4-.11 4.21-3 4.21s-3.08-2.94-3.08-4.73h2.28c0 2.13.22 2.69.8 2.69.73 0 .73-1.1.73-2 0-2 .26-3.17-1.76-3.27zM403.19 376.46c0 .43-.06 3.55-3.1 3.55s-3.1-3.12-3.1-3.55v-1.85a4.36 4.36 0 0 1 1.21-3.12 4.19 4.19 0 0 1-1.08-2.91v-1.33c0-.41.07-3.4 3-3.4s3 3 3 3.4v1.33a4.14 4.14 0 0 1-1.08 2.91 4.36 4.36 0 0 1 1.21 3.12zm-3.1-3.72c-.8 0-.84.9-.84 2.8 0 1.7.17 2.34.84 2.34s.84-.88.84-2.34c0-1.9-.04-2.8-.84-2.8zm0-6.84c-.52 0-.67.53-.69 2.17s.09 2.39.69 2.39.69-.73.69-2.39c0-1.44-.09-2.17-.69-2.17z"/></g><g opacity=".4" fill="#9b9591"><path d="M335.5 346v-1.94c1.94-.11 1.77-.82 1.77-2.82 0-.9 0-2-.74-2-.58 0-.66.55-.68 2.68h-2.28c0-1.78.06-4.73 3-4.73s3 3 3 3.4c0 2.35-.41 3.47-1.12 4.18 1.12.88 1.33 2.52 1.33 4.35 0 .41-.1 4.21-3 4.21s-3.08-2.94-3.08-4.73h2.28c0 2.13.22 2.69.8 2.69s.73-1.1.73-2c0-2 .26-3.17-1.77-3.27zM345 353.34c-3.12 0-3.1-3.42-3.1-3.42v-9.32s0-3.42 3.1-3.42 3.1 3.42 3.1 3.42v9.32s-.01 3.42-3.1 3.42zm0-13.9c-.82 0-.77 1.16-.77 1.16v9.32s-.05 1.17.77 1.17.78-1.17.78-1.17v-9.32s.01-1.16-.78-1.16z"/></g><g opacity=".4" fill="#9b9591"><path d="M501.31 346v-1.94c1.94-.11 1.76-.82 1.76-2.82 0-.9 0-2-.73-2-.58 0-.67.55-.69 2.68h-2.28c0-1.78.06-4.73 3-4.73s3 3 3 3.4c0 2.35-.42 3.47-1.12 4.18 1.12.88 1.34 2.52 1.34 4.35 0 .41-.11 4.21-3 4.21s-3.08-2.94-3.08-4.73h2.28c0 2.13.21 2.69.8 2.69s.73-1.1.73-2c0-2 .26-3.17-1.77-3.27zM507.57 340.6c0-.75.19-3.42 3-3.42s3 2.67 3 3.42v9c0 1.12-.13 3.74-3 3.74s-3-2.62-3-3.74v-1h2.32c0 2.13.05 2.71.71 2.71s.71-.51.71-1.72v-3a2.15 2.15 0 0 1-1.16.39c-2.39 0-2.58-2.46-2.58-3.34zm3.74-.69a.73.73 0 0 0-.71-.71.78.78 0 0 0-.71.71v4.59a.78.78 0 0 0 .71.71.71.71 0 0 0 .71-.65z"/></g><g opacity=".4" fill="#9b9591"><path d="M582.06 340.77v-1.48a3.29 3.29 0 0 0 2.47-1.94h1.4v15.82h-2.32v-12.4zM591.51 349.73h-3.6v-2.05l3.4-10.33h2.33v10.33h1.07v2.05h-1.07v3.44h-2.13zm-1.62-2.05h1.62v-5.42h-.13l-.13.47z"/></g><g opacity=".4" fill="#9b9591"><path d="M665 340.77v-1.48a3.29 3.29 0 0 0 2.48-1.94h1.4v15.82h-2.33v-12.4zM674.37 351.32c.49 0 .71-.51.71-2.11v-3.53c0-.64-.24-1.16-.74-1.16s-.9.8-.9 1.16h-2v-8.33h5.62v2.3h-3.61V343a2.46 2.46 0 0 1 1.33-.54c2.39 0 2.58 2.76 2.58 3.27v3.53c0 1.47-.19 4.13-3 4.13s-3-2.66-3-4.77h2.33v.62c-.03 1.57.14 2.08.68 2.08z"/></g><g opacity=".4" fill="#9b9591"><path d="M198.78 323.06h-3.6V321l3.4-10.33h2.33V321H202v2.05h-1.07v3.44h-2.13zm-1.62-2.06h1.62v-5.42h-.13l-.13.47zM203.62 313.93c0-.75.19-3.42 3-3.42s3 2.67 3 3.42v9c0 1.12-.13 3.74-3 3.74s-3-2.62-3-3.74v-1h2.32c0 2.13 0 2.71.71 2.71s.71-.51.71-1.72v-3a2.18 2.18 0 0 1-1.16.39c-2.39 0-2.58-2.46-2.58-3.34zm3.74-.69a.73.73 0 0 0-.71-.71.78.78 0 0 0-.71.71v4.59a.78.78 0 0 0 .71.71.71.71 0 0 0 .71-.65z"/></g><g opacity=".4" fill="#9b9591"><path d="M609.69 314.1v-1.48a3.29 3.29 0 0 0 2.48-1.94h1.4v15.82h-2.33v-12.4zM619.1 326.67c-3.12 0-3.1-3.42-3.1-3.42v-9.32s0-3.42 3.1-3.42 3.1 3.42 3.1 3.42v9.32s.02 3.42-3.1 3.42zm0-13.9c-.82 0-.78 1.16-.78 1.16v9.32s0 1.17.78 1.17.78-1.17.78-1.17v-9.32s.04-1.16-.78-1.16z"/></g><g opacity=".4" fill="#9b9591"><path d="M637.33 314.1v-1.48a3.29 3.29 0 0 0 2.48-1.94h1.39v15.82h-2.32v-12.4zM643.57 315.7v-1.1c0-2.13.56-4.09 3.1-4.09 2.37 0 3.1 1.77 3.1 3.94 0 3.23-2.45 7.73-3.64 9.75h3.68v2.3h-6.3v-2.3s3.83-5.73 3.94-9.6c0-.86-.09-1.94-.78-1.94s-.78.93-.78 1.94v1.1z"/></g><g opacity=".4" fill="#9b9591"><path d="M609.69 287.44V286a3.27 3.27 0 0 0 2.48-1.94h1.4v15.83h-2.33v-12.4zM617.7 292.69v-1.94c1.94-.11 1.76-.82 1.76-2.82 0-.9 0-2-.73-2s-.66.56-.69 2.69h-2.28c0-1.79.07-4.74 3-4.74s3 3 3 3.4c0 2.35-.41 3.47-1.12 4.18 1.11.88 1.33 2.52 1.33 4.35 0 .41-.11 4.22-3 4.22s-3.08-2.95-3.08-4.74h2.28c0 2.13.22 2.69.8 2.69.73 0 .73-1.09.73-2 0-2 .26-3.16-1.77-3.27z"/></g><g opacity=".4" fill="#9b9591"><path d="M637.33 287.44V286a3.27 3.27 0 0 0 2.48-1.94h1.39v15.83h-2.32v-12.4zM643.18 287.44V286a3.27 3.27 0 0 0 2.48-1.94h1.4v15.83h-2.33v-12.4z"/></g><g opacity=".4" fill="#9b9591"><path d="M389 262.35v-1.09c0-2.13.56-4.09 3.1-4.09 2.37 0 3.1 1.76 3.1 3.94 0 3.23-2.45 7.72-3.64 9.75h3.68v2.3h-6.31v-2.3s3.84-5.73 3.94-9.6c0-.86-.08-1.94-.77-1.94s-.78.92-.78 1.94v1.09zM397.51 260.59c0-.75.19-3.42 3-3.42s3 2.67 3 3.42v9c0 1.12-.13 3.74-3 3.74s-3-2.62-3-3.74v-1h2.32c0 2.13.05 2.71.71 2.71s.71-.52.71-1.72v-3a2.22 2.22 0 0 1-1.16.38c-2.39 0-2.58-2.45-2.58-3.33zm3.74-.69a.73.73 0 0 0-.71-.71.78.78 0 0 0-.71.71v4.59a.78.78 0 0 0 .71.71.71.71 0 0 0 .71-.65z"/></g><g opacity=".4" fill="#9b9591"><path d="M250.84 235.69v-1.1c0-2.13.56-4.09 3.1-4.09 2.36 0 3.1 1.77 3.1 3.94 0 3.23-2.46 7.73-3.64 9.75h3.68v2.3h-6.31v-2.3s3.84-5.73 3.94-9.6c0-.86-.08-1.94-.77-1.94s-.78.93-.78 1.94v1.1zM265.49 243.11c0 .43-.06 3.56-3.1 3.56s-3.09-3.13-3.09-3.56v-1.85a4.35 4.35 0 0 1 1.2-3.12 4.18 4.18 0 0 1-1.08-2.9v-1.34c0-.41.07-3.4 3-3.4s3 3 3 3.4v1.34a4.17 4.17 0 0 1-1.07 2.9 4.35 4.35 0 0 1 1.2 3.12zm-3.1-3.72c-.79 0-.83.9-.83 2.8 0 1.7.17 2.34.83 2.34s.84-.88.84-2.34c0-1.9-.04-2.8-.84-2.8zm0-6.84c-.51 0-.66.53-.69 2.17s.09 2.39.69 2.39.69-.73.69-2.39c0-1.44-.08-2.17-.69-2.17z"/></g><g opacity=".4" fill="#9b9591"><path d="M582.06 234.1v-1.49a3.29 3.29 0 0 0 2.47-1.94h1.4v15.82h-2.32V234.1zM594.41 243.24c0 .76-.19 3.43-3 3.43s-3-2.67-3-3.43v-9c0-1.12.13-3.75 3-3.75s3 2.63 3 3.75v1h-2.32c0-2.13 0-2.72-.71-2.72s-.71.52-.71 1.73v2.81a2.25 2.25 0 0 1 1.16-.38c2.39 0 2.58 2.45 2.58 3.33zm-3 1.4a.77.77 0 0 0 .71-.71v-4.73a.77.77 0 0 0-.71-.71.71.71 0 0 0-.71.64v4.8a.73.73 0 0 0 .68.71z"/></g><g opacity=".4" fill="#9b9591"><path d="M167.94 209v-1.1c0-2.13.55-4.09 3.1-4.09 2.36 0 3.1 1.77 3.1 3.94 0 3.23-2.46 7.73-3.64 9.75h3.68v2.31h-6.31v-2.31s3.83-5.72 3.94-9.6c0-.86-.09-1.93-.77-1.93s-.78.92-.78 1.93v1.1zM182.59 216.57c0 .75-.19 3.42-3 3.42s-3-2.67-3-3.42v-9c0-1.12.13-3.75 3-3.75s3 2.63 3 3.75v1h-2.32c0-2.13 0-2.71-.71-2.71s-.71.52-.71 1.72v2.82a2.18 2.18 0 0 1 1.15-.4c2.39 0 2.58 2.46 2.58 3.34zm-3 1.4a.78.78 0 0 0 .71-.71v-4.74a.78.78 0 0 0-.71-.71.71.71 0 0 0-.71.65v4.8a.73.73 0 0 0 .68.74z"/></g><g opacity=".4" fill="#9b9591"><path d="M278.47 182.34v-1.1c0-2.13.56-4.09 3.1-4.09 2.37 0 3.1 1.77 3.1 3.94 0 3.23-2.45 7.73-3.64 9.75h3.68v2.31h-6.3v-2.31s3.83-5.72 3.94-9.6c0-.86-.09-1.93-.78-1.93s-.78.92-.78 1.93v1.1zM289.94 179.63h-3.49v-2.3h5.86v2.32l-2.31 13.5h-2.41z"/></g><g opacity=".4" fill="#9b9591"><path d="M333.74 182.34v-1.1c0-2.13.56-4.09 3.1-4.09 2.36 0 3.1 1.77 3.1 3.94 0 3.23-2.46 7.73-3.64 9.75h3.7v2.31h-6.31v-2.31s3.83-5.72 3.94-9.6c0-.86-.09-1.93-.77-1.93s-.78.92-.78 1.93v1.1zM345.44 193.32c-3.12 0-3.1-3.42-3.1-3.42v-9.32s0-3.43 3.1-3.43 3.1 3.43 3.1 3.43v9.32s.02 3.42-3.1 3.42zm0-13.9c-.82 0-.77 1.16-.77 1.16v9.32s-.05 1.16.77 1.16.78-1.16.78-1.16v-9.32s.04-1.16-.78-1.16z"/></g><g opacity=".4" fill="#9b9591"><path d="M471.52 180.75v-1.49a3.27 3.27 0 0 0 2.48-1.93h1.39v15.82h-2.32v-12.4zM477.72 180.58c0-.76.19-3.43 3-3.43s3 2.67 3 3.43v9c0 1.12-.13 3.75-3 3.75s-3-2.63-3-3.75v-1H480c0 2.14 0 2.72.71 2.72s.71-.52.71-1.73v-3a2.15 2.15 0 0 1-1.16.39c-2.39 0-2.58-2.45-2.58-3.33zm3.74-.69a.73.73 0 0 0-.71-.71.78.78 0 0 0-.71.71v4.58a.77.77 0 0 0 .71.71.71.71 0 0 0 .71-.64z"/></g><g opacity=".4" fill="#9b9591"><path d="M361.37 155.67v-1.1c0-2.13.56-4.09 3.1-4.09 2.37 0 3.1 1.77 3.1 3.94 0 3.23-2.45 7.73-3.63 9.75h3.67v2.31h-6.3v-2.31s3.83-5.72 3.94-9.6c0-.86-.09-1.94-.78-1.94s-.77.93-.77 1.94v1.1zM369.92 155.67v-1.1c0-2.13.55-4.09 3.1-4.09 2.36 0 3.1 1.77 3.1 3.94 0 3.23-2.46 7.73-3.64 9.75h3.68v2.31h-6.31v-2.31s3.83-5.72 3.94-9.6c0-.86-.09-1.94-.77-1.94s-.78.93-.78 1.94v1.1z"/></g><g opacity=".4" fill="#9b9591"><path d="M609.69 154.08v-1.49a3.29 3.29 0 0 0 2.48-1.94h1.4v15.83h-2.33v-12.4zM618.86 153h-3.48v-2.31h5.85V153l-2.32 13.5h-2.42z"/></g><g opacity=".4" fill="#9b9591"><path d="M389 129v-1.1c0-2.13.56-4.09 3.1-4.09 2.37 0 3.1 1.77 3.1 3.94 0 3.23-2.45 7.73-3.64 9.75h3.68v2.31h-6.31v-2.31s3.84-5.72 3.94-9.6c0-.86-.08-1.93-.77-1.93s-.78.92-.78 1.93v1.1zM399.32 132.66v-1.94c1.93-.1 1.76-.81 1.76-2.82 0-.9 0-2-.73-2s-.67.56-.69 2.69h-2.28c0-1.79.06-4.74 3-4.74s3 3 3 3.4c0 2.35-.41 3.47-1.12 4.18 1.12.88 1.34 2.52 1.34 4.35 0 .41-.11 4.22-3 4.22s-3.07-2.95-3.07-4.74h2.28c0 2.14.21 2.69.79 2.69s.73-1.09.73-2c0-2 .26-3.16-1.76-3.27z"/></g><g opacity=".4" fill="#9b9591"><path d="M526.79 127.41v-1.49a3.27 3.27 0 0 0 2.48-1.93h1.4v15.82h-2.33v-12.4zM539.15 136.43c0 .43-.07 3.55-3.1 3.55s-3.1-3.12-3.1-3.55v-1.85a4.4 4.4 0 0 1 1.2-3.13 4.16 4.16 0 0 1-1.07-2.9v-1.34c0-.4.06-3.4 3-3.4s3 3 3 3.4v1.34a4.16 4.16 0 0 1-1.08 2.9 4.36 4.36 0 0 1 1.21 3.13zm-3.1-3.73c-.8 0-.84.91-.84 2.8 0 1.7.17 2.35.84 2.35s.84-.88.84-2.35c0-1.89-.05-2.8-.84-2.8zm0-6.84c-.52 0-.67.54-.69 2.17s.08 2.39.69 2.39.68-.73.68-2.39c0-1.44-.08-2.17-.68-2.17z"/></g><g opacity=".4" fill="#9b9591"><path d="M306.11 102.33v-1.1c0-2.13.56-4.09 3.1-4.09 2.36 0 3.1 1.77 3.1 3.94 0 3.23-2.46 7.73-3.64 9.75h3.68v2.31H306v-2.31s3.83-5.72 3.94-9.6c0-.86-.09-1.93-.77-1.93s-.78.92-.78 1.93v1.1zM317.81 111.28c.5 0 .71-.51.71-2.11v-3.52c0-.65-.23-1.17-.73-1.17s-.9.8-.9 1.17h-2v-8.34h5.62v2.31h-3.62v3.29a2.47 2.47 0 0 1 1.34-.54c2.39 0 2.58 2.76 2.58 3.28v3.52c0 1.47-.19 4.14-3 4.14s-3-2.67-3-4.78h2.33v.62c-.03 1.62.14 2.13.67 2.13z"/></g><g opacity=".4" fill="#9b9591"><path d="M333.74 75.65v-1.1c0-2.13.56-4.09 3.1-4.09 2.36 0 3.1 1.77 3.1 3.94 0 3.23-2.46 7.73-3.64 9.75h3.7v2.31h-6.31v-2.31s3.83-5.72 3.94-9.6c0-.86-.09-1.93-.77-1.93s-.78.92-.78 1.93v1.1zM345.49 83h-3.6v-2l3.4-10.34h2.33V81h1.08v2h-1.08v3.45h-2.13zm-1.62-2h1.62v-5.46h-.13l-.13.48z"/></g><g opacity=".94" fill="#94c11a"><path d="M472.17 910.42v-3.31s.06-1.58-1.05-1.58-1.06 1.58-1.06 1.58v12.95s-.06 1.58 1.06 1.58 1.05-1.58 1.05-1.58v-3.9h-1.26v-2.66h4.43v10.72h-1.88l-.38-1a3.18 3.18 0 0 1-2.46 1.26c-4 0-3.72-4.66-3.72-4.66v-12.71s0-4.66 4.22-4.66 4.22 4.66 4.22 4.66v3.31zM478.83 902.68h7.24v3.26H482v5.65h2.93v3.46H482V921h4.08v3.25h-7.24zM489 924.22v-21.54h2.79c3.78 0 5.77 1.44 5.77 5.72a5.06 5.06 0 0 1-2 4.45s2.2 1 2.2 5.28c0 3.16-1.12 6-4.9 6.09zm3.17-18.4v5.74c.58 0 2.34.09 2.34-2.87s-1.76-2.87-2.34-2.87zm0 8.64v6.63c.58 0 2.34.23 2.34-3.31s-1.76-3.32-2.34-3.32zM500.84 902.68H504v21.54h-3.17zM507.53 902.68h7.24v3.26h-4.07v5.65h2.92v3.46h-2.92V921h4.07v3.25h-7.24zM516.59 905.94v-3.26h9.14v3.26h-3v18.28h-3.16v-18.28zM533.53 909.51V908c0-2.9.76-5.57 4.22-5.57 3.22 0 4.22 2.4 4.22 5.36 0 4.4-3.34 10.52-5 13.28h5v3.13h-8.59v-3.13s5.22-7.8 5.37-13.07c0-1.18-.12-2.64-1.06-2.64s-1.06 1.26-1.06 2.64v1.49z"/></g><g opacity=".94" fill="#94c11a"><path d="M422.23 675.23v-3.32s.06-1.58-1.05-1.58-1.05 1.58-1.05 1.58v13s-.06 1.58 1.05 1.58 1.05-1.58 1.05-1.58V681H421v-2.7h4.42V689h-1.87l-.39-1a3.15 3.15 0 0 1-2.46 1.26c-4 0-3.72-4.66-3.72-4.66v-12.69s0-4.66 4.22-4.66 4.22 4.66 4.22 4.66v3.32zM428.89 667.49h7.24v3.25h-4.07v5.66H435v3.46h-2.92v5.92h4.07V689h-7.24zM439.06 689v-21.51h2.79c3.78 0 5.77 1.43 5.77 5.71a5.06 5.06 0 0 1-2 4.46s2.2 1 2.2 5.27c0 3.17-1.12 6-4.9 6.1zm3.17-18.41v5.75c.58 0 2.34.09 2.34-2.87s-1.76-2.85-2.34-2.85zm0 8.65v6.62c.58 0 2.34.24 2.34-3.31s-1.76-3.28-2.34-3.28zM450.9 667.49h3.17V689h-3.17zM457.59 667.49h7.24v3.25h-4.07v5.66h2.92v3.46h-2.92v5.92h4.07V689h-7.24zM466.65 670.74v-3.25h9.14v3.25h-3V689h-3.16v-18.26zM486 679.3v-2.64c2.63-.15 2.4-1.11 2.4-3.84 0-1.23 0-2.78-1-2.78-.79 0-.91.76-.94 3.66h-3.1c0-2.43.09-6.45 4-6.45s4.1 4.08 4.1 4.64c0 3.19-.55 4.71-1.52 5.68 1.53 1.2 1.82 3.43 1.82 5.92 0 .56-.15 5.74-4.1 5.74s-4.19-4-4.19-6.45h3.1c0 2.91.29 3.67 1.09 3.67 1 0 1-1.5 1-2.73 0-2.72.35-4.31-2.4-4.45z"/></g><g opacity=".94" fill="#94c11a"><path d="M129.21 689.09v-3.31s.06-1.58-1.05-1.58-1.06 1.58-1.06 1.58v13s-.06 1.58 1.06 1.58 1.05-1.58 1.05-1.58v-3.9H128v-2.66h4.43v10.72h-1.93l-.38-1a3.22 3.22 0 0 1-2.46 1.26c-4 0-3.73-4.66-3.73-4.66v-12.76s0-4.66 4.23-4.66 4.22 4.66 4.22 4.66v3.31zM135.86 681.35h7.24v3.26H139v5.65h3v3.46h-3v5.92h4.07v3.25h-7.24zM146 702.89v-21.54h2.78c3.78 0 5.78 1.44 5.78 5.72a5 5 0 0 1-2 4.45s2.2 1 2.2 5.28c0 3.16-1.11 6-4.89 6.09zm3.17-18.4v5.74c.58 0 2.34.09 2.34-2.87s-1.72-2.87-2.3-2.87zm0 8.64v6.63c.58 0 2.34.23 2.34-3.31s-1.72-3.32-2.3-3.32zM157.88 681.35h3.17v21.54h-3.17zM164.56 681.35h7.24v3.26h-4.07v5.65h2.93v3.46h-2.93v5.92h4.07v3.25h-7.24zM173.62 684.61v-3.26h9.15v3.26h-3v18.28h-3.17v-18.28zM194.93 698.2H190v-2.78l4.63-14.07h3.16v14.07h1.47v2.78h-1.47v4.69h-2.9zm-2.2-2.78h2.2V688h-.17l-.18.64z"/></g><g opacity=".94" fill="#94c11a"><path d="M239.85 899.47v-3.32s.06-1.58-1-1.58-1.06 1.58-1.06 1.58v13s-.06 1.58 1.06 1.58 1-1.58 1-1.58v-3.9h-1.26v-2.66H243v10.72h-1.88l-.38-1a3.2 3.2 0 0 1-2.46 1.26c-4 0-3.72-4.66-3.72-4.66v-12.7s0-4.65 4.22-4.65 4.22 4.65 4.22 4.65v3.32zM246.51 891.73h7.24V895h-4.08v5.66h2.93v3.46h-2.93V910h4.08v3.25h-7.24zM256.68 913.27v-21.54h2.79c3.78 0 5.77 1.44 5.77 5.72a5 5 0 0 1-2 4.45s2.2 1 2.2 5.28c0 3.16-1.11 5.94-4.89 6.09zm3.17-18.4v5.74c.58 0 2.34.09 2.34-2.87s-1.76-2.87-2.34-2.87zm0 8.64v6.62c.58 0 2.34.24 2.34-3.31s-1.76-3.31-2.34-3.31zM268.52 891.73h3.17v21.54h-3.17zM275.21 891.73h7.24V895h-4.08v5.66h2.93v3.46h-2.93V910h4.08v3.25h-7.24zM284.27 895v-3.25h9.14V895h-3v18.29h-3.17V895zM300.68 896.39v-2a4.47 4.47 0 0 0 3.37-2.64H306v21.54h-3.17v-16.9z"/></g><g opacity=".94" fill="#94c11a"><path d="M366.17 308.51v-3.31s.06-1.59-1.05-1.59-1.06 1.59-1.06 1.59v12.95s-.06 1.58 1.06 1.58 1.05-1.58 1.05-1.58v-3.9h-1.26v-2.67h4.43v10.73h-1.88l-.38-1a3.19 3.19 0 0 1-2.46 1.26c-4 0-3.73-4.65-3.73-4.65V305.2s0-4.66 4.23-4.66 4.22 4.66 4.22 4.66v3.31zM372.82 300.77h7.24V304H376v5.66h2.93v3.46H376v5.92h4.07v3.25h-7.24zM383 322.31v-21.54h2.78c3.78 0 5.78 1.44 5.78 5.72a5 5 0 0 1-2 4.45s2.2 1 2.2 5.27c0 3.17-1.11 6-4.89 6.1zm3.17-18.4v5.74c.58 0 2.34.09 2.34-2.87s-1.76-2.87-2.34-2.87zm0 8.64v6.63c.58 0 2.34.23 2.34-3.32s-1.76-3.31-2.34-3.31zM394.84 300.77H398v21.54h-3.17zM401.52 300.77h7.24V304h-4.07v5.66h2.93v3.46h-2.93v5.92h4.07v3.25h-7.24zM410.58 304v-3.25h9.15V304h-3v18.29h-3.17V304zM431.84 319.79c.67 0 1-.7 1-2.87v-4.81c0-.88-.32-1.58-1-1.58s-1.24 1.08-1.24 1.58h-2.66v-11.34h7.65v3.14h-4.93v4.48a3.35 3.35 0 0 1 1.82-.73c3.25 0 3.52 3.75 3.52 4.45v4.81c0 2-.27 5.62-4.13 5.62s-4.14-3.63-4.14-6.5h3.17v.85c-.03 2.2.2 2.9.94 2.9z"/></g><g opacity=".94" fill="#94c11a"><path d="M728 959.25c-4.25 0-4.22-4.66-4.22-4.66V941.9s0-4.66 4.22-4.66 4.22 4.66 4.22 4.66v12.69s0 4.66-4.22 4.66zm-3.43-26.56h2.73v2.88h-2.73zm3.43 7.63c-1.11 0-1.05 1.58-1.05 1.58v12.69s-.06 1.58 1.05 1.58 1-1.58 1-1.58V941.9s.08-1.58-1-1.58zm.7-7.63h2.73v2.88h-2.73zM739.43 937.24c3.81-.09 4.43 3.31 4.43 5.71l-3.11.29c0-1.43-.2-3.1-1.26-3.1-.82 0-1.09.91-1.09 2.14 0 1.47 1.27 3.11 2.49 4.89 1.47 2.2 3 4.34 3 6.65 0 2.88-.94 5.43-4.4 5.43-4.07 0-4.6-3.08-4.6-6.28l3.11-.29c0 1.79.17 3.67 1.49 3.67.94 0 1.29-1 1.29-2.38s-1.35-3.16-2.55-5c-1.5-2.2-2.9-4.39-2.9-6.71s1.11-4.96 4.1-5.02zM745.62 940.72v-3.25h9.14v3.25h-3V959h-3.17v-18.28zM757.17 937.47h7.24v3.25h-4.08v5.66h2.93v3.46h-2.93v5.92h4.08V959h-7.24zM773 959l-1.64-9.08h-.85V959h-3.17v-21.53h3.17c3.75 0 5.39 2.17 5.39 6.22 0 2.13-.56 4.07-1.76 4.89l2 10.43zm-2.49-18.4v6.4c.87 0 2.34-.12 2.34-3.2s-1.47-3.19-2.34-3.19zM784.75 959l-1.64-9.08h-.85V959h-3.17v-21.53h3.17c3.75 0 5.39 2.17 5.39 6.22 0 2.13-.55 4.07-1.76 4.89l2 10.43zm-2.49-18.4v6.4c.88 0 2.35-.12 2.35-3.2s-1.47-3.19-2.35-3.19zM790.85 937.47h7.24v3.25H794v5.66h2.92v3.46H794v5.92h4.07V959h-7.24zM801 937.47h3.17V959H801zM815.94 951.63v3s0 4.66-4.22 4.66-4.22-4.66-4.22-4.66V941.9s0-4.66 4.22-4.66 4.22 4.66 4.22 4.66v3h-3v-3s.12-1.58-1.2-1.58c-1.11 0-1.11 1.58-1.11 1.58v12.69s0 1.58 1.11 1.58c1.32 0 1.2-1.58 1.2-1.58v-3zM824.65 949.63h-2.46V959H819v-21.53h3.17v8.91h2.46v-8.91h3.17V959h-3.17z"/></g></g></g></svg>