<svg xmlns="http://www.w3.org/2000/svg" viewBox="0 0 26.25 30"><g data-name="Ebene 2"><g data-name="Ebene 1"><path d="M5.62 0a1.88 1.88 0 0 0-1.87 1.88v26.24A1.88 1.88 0 0 0 5.62 30h18.76a1.88 1.88 0 0 0 1.87-1.88V7.5L18.75 0z" opacity=".2" fill="#999591"/><path d="M20.62 7.5h5.63L18.75 0v5.62a1.88 1.88 0 0 0 1.87 1.88z" fill="#999591"/><path opacity=".3" fill="#999591" d="M26.25 13.13L20.63 7.5h5.62v5.63z"/><path d="M22.5 24.37a.94.94 0 0 1-.94.94H.94a.94.94 0 0 1-.94-.94V15a.94.94 0 0 1 .94-.94h20.62a.94.94 0 0 1 .94.94z" fill="#92c01a"/><path d="M4.09 17.76a.51.51 0 0 1 .51-.51h1.73a1.87 1.87 0 0 1 0 3.74H5.08v1a.47.47 0 0 1-.48.52.51.51 0 0 1-.51-.51zm1 .43v1.87h1.24a.94.94 0 0 0 0-1.87zM9.65 22.5a.47.47 0 0 1-.52-.5v-4.22a.51.51 0 0 1 .52-.47h1.71c3.43 0 3.36 5.19.07 5.19zm.47-4.27v3.36h1.24c2 0 2.12-3.36 0-3.36zM15.93 18.29v1.19h1.91a.58.58 0 0 1 .54.53.52.52 0 0 1-.54.45h-1.91V22a.45.45 0 0 1-.45.47A.47.47 0 0 1 15 22v-4.22a.47.47 0 0 1 .53-.47h2.63a.47.47 0 0 1 .53.47.52.52 0 0 1-.53.51z" fill="#fff"/><path d="M21.56 25.31H3.75v.94h17.81a.94.94 0 0 0 .94-.94v-.94a.94.94 0 0 1-.94.94z" opacity=".3" fill="#999591"/></g></g></svg>