<svg xmlns="http://www.w3.org/2000/svg" viewBox="0 0 50 50"><g data-name="Ebene 2"><g data-name="Ebene 1"><circle cx="25" cy="25" r="25" fill="#92c01a"/><path d="M37.5 17.25a10.38 10.38 0 0 1-3 .8 5.13 5.13 0 0 0 2.26-2.83 10.44 10.44 0 0 1-3.26 1.24 5.14 5.14 0 0 0-8.74 4.68 14.56 14.56 0 0 1-10.57-5.36 5.15 5.15 0 0 0 1.59 6.85A5.26 5.26 0 0 1 13.5 22v.06a5.13 5.13 0 0 0 4.12 5 5.05 5.05 0 0 1-1.35.18 5.23 5.23 0 0 1-1-.09 5.13 5.13 0 0 0 4.79 3.56 10.24 10.24 0 0 1-6.37 2.2 9.87 9.87 0 0 1-1.22-.08A14.58 14.58 0 0 0 35 20.57v-.67a10.41 10.41 0 0 0 2.5-2.65z" fill="#fff"/></g></g></svg>
