<svg xmlns="http://www.w3.org/2000/svg" viewBox="0 0 30.75 30.75"><g data-name="Ebene 2"><g data-name="Ebene 1"><circle cx="15.38" cy="15.38" r="15" fill="none" stroke="#999591" stroke-miterlimit="10" stroke-width=".75"/><path d="M22.07 15.21a.4.4 0 0 0-.4.41v3.7a1.83 1.83 0 0 1-1.83 1.83h-8.93a1.83 1.83 0 0 1-1.83-1.83v-3.76a.41.41 0 1 0-.81 0v3.76A2.64 2.64 0 0 0 10.91 22h8.93a2.64 2.64 0 0 0 2.64-2.64v-3.7a.41.41 0 0 0-.41-.41z" fill="#999591"/><path d="M15.09 18.73a.39.39 0 0 0 .28.12.4.4 0 0 0 .29-.12l2.59-2.59a.41.41 0 0 0-.58-.58l-1.89 1.9V9.2a.41.41 0 1 0-.81 0v8.26l-1.9-1.9a.4.4 0 0 0-.57 0 .41.41 0 0 0 0 .58z" fill="#999591"/></g></g></svg>