<svg xmlns="http://www.w3.org/2000/svg" viewBox="0 0 71.16 13.9"><g data-name="Ebene 2"><g data-name="Ebene 1" fill="#999591"><path d="M39.12 4.62a3 3 0 0 0-2.78 1.15V0l-2.83.34V13.7h2.83v-.8a5.84 5.84 0 0 0 1.19.76 3.45 3.45 0 0 0 4.59-2.1 7.33 7.33 0 0 0 .11-4.3 3.31 3.31 0 0 0-3.11-2.64m.43 5.78a1.47 1.47 0 0 1-1.66 1.28 2 2 0 0 1-.57-.13 1.92 1.92 0 0 1-.93-1.43 6.12 6.12 0 0 1 .21-2.55 1.61 1.61 0 0 1 2.94.5 8.66 8.66 0 0 1 .01 2.33zM49.16 4.78a5.61 5.61 0 0 0-3 0 3.55 3.55 0 0 0-2.77 2.8 9.41 9.41 0 0 0-.17 2.49 3.82 3.82 0 0 0 3.1 3.66h.36a2.72 2.72 0 0 0 .31 0 5.16 5.16 0 0 0 1.18 0h.07A3.88 3.88 0 0 0 52 10.76a6.71 6.71 0 0 0 0-3 3.72 3.72 0 0 0-2.85-3m.12 5.48v.17a1.49 1.49 0 0 1-1.61 1.25 1.51 1.51 0 0 1-1.55-1.42 11.08 11.08 0 0 1 0-1.91 1.52 1.52 0 0 1 1.65-1.54A1.53 1.53 0 0 1 49.25 8a8.49 8.49 0 0 1 .03 2.26zM6.64 4.74h-2V3.39c.15-1.27 2.25-1 2.25-1V.18c-.08 0-4.18-1-5 2.13a15.9 15.9 0 0 0-.12 2.41H0v2.41h1.86v6.5h2.71v-6.5h2.07l.24-2.39h-.24M13.11 5.88l-.1-.1a.36.36 0 0 0-.07-.07 2.83 2.83 0 0 0-1.38-1 3.45 3.45 0 0 0-4.39 2.4A7.65 7.65 0 0 0 7 10.73a3.5 3.5 0 0 0 4.47 3A2.73 2.73 0 0 0 13 12.7a1.1 1.1 0 0 0 .09-.14v1.14h2.64V4.75h-2.62v1.13m-.24 4.51a1.44 1.44 0 0 1-1.55 1.29 1.49 1.49 0 0 1-1.52-1.24 7.93 7.93 0 0 1 0-2.54 1.44 1.44 0 0 1 1.6-1.09 1.41 1.41 0 0 1 1.47 1.29 11 11 0 0 1 0 2.29zM23.82 13.06c-.12-.45-.26-.89-.4-1.32l-.12-.47s-3.3 1.59-3.83-1.43a6.35 6.35 0 0 1 0-1.51 1.62 1.62 0 0 1 1.6-1.51 3.16 3.16 0 0 1 .92 0c.41.06.81.19 1.26.3.16-.48.32-1 .47-1.43 0-.07 0-.14.06-.19l.07-.29a.34.34 0 0 0-.12-.12 2 2 0 0 0-.41-.19l-.25-.08h-.12a7 7 0 0 0-2.67-.18 3.8 3.8 0 0 0-3.57 3.2 7.15 7.15 0 0 0 0 3 3.6 3.6 0 0 0 2.67 2.86 6.66 6.66 0 0 0 2.88.14 9.85 9.85 0 0 0 1.41-.43h.16l-.08-.26M32.54 9.56a14.39 14.39 0 0 0-.09-1.86 3.31 3.31 0 0 0-2.9-3 7.79 7.79 0 0 0-1.93 0 3.53 3.53 0 0 0-3.35 2.89 10.68 10.68 0 0 0-.05 3 3.28 3.28 0 0 0 2.2 2.92 8.52 8.52 0 0 0 5.89-.34l-.1-.36c-.12-.49-.26-1-.39-1.46h-.14l-.32.1h-.06a13.15 13.15 0 0 1-1.49.31 7.69 7.69 0 0 1-1.44 0A1.43 1.43 0 0 1 27 10.24h5.56v-.68M30 8.34h-3.07a1.59 1.59 0 0 1 2.44-1.57c.63.33.63.92.63 1.57zM71.16 4.84h-3l-2.61 4.08V.01l-2.83.34V13.7h2.83V9.62l2.61 4.09h3l-2.83-4.44 2.83-4.43M58.82 4.78a5.71 5.71 0 0 0-3 0 3.57 3.57 0 0 0-2.78 2.81 9.85 9.85 0 0 0-.16 2.49A3.82 3.82 0 0 0 56 13.74H56.67a5.16 5.16 0 0 0 1.18 0H58a3.88 3.88 0 0 0 3.71-3.1 6.71 6.71 0 0 0 0-3 3.71 3.71 0 0 0-2.85-3m.12 5.48v.17a1.61 1.61 0 0 1-3.16-.17 11.08 11.08 0 0 1 0-1.91A1.61 1.61 0 0 1 58.91 8a8.49 8.49 0 0 1 .03 2.26z"/></g></g></svg>