<svg xmlns="http://www.w3.org/2000/svg" viewBox="0 0 85.4 16.68"><g data-name="Ebene 2"><g data-name="Ebene 1" fill="#92c01a"><path d="M47 5.54a3.57 3.57 0 0 0-3.34 1.38V0l-3.44.41v16h3.39v-.95a6.4 6.4 0 0 0 1.43.91 4.14 4.14 0 0 0 5.5-2.52 8.73 8.73 0 0 0 .13-5.16A4 4 0 0 0 47 5.54m.5 6.94a1.73 1.73 0 0 1-2 1.53 2.34 2.34 0 0 1-.68-.15 2.29 2.29 0 0 1-1.12-1.72 7.4 7.4 0 0 1 .25-3.06 1.93 1.93 0 0 1 3.52.61 9.66 9.66 0 0 1-.02 2.79zM59 5.74a6.79 6.79 0 0 0-3.55 0 4.28 4.28 0 0 0-3.34 3.36 11.15 11.15 0 0 0-.19 3 4.56 4.56 0 0 0 3.71 4.39H56.42a6.8 6.8 0 0 0 1.43 0h.07a4.66 4.66 0 0 0 4.47-3.71 8.1 8.1 0 0 0 0-3.6A4.46 4.46 0 0 0 59 5.74m.14 6.57v.21a1.93 1.93 0 0 1-3.79-.2 13.7 13.7 0 0 1 0-2.31 1.94 1.94 0 0 1 3.81-.4 10.12 10.12 0 0 1-.03 2.7zM8 5.68H5.55V4.07c.17-1.52 2.69-1.24 2.69-1.24V.21c-.09 0-5-1.19-6 2.56a19.75 19.75 0 0 0-.14 2.91H0v2.87h2.23v7.81h3.25V8.55H8l.28-2.87H8M15.73 7.05l-.12-.12-.08-.08a3.33 3.33 0 0 0-1.66-1.15A4.14 4.14 0 0 0 8.6 8.53a9.25 9.25 0 0 0-.19 4.34 4.19 4.19 0 0 0 5.36 3.66 3.2 3.2 0 0 0 1.85-1.29 1.15 1.15 0 0 0 .11-.17v1.37h3.17V5.69h-3.17v1.36m-.28 5.42A1.72 1.72 0 0 1 13.59 14a1.8 1.8 0 0 1-1.83-1.49 9.3 9.3 0 0 1 .06-3 1.71 1.71 0 0 1 1.86-1.31 1.68 1.68 0 0 1 1.76 1.54 13.3 13.3 0 0 1 .01 2.73zM28.59 15.67c-.15-.53-.32-1.07-.48-1.58l-.11-.57s-4 1.91-4.6-1.72a7.73 7.73 0 0 1 0-1.8 2 2 0 0 1 1.92-1.82 4.59 4.59 0 0 1 1.11.05c.49.08 1 .23 1.51.36.19-.57.38-1.14.56-1.71 0-.09.05-.17.07-.24l.09-.34s-.08-.09-.15-.14a1.73 1.73 0 0 0-.51-.23l-.29-.1h-.15a8.4 8.4 0 0 0-3.2-.21 4.56 4.56 0 0 0-4.29 3.84 8.67 8.67 0 0 0 0 3.55 4.32 4.32 0 0 0 3.21 3.42 7.92 7.92 0 0 0 3.46.16 10.28 10.28 0 0 0 1.68-.5l.2-.07-.09-.31M39.05 11.47a16.43 16.43 0 0 0-.11-2.22 4 4 0 0 0-3.49-3.61 8.93 8.93 0 0 0-2.31 0 4.22 4.22 0 0 0-4 3.47 12.47 12.47 0 0 0-.07 3.66 3.94 3.94 0 0 0 2.64 3.49 10.31 10.31 0 0 0 7.06-.41l-.12-.44c-.14-.59-.3-1.17-.46-1.75v-.05l-.17.05-.38.12h-.08a12.29 12.29 0 0 1-1.78.38 9.09 9.09 0 0 1-1.73 0 1.69 1.69 0 0 1-1.64-1.86h6.67v-.81M36 10h-3.68a2 2 0 0 1 .76-1.82 2 2 0 0 1 2.16-.06c.76.4.76 1.11.76 1.88zM85.4 5.81h-3.61l-3.13 4.89V.01l-3.4.41v16.02h3.4v-4.9l3.13 4.91h3.61L82 11.12l3.4-5.31M70.58 5.74a6.79 6.79 0 0 0-3.55 0A4.29 4.29 0 0 0 63.7 9.1a11.1 11.1 0 0 0-.19 3 4.57 4.57 0 0 0 3.71 4.4H68.01a6.82 6.82 0 0 0 1.43 0h.08A4.67 4.67 0 0 0 74 12.91a8.2 8.2 0 0 0 0-3.59 4.47 4.47 0 0 0-3.43-3.58m.15 6.57a1.55 1.55 0 0 0 0 .21 1.93 1.93 0 0 1-3.79-.2 12.73 12.73 0 0 1 0-2.31 1.93 1.93 0 0 1 3.8-.4 10.69 10.69 0 0 1 0 2.7z"/></g></g></svg>