<svg xmlns="http://www.w3.org/2000/svg" viewBox="0 0 572.25 695.2"><g data-name="Ebene 2"><g data-name="Ebene 1"><path fill="#fff" d="M232.26 620.05l-2.62-6.3-12.32 6.92-40.23-18.2 18.61-35.52-52.17-9.48-14.5 9.37-43.87-1.72-13.07 10.46-17.63-2.31.7 9.11-28.73 27.85-1.73 13.94-20.77 17.31L0 665.02l23.87-16.63 17.87 1.11-3.75 21.56 19.64 21.21 34.53-5.62 33.26-31.91 27.34 40.46 6.18-2.57-1.57-14.17 14.89-36.74 15.66 17.61 19.37-4.48 5.73 7.65 3.71-3.69-6.12-10.91 7.19-15.57 6.13 4.38 8.33-16.66z" opacity=".93"/><path fill="#fff" d="M363.01 563.6l-14.09-6.18-42.93 7.58-45.27 17.19-6.37-12.73-20.6.74-9.54 22.92-23.58-23.58-15.87 30.3 32.29 14.59 15.32-8.61 4.92 11.84 26.48 4.54 5.77-14.84 54.56-11.1 14.1 29.97 114.67 16.02 22.12-19.57 52.28-6.86 20.32-29.24-2.65-29.03 7.77-5.83 1.73-2.59-13.31-9.98-3.23-2.43 34.35-7.63-12.95-68.79-95.21-14.08-12.98 30.3-45.46-8.57-5.06 17.7h-14.25l-10.8 19.95-21.93 12.99 15.9 40.88-6.5 4.13zM442.74 258.27l-11.86-7.9-.57-.38-6.51-23.46 4.2-18.64-16.33-43.76-15.63-10V139.9l10.67-23.72-11.87-32.8-13.85-4.82-10.82-25.84-18.87-4.13-13.78-16.18-20.21-1.59-12.18 18.56-31.56 17.86-1.33 6.69-29.8 4.96-4.75-17.38 13.03-11.84-3.9-7.79-8.8 4.15-39.61-12.09 4.99-12.81-2.97-10.38-11.2-3.57-12.17 2.43L150.04 0l-4.83 1.72 14.14 35.67-12.28 1.94.66 5.19 8.8 2.51-.66 17.06 5.21 8.33 17.68 9.48-1.6 4.71-29.96-4.99-5.42 1.67-2.2 29.28-7.18-8.79-2.05 1.48-2.85 12.18-10.61-3.86-6.44-22.24-20.89 1.07-15.53 6.96-.94 15.96h8.93l-12.04 58.22H56.22l-1.14 8.36 15.16 3.3-17.35 29.57 3.81 5.14-1.67 5.37-12.54 7.52-16.35-2.58-11.57 7.49 9.51 16.64-3.67 30.28-7.21 8.01 16.75 42.74.5 3.24 14.95-1.43 18.47 10.34 5.07-14.47 21.68-9.93 11.26 1.61 10.64-7.6 15.25-11.8 5.04-2.52v-10.7l22.68-11.83 11.07 15.1v6.63l8.58 12-2.46 7.37 8.02 10.43-1.64 17.25 7.11 8.21 23.63-16.88 12.59-12.59 4.7-13.42-19.56-8.51 33.49-55.21 15.92 6.36 5.52 19.71 7.11-.71 19.33 16.81 27.36 4.97 7.79 7.79 21.41-19.83 29.61 7.17 17.86 20.27 22.88-14.33-1.42-11.38 10.34 1.03 14.98 11.89 4.73-15.58-1.7-26.58z" opacity=".93"/><path fill="#fff" opacity=".93" d="M362.17 555.29l-15.48-39.06 24.68-14.64 11.65-21.49 13.37-.01 4.08-14.27-15.8-11.86-34.78-27.82-22.6-28.02 3.43-16.29-10.59-11.4.57-1.59 2.9-18.69L338.49 340l14.58-1.83 34.99-21.9L372 298.05l-24.92-6.04-23.18 21.47-10.39-10.39-27.16-4.94-18.66-16.22-9.41.94-6.05-21.6-8.85-3.54-27.63 45.55 18.43 8.02-6.87 19.62-14.03 13.97L191 360.81l-5.42 20.9.79 20.66 5.23 15.68 11.87 4.45 15.82 4.94-2.88 9.6 15.58 21.31-2.81 15.88-6.67 9.17-6.28 25.15 4.06 13.81-2.59 31.02-10.38 14.97 14.94 14.94 7.72-18.53 21.43-.76 7.12 1.38 4.93 9.87 16.6-6.04 24.44-9.6 45.14-7.97 10.68 4.85 1.85-1.2z"/><path fill="#fff" opacity=".93" d="M214.55 522.94l-4.2-14.27 6.93-27.72 3.1-4.26-2.56-1.14-5 3.89v7.88l-9.85 4.38-21.03-2.74-5.65-8.08h-12.1l-12.6 4.2-29.67-4.49-5.58-17.44-33.51 82.1 3.59 14.35 41.08 1.62 14.85-9.62 58.93 10.71 1.96 1.96 8.94-12.88 2.37-28.45z"/><path fill="#fff" opacity=".93" d="M126.25 475.51l24.84 3.76 12.18-4.06h15.98l5.91 8.45 16.97 2.21 5.02-2.23v-6.98l9.87-7.68 6.77 3.01.03-.04 2.16-12.2-15.81-21.64 2.07-6.93-10.69-3.34-14.48-5.43-6.34-19.02-.85-22.29 4.47-17.26-11.17-12.88 1.66-17.45-8.5-11.04 2.5-7.5-7.95-11.13v-6.58l-7.1-9.68-15.31 7.99v10.77l-7.92 3.96-14.65 11.39-12.58 8.99-11.86-1.69-17.97 8.24L67 355.8l-22.83-12.79-12.85 1.23.54 3.53-12.5 25 16.24 17.95-5.34 15.08v.13l14.37 31.12 33.43 2.51 40.64 17.71 2.01.92 5.54 17.32z"/><g opacity=".94" fill="#92c01a"><path d="M94.09 610.1c2.21-.05 2.56 1.92 2.56 3.31l-1.8.17c0-.83-.11-1.8-.73-1.8s-.62.53-.62 1.24.73 1.8 1.44 2.84c.85 1.27 1.71 2.51 1.71 3.85 0 1.67-.54 3.15-2.54 3.15-2.36 0-2.67-1.79-2.67-3.64l1.8-.17c0 1 .1 2.12.87 2.12.54 0 .74-.59.74-1.37s-.78-1.83-1.47-2.89A7.38 7.38 0 0 1 91.7 613c0-1.34.66-2.86 2.39-2.9zM103.09 618.44v1.72s0 2.7-2.45 2.7-2.44-2.7-2.44-2.7v-7.36s0-2.7 2.44-2.7 2.45 2.7 2.45 2.7v1.72h-1.71v-1.72s.06-.91-.7-.91-.65.91-.65.91v7.36s0 .91.65.91.7-.91.7-.91v-1.72zM108.14 617.29h-1.43v5.43h-1.84v-12.48h1.84v5.16h1.43v-5.16H110v12.48h-1.83zM114.64 622.72h-1.43l-1.68-12.48h1.7l.73 6.49v.4h.14l.05-.4.78-6.49h1.33l.78 6.49.05.4h.14v-.4l.73-6.49h1.7L118 622.72h-1.43l-.85-5.91-.1-.73h-.07l-.1.73zM121.28 610.24h4.19v1.88h-2.36v3.28h1.7v2h-1.7v3.44h2.36v1.88h-4.19zM127.17 610.24H129v12.48h-1.84zM130.54 620.75l2.87-8.69h-2.47v-1.82h4.45v1.82l-2.92 8.84h2.92v1.82h-4.85z"/></g><g opacity=".4" fill="#999390"><path d="M276.93 558c0 .25 0 2.05-1.79 2.05s-1.8-1.8-1.8-2.05v-1a2.51 2.51 0 0 1 .7-1.81 2.42 2.42 0 0 1-.62-1.68v-.78c0-.23 0-2 1.72-2s1.72 1.74 1.72 2v.78a2.38 2.38 0 0 1-.63 1.68 2.47 2.47 0 0 1 .7 1.81zm-1.79-2.16c-.46 0-.49.52-.49 1.62s.1 1.36.49 1.36.48-.51.48-1.36c0-1.06-.02-1.58-.48-1.58zm0-4c-.3 0-.39.31-.4 1.26s.05 1.38.4 1.38.4-.42.4-1.38-.05-1.18-.4-1.18zM278.08 553.74v-.64c0-1.23.32-2.37 1.79-2.37s1.8 1 1.8 2.28c0 1.87-1.42 4.48-2.11 5.65h2.13V560H278v-1.33s2.22-3.32 2.28-5.56c0-.5-.05-1.12-.45-1.12s-.45.54-.45 1.12v.64z"/></g><g opacity=".4" fill="#999390"><path d="M99 536.72h-2v-1.34h3.39v1.35L99 544.54h-1.4zM101.35 537.26a1.77 1.77 0 1 1 3.52 0v5.22c0 .64-.08 2.16-1.76 2.16s-1.76-1.52-1.76-2.16v-.58h1.35c0 1.24 0 1.57.41 1.57s.41-.3.41-1v-1.73a1.23 1.23 0 0 1-.67.23c-1.38 0-1.5-1.42-1.5-1.93zm2.17-.4a.42.42 0 0 0-.41-.41.44.44 0 0 0-.41.41v2.66a.44.44 0 0 0 .41.41.41.41 0 0 0 .41-.37z"/></g><g opacity=".4" fill="#999390"><path d="M131 536.72h-2v-1.34h3.39v1.35l-1.39 7.81h-1.4zM136.94 542.59c0 .25 0 2-1.8 2s-1.79-1.8-1.79-2v-1.07a2.47 2.47 0 0 1 .7-1.81 2.39 2.39 0 0 1-.63-1.69v-.77c0-.23 0-2 1.72-2s1.72 1.74 1.72 2v.75a2.43 2.43 0 0 1-.62 1.69 2.51 2.51 0 0 1 .7 1.81zm-1.8-2.16c-.46 0-.48.52-.48 1.62s.1 1.36.48 1.36.49-.51.49-1.36c0-1.05-.03-1.62-.49-1.62zm0-4c-.3 0-.38.31-.4 1.26s0 1.38.4 1.38.4-.42.4-1.38-.05-1.22-.4-1.22z"/></g><g opacity=".4" fill="#999390"><path d="M196.89 542.59c0 .25 0 2-1.8 2s-1.79-1.8-1.79-2v-1.07a2.51 2.51 0 0 1 .69-1.81 2.43 2.43 0 0 1-.62-1.69v-.77c0-.23 0-2 1.72-2s1.72 1.74 1.72 2v.75a2.43 2.43 0 0 1-.62 1.69 2.51 2.51 0 0 1 .7 1.81zm-1.8-2.16c-.46 0-.49.52-.49 1.62s.1 1.36.49 1.36.49-.51.49-1.36c0-1.05-.03-1.62-.49-1.62zm0-4c-.3 0-.39.31-.4 1.26s.05 1.38.4 1.38.4-.42.4-1.38-.05-1.22-.4-1.22zM201.62 542.59c0 .25 0 2-1.79 2s-1.8-1.8-1.8-2v-1.07a2.51 2.51 0 0 1 .7-1.81 2.43 2.43 0 0 1-.62-1.69v-.77c0-.23 0-2 1.72-2s1.72 1.74 1.72 2v.75a2.39 2.39 0 0 1-.63 1.69 2.47 2.47 0 0 1 .7 1.81zm-1.79-2.16c-.46 0-.49.52-.49 1.62s.1 1.36.49 1.36.48-.51.48-1.36c0-1.05-.02-1.62-.48-1.62zm0-4c-.3 0-.39.31-.4 1.26s0 1.38.4 1.38.4-.42.4-1.38-.05-1.22-.4-1.22z"/></g><g opacity=".4" fill="#999390"><path d="M228.9 542.59c0 .25 0 2-1.79 2s-1.8-1.8-1.8-2v-1.07a2.51 2.51 0 0 1 .7-1.81 2.43 2.43 0 0 1-.62-1.69v-.77c0-.23 0-2 1.72-2s1.72 1.74 1.72 2v.75a2.43 2.43 0 0 1-.62 1.69 2.51 2.51 0 0 1 .69 1.81zm-1.79-2.16c-.46 0-.49.52-.49 1.62s.1 1.36.49 1.36.49-.51.49-1.36c0-1.05-.03-1.62-.49-1.62zm0-4c-.3 0-.39.31-.4 1.26s0 1.38.4 1.38.4-.42.4-1.38-.05-1.22-.4-1.22zM231.8 536.72h-2v-1.34h3.39v1.35l-1.35 7.81h-1.4z"/></g><g opacity=".4" fill="none"><path d="M276.93 542.59c0 .25 0 2-1.79 2s-1.8-1.8-1.8-2v-1.07a2.51 2.51 0 0 1 .7-1.81 2.43 2.43 0 0 1-.62-1.69v-.77c0-.23 0-2 1.72-2s1.72 1.74 1.72 2v.75a2.39 2.39 0 0 1-.63 1.69 2.47 2.47 0 0 1 .7 1.81zm-1.79-2.16c-.46 0-.49.52-.49 1.62s.1 1.36.49 1.36.48-.51.48-1.36c0-1.05-.02-1.62-.48-1.62zm0-4c-.3 0-.39.31-.4 1.26s.05 1.38.4 1.38.4-.42.4-1.38-.05-1.22-.4-1.22zM278.08 538.29v-.64c0-1.23.32-2.37 1.79-2.37s1.8 1 1.8 2.28c0 1.87-1.42 4.48-2.11 5.65h2.13v1.33H278v-1.33s2.22-3.32 2.28-5.56c0-.5-.05-1.12-.45-1.12s-.45.53-.45 1.12v.64z"/></g><g opacity=".4" fill="#999390"><path d="M325 542.59c0 .25 0 2-1.79 2s-1.8-1.8-1.8-2v-1.07a2.51 2.51 0 0 1 .7-1.81 2.44 2.44 0 0 1-.63-1.69v-.77c0-.23 0-2 1.73-2s1.72 1.74 1.72 2v.75a2.44 2.44 0 0 1-.63 1.69 2.51 2.51 0 0 1 .7 1.81zm-1.79-2.16c-.47 0-.49.52-.49 1.62s.1 1.36.49 1.36.48-.51.48-1.36c-.04-1.05-.06-1.62-.52-1.62zm0-4c-.3 0-.39.31-.4 1.26s.05 1.38.4 1.38.39-.42.39-1.38-.09-1.22-.43-1.22zM327.18 540.41v-1.13c1.12-.06 1-.47 1-1.63 0-.52 0-1.18-.42-1.18s-.39.32-.4 1.55h-1.32c0-1 0-2.74 1.72-2.74s1.74 1.74 1.74 2a3.16 3.16 0 0 1-.65 2.42 3.08 3.08 0 0 1 .78 2.52c0 .24-.07 2.44-1.75 2.44s-1.78-1.7-1.78-2.74h1.32c0 1.24.12 1.56.46 1.56s.42-.64.42-1.16c0-1.16.15-1.83-1-1.89z"/></g><g opacity=".4" fill="none"><path d="M131 521.26h-2v-1.33h3.39v1.35l-1.39 7.81h-1.4zM136.94 527.14c0 .24 0 2.05-1.8 2.05s-1.79-1.81-1.79-2.05v-1.08a2.47 2.47 0 0 1 .7-1.8 2.41 2.41 0 0 1-.63-1.69v-.77c0-.24 0-2 1.72-2s1.72 1.73 1.72 2v.77a2.45 2.45 0 0 1-.62 1.69 2.51 2.51 0 0 1 .7 1.8zm-1.8-2.16c-.46 0-.48.52-.48 1.62s.1 1.36.48 1.36.49-.51.49-1.36c0-1.1-.03-1.6-.49-1.6zm0-4c-.3 0-.38.32-.4 1.26s0 1.39.4 1.39.4-.43.4-1.39-.05-1.24-.4-1.24z"/></g><g opacity=".4" fill="none"><path d="M196.89 527.14c0 .24 0 2.05-1.8 2.05s-1.79-1.81-1.79-2.05v-1.08a2.5 2.5 0 0 1 .69-1.8 2.45 2.45 0 0 1-.62-1.69v-.77c0-.24 0-2 1.72-2s1.72 1.73 1.72 2v.77a2.45 2.45 0 0 1-.62 1.69 2.51 2.51 0 0 1 .7 1.8zm-1.8-2.16c-.46 0-.49.52-.49 1.62s.1 1.36.49 1.36.49-.51.49-1.36c0-1.1-.03-1.6-.49-1.6zm0-4c-.3 0-.39.32-.4 1.26s.05 1.39.4 1.39.4-.43.4-1.39-.05-1.24-.4-1.24zM201.62 527.14c0 .24 0 2.05-1.79 2.05s-1.8-1.81-1.8-2.05v-1.08a2.51 2.51 0 0 1 .7-1.8 2.45 2.45 0 0 1-.62-1.69v-.77c0-.24 0-2 1.72-2s1.72 1.73 1.72 2v.77a2.41 2.41 0 0 1-.63 1.69 2.47 2.47 0 0 1 .7 1.8zm-1.79-2.14c-.46 0-.49.52-.49 1.62s.1 1.36.49 1.36.48-.51.48-1.36c0-1.12-.02-1.62-.48-1.62zm0-4c-.3 0-.39.32-.4 1.26s0 1.39.4 1.39.4-.43.4-1.39-.05-1.26-.4-1.26z"/></g><g opacity=".4" fill="#999390"><path d="M196.89 511.68c0 .25 0 2.06-1.8 2.06s-1.79-1.81-1.79-2.06v-1.07a2.54 2.54 0 0 1 .69-1.81 2.42 2.42 0 0 1-.62-1.68v-.77c0-.24 0-2 1.72-2s1.72 1.73 1.72 2v.77a2.42 2.42 0 0 1-.62 1.68 2.55 2.55 0 0 1 .7 1.81zm-1.8-2.16c-.46 0-.49.53-.49 1.63s.1 1.35.49 1.35.49-.51.49-1.35c0-1.1-.03-1.63-.49-1.63zm0-4c-.3 0-.39.31-.4 1.26s.05 1.38.4 1.38.4-.42.4-1.38-.05-1.22-.4-1.22zM198.06 506.36a1.77 1.77 0 1 1 3.51 0v5.21c0 .65-.07 2.17-1.76 2.17s-1.75-1.52-1.75-2.17V511h1.34c0 1.23 0 1.57.41 1.57s.42-.3.42-1v-1.72a1.27 1.27 0 0 1-.68.22c-1.38 0-1.49-1.42-1.49-1.93zm2.17-.4a.43.43 0 0 0-.42-.41.45.45 0 0 0-.41.41v2.65a.45.45 0 0 0 .41.42.43.43 0 0 0 .42-.38z"/></g><g opacity=".4" fill="#999390"><path d="M228.9 511.68c0 .25 0 2.06-1.79 2.06s-1.8-1.81-1.8-2.06v-1.07a2.55 2.55 0 0 1 .7-1.81 2.42 2.42 0 0 1-.62-1.68v-.77c0-.24 0-2 1.72-2s1.72 1.73 1.72 2v.77a2.42 2.42 0 0 1-.62 1.68 2.54 2.54 0 0 1 .69 1.81zm-1.79-2.16c-.46 0-.49.53-.49 1.63s.1 1.35.49 1.35.49-.51.49-1.35c0-1.1-.03-1.63-.49-1.63zm0-4c-.3 0-.39.31-.4 1.26s0 1.38.4 1.38.4-.42.4-1.38-.05-1.22-.4-1.22zM230.08 506.36a1.77 1.77 0 1 1 3.51 0v5.21c0 .65-.07 2.17-1.76 2.17s-1.75-1.52-1.75-2.17V511h1.34c0 1.23 0 1.57.41 1.57s.41-.3.41-1v-1.72a1.22 1.22 0 0 1-.67.22c-1.38 0-1.49-1.42-1.49-1.93zm2.16-.4a.42.42 0 0 0-.41-.41.45.45 0 0 0-.41.41v2.65a.45.45 0 0 0 .41.42.41.41 0 0 0 .41-.38z"/></g><g opacity=".4" fill="#999390"><path d="M276.93 511.68c0 .25 0 2.06-1.79 2.06s-1.8-1.81-1.8-2.06v-1.07a2.55 2.55 0 0 1 .7-1.81 2.42 2.42 0 0 1-.62-1.68v-.77c0-.24 0-2 1.72-2s1.72 1.73 1.72 2v.77a2.38 2.38 0 0 1-.63 1.68 2.51 2.51 0 0 1 .7 1.81zm-1.79-2.16c-.46 0-.49.53-.49 1.63s.1 1.35.49 1.35.48-.51.48-1.35c0-1.1-.02-1.63-.48-1.63zm0-4c-.3 0-.39.31-.4 1.26s.05 1.38.4 1.38.4-.42.4-1.38-.05-1.22-.4-1.22zM280 513.74c-1.81 0-1.79-2-1.79-2v-5.4s0-2 1.79-2 1.8 2 1.8 2v5.4s-.03 2-1.8 2zm0-8.05c-.47 0-.45.67-.45.67v5.4s0 .67.45.67.45-.67.45-.67v-5.4s-.02-.67-.45-.67z"/></g><g opacity=".4" fill="#999390"><path d="M292.94 511.68c0 .25 0 2.06-1.79 2.06s-1.8-1.81-1.8-2.06v-1.07a2.55 2.55 0 0 1 .7-1.81 2.42 2.42 0 0 1-.62-1.68v-.77c0-.24 0-2 1.72-2s1.72 1.73 1.72 2v.77a2.38 2.38 0 0 1-.63 1.68 2.51 2.51 0 0 1 .7 1.81zm-1.79-2.16c-.46 0-.49.53-.49 1.63s.1 1.35.49 1.35.48-.51.48-1.35c0-1.1-.02-1.63-.48-1.63zm0-4c-.3 0-.39.31-.4 1.26s.05 1.38.4 1.38.4-.42.4-1.38-.05-1.22-.4-1.22zM293.91 506.46v-.86a1.91 1.91 0 0 0 1.44-1.12h.81v9.16h-1.35v-7.18z"/></g><g opacity=".4" fill="#999390"><path d="M115 490.36h-2V489h3.4v1.34l-1.4 7.85h-1.4zM119.08 490.36h-2V489h3.39v1.34l-1.34 7.82h-1.4z"/></g><g opacity=".4" fill="#999390"><path d="M163 490.36h-2V489h3.39v1.34l-1.34 7.82h-1.4zM165.42 491.93v-.63c0-1.24.32-2.37 1.79-2.37s1.8 1 1.8 2.28c0 1.87-1.42 4.47-2.11 5.65h2.1v1.33h-3.65v-1.33s2.22-3.32 2.28-5.56c0-.5 0-1.13-.45-1.13s-.45.54-.45 1.13v.63z"/></g><g opacity=".4" fill="#999390"><path d="M244.91 496.23c0 .25 0 2.06-1.79 2.06s-1.8-1.81-1.8-2.06v-1.07a2.55 2.55 0 0 1 .7-1.81 2.42 2.42 0 0 1-.62-1.68v-.77c0-.24 0-2 1.72-2s1.72 1.73 1.72 2v.77a2.42 2.42 0 0 1-.62 1.68 2.54 2.54 0 0 1 .69 1.81zm-1.79-2.15c-.46 0-.49.52-.49 1.62s.1 1.36.49 1.36.48-.52.48-1.36c0-1.1-.02-1.62-.48-1.62zm0-4c-.3 0-.39.31-.4 1.26s.05 1.38.4 1.38.4-.42.4-1.38-.05-1.23-.4-1.23zM249.65 496.31a1.77 1.77 0 1 1-3.51 0v-5.21c0-.65.07-2.17 1.75-2.17s1.76 1.52 1.76 2.17v.57h-1.35c0-1.23 0-1.57-.41-1.57s-.41.3-.41 1v1.63a1.27 1.27 0 0 1 .67-.22c1.39 0 1.5 1.42 1.5 1.93zm-1.76.81a.44.44 0 0 0 .41-.41V494a.44.44 0 0 0-.41-.41.42.42 0 0 0-.41.38v2.78a.42.42 0 0 0 .41.37z"/></g><g opacity=".4" fill="#999390"><path d="M292.94 496.23c0 .25 0 2.06-1.79 2.06s-1.8-1.81-1.8-2.06v-1.07a2.55 2.55 0 0 1 .7-1.81 2.42 2.42 0 0 1-.62-1.68v-.77c0-.24 0-2 1.72-2s1.72 1.73 1.72 2v.77a2.38 2.38 0 0 1-.63 1.68 2.51 2.51 0 0 1 .7 1.81zm-1.79-2.15c-.46 0-.49.52-.49 1.62s.1 1.36.49 1.36.48-.52.48-1.36c0-1.1-.02-1.62-.48-1.62zm0-4c-.3 0-.39.31-.4 1.26s.05 1.38.4 1.38.4-.42.4-1.38-.05-1.23-.4-1.23zM296 497.12c.29 0 .41-.3.41-1.22v-2c0-.37-.13-.67-.42-.67s-.52.46-.52.67h-1.17V489h3.26v1.33h-2.1v1.91a1.37 1.37 0 0 1 .77-.31c1.39 0 1.5 1.59 1.5 1.89v2c0 .84-.11 2.39-1.76 2.39s-1.76-1.55-1.76-2.77h1.35v.36c0 1.02.1 1.32.44 1.32z"/></g><g opacity=".4" fill="#999390"><path d="M341 496.23c0 .25 0 2.06-1.79 2.06s-1.8-1.81-1.8-2.06v-1.07a2.55 2.55 0 0 1 .7-1.81 2.43 2.43 0 0 1-.63-1.68v-.77c0-.24 0-2 1.73-2s1.72 1.73 1.72 2v.77a2.43 2.43 0 0 1-.63 1.68 2.55 2.55 0 0 1 .7 1.81zm-1.79-2.15c-.47 0-.49.52-.49 1.62s.1 1.36.49 1.36.48-.52.48-1.36c-.03-1.1-.05-1.62-.51-1.62zm0-4c-.3 0-.39.31-.4 1.26s.05 1.38.4 1.38.39-.42.39-1.38-.08-1.23-.42-1.23zM344 496.19h-2.08V495l2-6h1.35v6h.62v1.18h-.62v2H344zm-.93-1.18h.93v-3.14l-.08.27z"/></g><g opacity=".4" fill="#999390"><path d="M147 459.46h-2v-1.34h3.39v1.35l-1.39 7.82h-1.4zM151.24 466.21c.29 0 .41-.3.41-1.22v-2c0-.38-.14-.68-.42-.68s-.53.47-.53.68h-1.13v-4.83h3.25v1.34h-2.09v1.9a1.45 1.45 0 0 1 .77-.31c1.38 0 1.5 1.6 1.5 1.9v2c0 .85-.12 2.4-1.76 2.4s-1.76-1.55-1.76-2.77h1.35v.38c0 .91.1 1.21.41 1.21z"/></g><g opacity=".4" fill="#999390"><path d="M163 459.46h-2v-1.34h3.39v1.35l-1.34 7.82h-1.4zM167.25 467.39c-1.81 0-1.8-2-1.8-2V460s0-2 1.8-2 1.8 2 1.8 2v5.39s.01 2-1.8 2zm0-8.06c-.47 0-.45.68-.45.68v5.39s0 .68.45.68.45-.68.45-.68V460s.02-.67-.45-.67z"/></g><g opacity=".4" fill="#999390"><path d="M195 459.46h-2v-1.34h3.39v1.35l-1.35 7.82h-1.39zM198.46 463.15V462c1.12-.06 1-.47 1-1.63 0-.52 0-1.18-.43-1.18s-.38.32-.39 1.56h-1.33c0-1 0-2.75 1.72-2.75s1.75 1.74 1.75 2a3.2 3.2 0 0 1-.65 2.42 3.09 3.09 0 0 1 .77 2.52c0 .24-.06 2.45-1.74 2.45s-1.79-1.71-1.79-2.75h1.33c0 1.24.12 1.56.46 1.56s.42-.64.42-1.16c0-1.16.15-1.83-1-1.89z"/></g><g opacity=".4" fill="#999390"><path d="M353.42 460a1.77 1.77 0 1 1 3.51 0v5.21c0 .64-.07 2.17-1.76 2.17s-1.75-1.53-1.75-2.17v-.58h1.34c0 1.24 0 1.57.41 1.57s.41-.3.41-1v-1.7a1.3 1.3 0 0 1-.67.22c-1.38 0-1.49-1.42-1.49-1.93zm2.16-.4a.43.43 0 0 0-.41-.42.45.45 0 0 0-.41.42v2.65a.45.45 0 0 0 .41.41.41.41 0 0 0 .41-.37zM360.06 465.29H358v-1.18l2-6h1.34v6h.63v1.18h-.63v2h-1.23zm-.94-1.18h.94V461H360l-.07.27z"/></g><g opacity=".4" fill="#999390"><path d="M115 444h-2v-1.33h3.4V444l-1.4 7.83h-1.4zM120.93 450a1.77 1.77 0 1 1-3.52 0v-5.21c0-.65.08-2.17 1.76-2.17s1.76 1.52 1.76 2.17v.57h-1.35c0-1.23 0-1.57-.41-1.57s-.41.3-.41 1v1.63a1.33 1.33 0 0 1 .67-.22c1.39 0 1.5 1.42 1.5 1.93zm-1.76.81a.44.44 0 0 0 .41-.41v-2.74a.44.44 0 0 0-.41-.41.4.4 0 0 0-.41.37v2.78a.42.42 0 0 0 .41.36z"/></g><g opacity=".4" fill="#999390"><path d="M179 444h-2v-1.33h3.39V444l-1.34 7.81h-1.4zM181.26 444.65v-.86a1.91 1.91 0 0 0 1.44-1.12h.81v9.16h-1.35v-7.18z"/></g><g opacity=".4" fill="#999390"><path d="M321.39 444.55a1.77 1.77 0 1 1 3.52 0v5.21c0 .65-.07 2.17-1.76 2.17s-1.76-1.52-1.76-2.17v-.57h1.35c0 1.23 0 1.57.41 1.57s.41-.3.41-1V448a1.23 1.23 0 0 1-.67.23c-1.38 0-1.5-1.42-1.5-1.93zm2.17-.4a.42.42 0 0 0-.41-.41.45.45 0 0 0-.41.41v2.66a.45.45 0 0 0 .41.41.41.41 0 0 0 .41-.37zM327.2 447.69v-1.12c1.13-.06 1-.47 1-1.63 0-.52 0-1.18-.43-1.18s-.38.32-.4 1.55h-1.32c0-1 0-2.74 1.72-2.74s1.75 1.73 1.75 2a3.2 3.2 0 0 1-.65 2.42 3.08 3.08 0 0 1 .77 2.52c0 .24-.06 2.44-1.75 2.44s-1.78-1.7-1.78-2.74h1.32c0 1.23.13 1.56.46 1.56s.43-.64.43-1.16c0-1.16.15-1.83-1-1.9z"/></g><g opacity=".4" fill="#999390"><path d="M179 428.55h-2v-1.33h3.39v1.34l-1.34 7.82h-1.4zM183.13 434.39h-2.08v-1.19l2-6h1.35v6h.6v1.19h-.62v2h-1.24zm-.93-1.19h.93v-3.14h-.07l-.08.27z"/></g><g opacity=".4" fill="#999390"><path d="M241.35 429.1a1.77 1.77 0 1 1 3.51 0v5.21c0 .65-.07 2.17-1.75 2.17s-1.76-1.52-1.76-2.17v-.57h1.34c0 1.23 0 1.57.42 1.57s.41-.3.41-1v-1.72a1.27 1.27 0 0 1-.68.22c-1.38 0-1.49-1.42-1.49-1.93zm2.17-.4a.42.42 0 0 0-.41-.41.45.45 0 0 0-.42.41v2.66a.45.45 0 0 0 .42.41.42.42 0 0 0 .41-.38zM245.91 429.2v-.86a1.91 1.91 0 0 0 1.43-1.12h.81v9.16h-1.34v-7.18z"/></g><g opacity=".4" fill="#999390"><path d="M68.81 419.05a1.77 1.77 0 1 1-3.52 0v-5.21c0-.65.08-2.17 1.76-2.17s1.76 1.52 1.76 2.17v.57h-1.35c0-1.23 0-1.57-.41-1.57s-.41.3-.41 1v1.63a1.27 1.27 0 0 1 .67-.22c1.39 0 1.5 1.42 1.5 1.93zm-1.76.81a.44.44 0 0 0 .41-.41v-2.75a.44.44 0 0 0-.41-.41.42.42 0 0 0-.41.38v2.78a.42.42 0 0 0 .41.41zM73.57 419.05a1.77 1.77 0 1 1-3.51 0v-5.21c0-.65.07-2.17 1.75-2.17s1.76 1.52 1.76 2.17v.57h-1.35c0-1.23 0-1.57-.41-1.57s-.41.3-.41 1v1.63a1.27 1.27 0 0 1 .68-.22c1.38 0 1.49 1.42 1.49 1.93zm-1.76.81a.44.44 0 0 0 .41-.41v-2.75a.44.44 0 0 0-.41-.41.43.43 0 0 0-.41.38v2.78a.42.42 0 0 0 .41.41z"/></g><g opacity=".4" fill="#999390"><path d="M116.84 419.05a1.77 1.77 0 1 1-3.52 0v-5.21c0-.65.08-2.17 1.76-2.17s1.76 1.52 1.76 2.17v.57h-1.35c0-1.23 0-1.57-.41-1.57s-.41.3-.41 1v1.63a1.24 1.24 0 0 1 .67-.22c1.39 0 1.5 1.42 1.5 1.93zm-1.76.81a.44.44 0 0 0 .41-.41v-2.75a.44.44 0 0 0-.41-.41.42.42 0 0 0-.41.38v2.78a.42.42 0 0 0 .41.41zM119.76 413.1h-2v-1.33h3.39v1.34l-1.35 7.82h-1.39z"/></g><g opacity=".4" fill="#999390"><path d="M148.86 419.05a1.77 1.77 0 1 1-3.52 0v-5.21c0-.65.08-2.17 1.76-2.17s1.76 1.52 1.76 2.17v.57h-1.35c0-1.23 0-1.57-.41-1.57s-.41.3-.41 1v1.63a1.24 1.24 0 0 1 .67-.22c1.39 0 1.5 1.42 1.5 1.93zm-1.76.81a.44.44 0 0 0 .41-.41v-2.75a.44.44 0 0 0-.41-.41.41.41 0 0 0-.41.38v2.78a.42.42 0 0 0 .41.41zM150.05 413.65a1.77 1.77 0 1 1 3.52 0v5.21c0 .65-.07 2.17-1.76 2.17s-1.76-1.52-1.76-2.17v-.57h1.35c0 1.23 0 1.57.41 1.57s.41-.3.41-1v-1.72a1.23 1.23 0 0 1-.67.23c-1.38 0-1.5-1.43-1.5-1.94zm2.17-.4a.42.42 0 0 0-.41-.41.45.45 0 0 0-.41.41v2.66a.45.45 0 0 0 .41.41.41.41 0 0 0 .41-.38z"/></g><g opacity=".4" fill="#999390"><path d="M273.37 413.65a1.77 1.77 0 1 1 3.51 0v5.21c0 .65-.07 2.17-1.76 2.17s-1.75-1.52-1.75-2.17v-.57h1.34c0 1.23 0 1.57.41 1.57s.42-.3.42-1v-1.72a1.29 1.29 0 0 1-.68.23c-1.38 0-1.49-1.43-1.49-1.94zm2.17-.4a.43.43 0 0 0-.42-.41.45.45 0 0 0-.41.41v2.66a.45.45 0 0 0 .41.41.43.43 0 0 0 .42-.38zM280 421c-1.81 0-1.8-2-1.8-2v-5.4s0-2 1.8-2 1.79 2 1.79 2v5.4s0 2-1.79 2zm0-8c-.48 0-.45.67-.45.67v5.4s0 .67.45.67.44-.67.44-.67v-5.4s.02-.67-.44-.67z"/></g><g opacity=".4" fill="#999390"><path d="M305.39 413.65a1.77 1.77 0 1 1 3.51 0v5.21c0 .65-.07 2.17-1.76 2.17s-1.75-1.52-1.75-2.17v-.57h1.34c0 1.23 0 1.57.41 1.57s.42-.3.42-1v-1.72a1.29 1.29 0 0 1-.68.23c-1.38 0-1.49-1.43-1.49-1.94zm2.17-.4a.43.43 0 0 0-.42-.41.45.45 0 0 0-.41.41v2.66a.45.45 0 0 0 .41.41.43.43 0 0 0 .42-.38zM310.17 414.67V414c0-1.24.33-2.37 1.8-2.37s1.79 1 1.79 2.28c0 1.87-1.42 4.48-2.1 5.65h2.13v1.33h-3.65v-1.29s2.22-3.32 2.28-5.56c0-.5-.05-1.12-.45-1.12s-.45.53-.45 1.12v.63z"/></g><g opacity=".4" fill="#999390"><path d="M132.85 403.59a1.77 1.77 0 1 1-3.52 0v-5.21c0-.65.08-2.17 1.76-2.17s1.76 1.52 1.76 2.17v.62h-1.35c0-1.24 0-1.57-.41-1.57s-.41.29-.41 1V400a1.26 1.26 0 0 1 .67-.23c1.39 0 1.5 1.42 1.5 1.93zm-1.76.81a.44.44 0 0 0 .41-.41v-2.74a.44.44 0 0 0-.41-.41.41.41 0 0 0-.41.37V404a.42.42 0 0 0 .41.4zM137.61 403.52c0 .25 0 2.06-1.8 2.06s-1.79-1.81-1.79-2.06v-1.07a2.53 2.53 0 0 1 .7-1.81 2.43 2.43 0 0 1-.63-1.68v-.78c0-.23 0-2 1.72-2s1.73 1.74 1.73 2v.82a2.43 2.43 0 0 1-.63 1.68 2.53 2.53 0 0 1 .7 1.81zm-1.8-2.16c-.46 0-.48.53-.48 1.62s.1 1.36.48 1.36.49-.51.49-1.36c0-1.09-.02-1.62-.49-1.62zm0-4c-.29 0-.38.31-.39 1.26s.05 1.38.39 1.38.4-.42.4-1.38-.05-1.22-.4-1.22z"/></g><g opacity=".4" fill="#999390"><path d="M83.11 389c.29 0 .41-.3.41-1.23v-2c0-.37-.13-.67-.42-.67s-.52.46-.52.67h-1.14v-4.82h3.26v1.33h-2.1v1.91a1.37 1.37 0 0 1 .77-.31c1.39 0 1.5 1.59 1.5 1.89v2c0 .85-.11 2.4-1.76 2.4s-1.76-1.55-1.76-2.77h1.35v.36c0 .9.1 1.24.41 1.24zM87.9 389c.28 0 .41-.3.41-1.23v-2c0-.37-.14-.67-.42-.67s-.53.46-.53.67h-1.13v-4.82h3.25v1.33h-2.09v1.91a1.37 1.37 0 0 1 .77-.31c1.38 0 1.5 1.59 1.5 1.89v2c0 .85-.12 2.4-1.76 2.4s-1.76-1.55-1.76-2.77h1.35v.36c0 .9.1 1.24.41 1.24z"/></g><g opacity=".4" fill="#999390"><path d="M148.86 388.15a1.77 1.77 0 1 1-3.52 0v-5.21c0-.65.08-2.17 1.76-2.17s1.76 1.52 1.76 2.17v.57h-1.35c0-1.24 0-1.57-.41-1.57s-.41.3-.41 1v1.63a1.26 1.26 0 0 1 .67-.23c1.39 0 1.5 1.43 1.5 1.94zm-1.76.81a.44.44 0 0 0 .41-.41v-2.75a.44.44 0 0 0-.41-.41.41.41 0 0 0-.41.38v2.78a.42.42 0 0 0 .41.45zM151.94 388h-2.09v-1.18l2-6h1.35v6h.62V388h-.62v2h-1.23zm-.94-1.18h.94v-3.14h-.08l-.07.27z"/></g><g opacity=".4" fill="#999390"><path d="M209.33 382.75a1.77 1.77 0 1 1 3.51 0V388c0 .65-.07 2.17-1.75 2.17s-1.76-1.52-1.76-2.17v-.57h1.35c0 1.23 0 1.57.41 1.57s.41-.3.41-1v-1.72a1.27 1.27 0 0 1-.68.22c-1.38 0-1.49-1.42-1.49-1.93zm2.17-.4a.42.42 0 0 0-.41-.41.44.44 0 0 0-.41.41V385a.44.44 0 0 0 .41.42.42.42 0 0 0 .41-.38zM215.81 382.2h-2v-1.33h3.39v1.34l-1.36 7.79h-1.4z"/></g><g opacity=".4" fill="#999390"><path d="M35.08 373.5c.29 0 .42-.3.42-1.22v-2c0-.38-.14-.68-.43-.68s-.52.47-.52.68h-1.14v-4.83h3.26v1.34h-2.1v1.9a1.49 1.49 0 0 1 .78-.31c1.38 0 1.49 1.6 1.49 1.9v2c0 .85-.11 2.4-1.76 2.4s-1.75-1.55-1.75-2.77h1.34v.36c0 .93.1 1.23.41 1.23zM39.89 372.58h-2.08v-1.18l2-6h1.35v6h.62v1.18h-.62v2h-1.27zM39 371.4h.93v-3.14h-.07l-.07.27z"/></g><g opacity=".4" fill="#999390"><path d="M116.84 372.69a1.77 1.77 0 1 1-3.52 0v-5.21c0-.65.08-2.17 1.76-2.17s1.76 1.52 1.76 2.17v.58h-1.35c0-1.24 0-1.58-.41-1.58s-.41.3-.41 1v1.64a1.26 1.26 0 0 1 .67-.23c1.39 0 1.5 1.42 1.5 1.93zm-1.76.81a.44.44 0 0 0 .41-.41v-2.74a.44.44 0 0 0-.41-.41.42.42 0 0 0-.41.37v2.78a.42.42 0 0 0 .41.41zM119.89 373.5c.29 0 .42-.3.42-1.22v-2c0-.38-.14-.68-.43-.68s-.52.47-.52.68h-1.14v-4.83h3.26v1.34h-2.1v1.9a1.49 1.49 0 0 1 .77-.31c1.39 0 1.5 1.6 1.5 1.9v2c0 .85-.11 2.4-1.76 2.4s-1.75-1.55-1.75-2.77h1.34v.36c0 .93.1 1.23.41 1.23z"/></g><g opacity=".4" fill="#999390"><path d="M164.87 372.69a1.77 1.77 0 1 1-3.52 0v-5.21c0-.65.08-2.17 1.76-2.17s1.76 1.52 1.76 2.17v.58h-1.35c0-1.24 0-1.58-.41-1.58s-.41.3-.41 1v1.64a1.26 1.26 0 0 1 .67-.23c1.39 0 1.5 1.42 1.5 1.93zm-1.76.81a.44.44 0 0 0 .41-.41v-2.74a.44.44 0 0 0-.41-.41.41.41 0 0 0-.41.37v2.78a.42.42 0 0 0 .41.41zM167.11 370.44v-1.13c1.12-.06 1-.47 1-1.63 0-.52 0-1.18-.42-1.18s-.39.32-.4 1.56H166c0-1 0-2.75 1.72-2.75s1.75 1.74 1.75 2a3.2 3.2 0 0 1-.65 2.42 3.13 3.13 0 0 1 .77 2.52c0 .24-.06 2.45-1.75 2.45S166 373 166 371.93h1.32c0 1.24.13 1.56.46 1.56s.43-.64.43-1.16c0-1.16.15-1.83-1-1.89z"/></g><g opacity=".4" fill="#999390"><path d="M257.36 367.3a1.77 1.77 0 1 1 3.51 0v5.21c0 .64-.07 2.17-1.76 2.17s-1.75-1.53-1.75-2.17v-.58h1.34c0 1.24 0 1.57.41 1.57s.42-.3.42-1v-1.72a1.37 1.37 0 0 1-.68.22c-1.38 0-1.49-1.42-1.49-1.93zm2.17-.4a.43.43 0 0 0-.42-.42.45.45 0 0 0-.41.42v2.65a.45.45 0 0 0 .41.41.43.43 0 0 0 .42-.37zM265.68 372.69a1.77 1.77 0 1 1-3.51 0v-5.21c0-.65.07-2.17 1.76-2.17s1.75 1.52 1.75 2.17v.58h-1.34c0-1.24 0-1.58-.41-1.58s-.41.3-.41 1v1.64a1.23 1.23 0 0 1 .67-.23c1.38 0 1.49 1.42 1.49 1.93zm-1.75.81a.45.45 0 0 0 .41-.41v-2.74a.45.45 0 0 0-.41-.41.41.41 0 0 0-.41.37v2.78a.42.42 0 0 0 .41.41z"/></g><g opacity=".4" fill="#999390"><path d="M289.38 367.3a1.77 1.77 0 1 1 3.51 0v5.21c0 .64-.07 2.17-1.75 2.17s-1.76-1.53-1.76-2.17v-.58h1.34c0 1.24 0 1.57.42 1.57s.41-.3.41-1v-1.72a1.37 1.37 0 0 1-.68.22c-1.38 0-1.49-1.42-1.49-1.93zm2.17-.4a.43.43 0 0 0-.41-.42.45.45 0 0 0-.42.42v2.65a.45.45 0 0 0 .42.41.43.43 0 0 0 .41-.37zM296 373.5c.28 0 .41-.3.41-1.22v-2c0-.38-.14-.68-.43-.68s-.52.47-.52.68h-1.13v-4.83h3.25v1.34h-2.09v1.9a1.45 1.45 0 0 1 .77-.31c1.38 0 1.49 1.6 1.49 1.9v2c0 .85-.11 2.4-1.75 2.4s-1.76-1.55-1.76-2.77h1.35v.36c0 .93.09 1.23.41 1.23z"/></g><g opacity=".4" fill="#999390"><path d="M83.11 358.05c.29 0 .41-.29.41-1.22v-2c0-.38-.13-.68-.42-.68s-.52.47-.52.68h-1.14V350h3.26v1.34h-2.1v1.9a1.45 1.45 0 0 1 .77-.31c1.39 0 1.5 1.6 1.5 1.9v2c0 .85-.11 2.4-1.76 2.4s-1.76-1.55-1.76-2.77h1.35v.36c0 .94.1 1.23.41 1.23zM89.61 357.24a1.77 1.77 0 1 1-3.52 0V352c0-.64.08-2.17 1.76-2.17s1.76 1.53 1.76 2.17v.58h-1.35c0-1.24 0-1.57-.41-1.57s-.41.29-.41 1v1.64a1.23 1.23 0 0 1 .67-.23c1.38 0 1.5 1.42 1.5 1.93zm-1.76.81a.43.43 0 0 0 .41-.41v-2.74a.44.44 0 0 0-.41-.41.41.41 0 0 0-.41.37v2.78a.42.42 0 0 0 .41.41z"/></g><g opacity=".4" fill="#999390"><path d="M148.86 357.24a1.77 1.77 0 1 1-3.52 0V352c0-.64.08-2.17 1.76-2.17s1.76 1.53 1.76 2.17v.58h-1.35c0-1.24 0-1.57-.41-1.57s-.41.29-.41 1v1.64a1.26 1.26 0 0 1 .67-.23c1.39 0 1.5 1.42 1.5 1.93zm-1.76.81a.43.43 0 0 0 .41-.41v-2.74a.44.44 0 0 0-.41-.41.41.41 0 0 0-.41.37v2.78a.42.42 0 0 0 .41.41zM149.85 352v-.86a1.91 1.91 0 0 0 1.44-1.13h.81v9.17h-1.35V352z"/></g><g opacity=".4" fill="#999390"><path d="M241.35 336.39a1.77 1.77 0 1 1 3.51 0v5.21c0 .65-.07 2.17-1.75 2.17s-1.76-1.52-1.76-2.17v-.6h1.34c0 1.23 0 1.57.42 1.57s.41-.3.41-1v-1.72a1.29 1.29 0 0 1-.68.23c-1.38 0-1.49-1.42-1.49-1.94zm2.17-.4a.42.42 0 0 0-.41-.41.45.45 0 0 0-.42.41v2.66a.45.45 0 0 0 .42.41.42.42 0 0 0 .41-.37zM249.68 341.71c0 .25 0 2.06-1.8 2.06s-1.79-1.81-1.79-2.06v-1.07a2.54 2.54 0 0 1 .69-1.81 2.42 2.42 0 0 1-.62-1.68v-.77c0-.24 0-2 1.72-2s1.72 1.73 1.72 2v.77a2.42 2.42 0 0 1-.62 1.68 2.55 2.55 0 0 1 .7 1.81zm-1.8-2.15c-.46 0-.49.52-.49 1.62s.1 1.36.49 1.36.49-.51.49-1.36c0-1.1-.03-1.62-.49-1.62zm0-4c-.3 0-.39.31-.4 1.26s.05 1.39.4 1.39.4-.43.4-1.39-.05-1.23-.4-1.23z"/></g><g opacity=".4" fill="#999390"><path d="M51.09 327.15c.29 0 .41-.3.41-1.22v-2.05c0-.37-.13-.67-.42-.67s-.52.46-.52.67h-1.14v-4.82h3.26v1.33h-2.1v1.91a1.41 1.41 0 0 1 .77-.31c1.39 0 1.5 1.59 1.5 1.89v2.05c0 .84-.11 2.39-1.76 2.39s-1.76-1.55-1.76-2.77h1.35v.36c0 .94.1 1.24.41 1.24zM55.07 324.08V323c1.12-.06 1-.48 1-1.63 0-.53 0-1.19-.42-1.19s-.39.33-.4 1.56H54c0-1 0-2.74 1.72-2.74s1.74 1.73 1.74 2a3.17 3.17 0 0 1-.65 2.42 3.08 3.08 0 0 1 .77 2.52c0 .23-.06 2.44-1.74 2.44s-1.84-1.77-1.84-2.8h1.32c0 1.23.12 1.55.46 1.55s.42-.63.42-1.15c0-1.16.15-1.84-1-1.9z"/></g><g opacity=".4" fill="#999390"><path d="M146.34 324.08V323c1.12-.06 1-.48 1-1.63 0-.53 0-1.19-.42-1.19s-.39.33-.4 1.56h-1.32c0-1 0-2.74 1.72-2.74s1.74 1.73 1.74 2a3.22 3.22 0 0 1-.64 2.42 3.08 3.08 0 0 1 .78 2.52c0 .23-.07 2.44-1.75 2.44s-1.78-1.71-1.78-2.74h1.32c0 1.23.12 1.55.46 1.55s.42-.63.42-1.15c0-1.16.15-1.84-1-1.9zM151.82 327.15c.29 0 .42-.3.42-1.22v-2.05c0-.37-.14-.67-.43-.67s-.52.46-.52.67h-1.14v-4.82h3.26v1.33h-2.1v1.91a1.41 1.41 0 0 1 .78-.31c1.38 0 1.49 1.59 1.49 1.89v2.05c0 .84-.11 2.39-1.76 2.39s-1.75-1.55-1.75-2.77h1.34v.36c0 .94.1 1.24.41 1.24z"/></g><g opacity=".4" fill="#999390"><path d="M194.37 324.08V323c1.12-.06 1-.48 1-1.63 0-.53 0-1.19-.42-1.19s-.39.33-.4 1.56h-1.32c0-1 0-2.74 1.72-2.74s1.74 1.73 1.74 2a3.22 3.22 0 0 1-.65 2.42 3.08 3.08 0 0 1 .77 2.52c0 .23-.06 2.44-1.74 2.44s-1.78-1.71-1.78-2.74h1.32c0 1.23.12 1.55.46 1.55s.42-.63.42-1.15c0-1.16.15-1.84-1-1.9zM201.56 326.34a1.77 1.77 0 1 1-3.52 0v-5.21c0-.65.08-2.17 1.76-2.17s1.76 1.52 1.76 2.17v.57h-1.35c0-1.23 0-1.57-.41-1.57s-.41.3-.41 1v1.63a1.26 1.26 0 0 1 .67-.23c1.39 0 1.5 1.43 1.5 1.94zm-1.76.81a.44.44 0 0 0 .41-.41V324a.44.44 0 0 0-.41-.41.42.42 0 0 0-.41.38v2.78a.42.42 0 0 0 .41.4z"/></g><g opacity=".4" fill="#999390"><path d="M291.23 328.32c-1.8 0-1.79-2-1.79-2v-5.4s0-2 1.79-2 1.8 2 1.8 2v5.4s-.03 2-1.8 2zm0-8.05c-.47 0-.44.67-.44.67v5.4s0 .67.44.67.45-.67.45-.67v-5.4s.03-.67-.45-.67zM296 320.39h-2v-1.33h3.39v1.34l-1.39 7.82h-1.39z"/></g><g opacity=".4" fill="#999390"><path d="M323.25 328.32c-1.81 0-1.79-2-1.79-2v-5.4s0-2 1.79-2 1.8 2 1.8 2v5.4s.01 2-1.8 2zm0-8.05c-.47 0-.45.67-.45.67v5.4s0 .67.45.67.45-.67.45-.67v-5.4s.03-.67-.45-.67zM329.87 326.26c0 .25 0 2.06-1.79 2.06s-1.8-1.81-1.8-2.06v-1.07a2.55 2.55 0 0 1 .7-1.81 2.42 2.42 0 0 1-.62-1.68v-.77c0-.24 0-2 1.72-2s1.72 1.73 1.72 2v.77a2.38 2.38 0 0 1-.63 1.68 2.51 2.51 0 0 1 .7 1.81zm-1.79-2.16c-.46 0-.49.53-.49 1.63s.1 1.35.49 1.35.48-.51.48-1.35c0-1.1-.02-1.63-.48-1.63zm0-4c-.3 0-.39.31-.4 1.26s.05 1.38.4 1.38.39-.42.39-1.38-.04-1.22-.39-1.22z"/></g><g opacity=".4" fill="#999390"><path d="M35.08 311.7c.29 0 .42-.3.42-1.22v-2.05c0-.37-.14-.67-.43-.67s-.52.46-.52.67h-1.14v-4.82h3.26v1.33h-2.1v1.91a1.41 1.41 0 0 1 .78-.31c1.38 0 1.49 1.59 1.49 1.89v2.05c0 .84-.11 2.39-1.76 2.39s-1.75-1.55-1.75-2.77h1.34v.36c0 .94.1 1.24.41 1.24zM38 306.51v-.63c0-1.24.32-2.37 1.79-2.37s1.8 1 1.8 2.28c0 1.87-1.42 4.47-2.11 5.65h2.13v1.33H38v-1.33s2.22-3.32 2.28-5.56c0-.5-.05-1.13-.45-1.13s-.45.54-.45 1.13v.63z"/></g><g opacity=".4" fill="#999390"><path d="M51.09 311.7c.29 0 .41-.3.41-1.22v-2.05c0-.37-.13-.67-.42-.67s-.52.46-.52.67h-1.14v-4.82h3.26v1.33h-2.1v1.91a1.41 1.41 0 0 1 .77-.31c1.39 0 1.5 1.59 1.5 1.89v2.05c0 .84-.11 2.39-1.76 2.39s-1.76-1.55-1.76-2.77h1.35v.36c0 .94.1 1.24.41 1.24zM55.88 312.87c-1.81 0-1.8-2-1.8-2v-5.4s0-2 1.8-2 1.79 2 1.79 2v5.4s.02 2-1.79 2zm0-8.05c-.47 0-.45.67-.45.67v5.4s0 .67.45.67.45-.67.45-.67v-5.4s.02-.67-.45-.67z"/></g><g opacity=".4" fill="#999390"><path d="M355.27 312.87c-1.8 0-1.79-2-1.79-2v-5.4s0-2 1.79-2 1.8 2 1.8 2v5.4s.01 2-1.8 2zm0-8.05c-.47 0-.45.67-.45.67v5.4s0 .67.45.67.45-.67.45-.67v-5.4s.03-.67-.45-.67zM358.33 305.49a1.77 1.77 0 1 1 3.51 0v5.21c0 .65-.07 2.17-1.76 2.17s-1.75-1.52-1.75-2.17v-.57h1.34c0 1.23 0 1.57.41 1.57s.42-.3.42-1V309a1.27 1.27 0 0 1-.68.22c-1.38 0-1.49-1.42-1.49-1.93zm2.17-.4a.43.43 0 0 0-.42-.41.45.45 0 0 0-.41.41v2.65a.45.45 0 0 0 .41.42.43.43 0 0 0 .42-.38z"/></g><g opacity=".4" fill="#999390"><path d="M115.13 296.24c.29 0 .41-.29.41-1.22v-2c0-.38-.13-.67-.42-.67s-.52.46-.52.67h-1.14v-4.83h3.26v1.34h-2.1v1.91a1.43 1.43 0 0 1 .77-.32c1.39 0 1.5 1.6 1.5 1.9v2c0 .85-.11 2.4-1.76 2.4s-1.76-1.55-1.76-2.77h1.35v.35c0 1 .1 1.24.41 1.24zM119.78 289.49h-2v-1.34h3.39v1.35l-1.34 7.82h-1.4z"/></g><g opacity=".4" fill="#999390"><path d="M241.35 290a1.77 1.77 0 1 1 3.51 0v5.21c0 .65-.07 2.17-1.75 2.17s-1.76-1.52-1.76-2.17v-.58h1.34c0 1.24 0 1.57.42 1.57s.41-.29.41-1v-1.72a1.37 1.37 0 0 1-.68.22c-1.38 0-1.49-1.42-1.49-1.93zm2.17-.4a.42.42 0 0 0-.41-.41.44.44 0 0 0-.42.41v2.65a.45.45 0 0 0 .42.41.42.42 0 0 0 .41-.37zM246.11 290a1.77 1.77 0 1 1 3.52 0v5.21c0 .65-.08 2.17-1.76 2.17s-1.76-1.52-1.76-2.17v-.58h1.35c0 1.24 0 1.57.41 1.57s.41-.29.41-1v-1.72a1.33 1.33 0 0 1-.67.22c-1.39 0-1.5-1.42-1.5-1.93zm2.17-.4a.42.42 0 0 0-.41-.41.43.43 0 0 0-.41.41v2.65a.44.44 0 0 0 .41.41.42.42 0 0 0 .41-.37z"/></g><g opacity=".4" fill="#999390"><path d="M35.11 279.87H33v-1.18l2-6h1.34v6H37v1.18h-.63v2h-1.26zm-.94-1.18h.94v-3.14H35l-.07.27zM37.69 274.69v-.86a1.91 1.91 0 0 0 1.43-1.13h.81v9.17h-1.34v-7.18z"/></g><g opacity=".4" fill="#999390"><path d="M51.12 279.87H49v-1.18l2-6h1.34v6H53v1.18h-.62v2h-1.26zm-.94-1.18h.94v-3.14H51l-.07.27zM55.75 282C54 282 54 280 54 280v-5.39s0-2 1.79-2 1.8 2 1.8 2V280s-.03 2-1.84 2zm0-8.06c-.47 0-.44.68-.44.68V280s0 .68.44.68.45-.68.45-.68v-5.39s.03-.7-.45-.7z"/></g><g opacity=".4" fill="#999390"><path d="M67.13 279.87h-2.08v-1.18l2-6h1.34v6H69v1.18h-.62v2h-1.25zm-.94-1.18h.94v-3.14h-.08l-.07.27zM69.93 275.61V275c0-1.23.33-2.37 1.8-2.37s1.79 1 1.79 2.29c0 1.87-1.42 4.47-2.1 5.64h2.13v1.34h-3.66v-1.34s2.22-3.31 2.29-5.56c0-.5-.05-1.12-.45-1.12s-.45.54-.45 1.12v.64z"/></g><g opacity=".4" fill="#999390"><path d="M99.12 280.79c.29 0 .41-.29.41-1.22v-2c0-.38-.13-.68-.42-.68s-.52.47-.52.68h-1.14v-4.87h3.26v1.3h-2.1v1.9a1.45 1.45 0 0 1 .77-.31c1.39 0 1.5 1.6 1.5 1.9v2c0 .85-.11 2.4-1.76 2.4s-1.76-1.55-1.76-2.77h1.35v.36c0 1.02.1 1.31.41 1.31zM105.62 279.91c0 .25 0 2.06-1.8 2.06s-1.79-1.81-1.79-2.06v-1.07a2.52 2.52 0 0 1 .69-1.81 2.42 2.42 0 0 1-.62-1.68v-.78c0-.23 0-2 1.72-2s1.72 1.74 1.72 2v.78a2.42 2.42 0 0 1-.62 1.68 2.53 2.53 0 0 1 .7 1.81zm-1.8-2.16c-.46 0-.48.53-.48 1.62s.09 1.36.48 1.36.49-.51.49-1.36c0-1.09-.03-1.62-.49-1.62zm0-4c-.3 0-.39.31-.4 1.26s0 1.38.4 1.38.4-.42.4-1.38-.05-1.22-.4-1.22z"/></g><g opacity=".4" fill="#999390"><path d="M178.36 277.73v-1.12c1.12-.07 1-.48 1-1.64 0-.52 0-1.18-.42-1.18s-.39.32-.4 1.56h-1.32c0-1 0-2.75 1.72-2.75s1.74 1.74 1.74 2a3.21 3.21 0 0 1-.64 2.42 3.09 3.09 0 0 1 .77 2.52c0 .24-.06 2.45-1.74 2.45s-1.78-1.71-1.78-2.75h1.32c0 1.24.12 1.56.46 1.56s.42-.63.42-1.16c0-1.16.15-1.83-1-1.89zM183.87 279.87h-2.08v-1.18l2-6h1.34v6h.63v1.18h-.63v2h-1.23zm-.94-1.18h.94v-3.14h-.08l-.07.27z"/></g><g opacity=".4" fill="#999390"><path d="M387.29 282c-1.81 0-1.79-2-1.79-2v-5.39s0-2 1.79-2 1.8 2 1.8 2V280s.01 2-1.8 2zm0-8.06c-.47 0-.45.68-.45.68V280s0 .68.45.68.45-.68.45-.68v-5.39s.02-.7-.45-.7zM390.14 274.69v-.86a1.91 1.91 0 0 0 1.44-1.13h.81v9.17H391v-7.18z"/></g><g opacity=".4" fill="#999390"><path d="M35.11 264.42H33v-1.19l2-6h1.34v6H37v1.19h-.63v2h-1.26zm-.94-1.19h.94v-3.14H35l-.07.28zM39.61 258.58h-2v-1.33H41v1.35l-1.35 7.81h-1.41z"/></g><g opacity=".4" fill="#999390"><path d="M83.14 264.42h-2.08v-1.19l2-6h1.35v6H85v1.19h-.62v2h-1.24zm-.94-1.19h.94v-3.14h-.08l-.07.28zM87.8 264.42h-2.08v-1.19l2-6H89v6h.63v1.19H89v2h-1.2zm-.94-1.19h.94v-3.14h-.08l-.07.28z"/></g><g opacity=".4" fill="#999390"><path d="M210.38 262.27v-1.12c1.12-.06 1-.47 1-1.63 0-.53 0-1.19-.43-1.19s-.38.33-.39 1.56h-1.33c0-1 0-2.74 1.72-2.74s1.75 1.73 1.75 2a3.2 3.2 0 0 1-.65 2.42 3.08 3.08 0 0 1 .77 2.52c0 .24-.06 2.44-1.74 2.44s-1.79-1.71-1.79-2.74h1.33c0 1.23.12 1.56.46 1.56s.42-.64.42-1.16c0-1.16.15-1.83-1-1.9zM215.7 258.58h-2v-1.33h3.39v1.35l-1.35 7.81h-1.4z"/></g><g opacity=".4" fill="#999390"><path d="M291.23 266.51c-1.8 0-1.79-2-1.79-2v-5.4s0-2 1.79-2 1.8 2 1.8 2v5.4s-.03 2-1.8 2zm0-8.05c-.47 0-.44.67-.44.67v5.4s0 .67.44.67.45-.67.45-.67v-5.4s.03-.67-.45-.67zM297.85 264.53a1.77 1.77 0 1 1-3.51 0v-5.21c0-.65.07-2.17 1.76-2.17s1.75 1.52 1.75 2.17v.57h-1.34c0-1.23 0-1.57-.41-1.57s-.42.3-.42 1V261a1.27 1.27 0 0 1 .68-.22c1.38 0 1.49 1.42 1.49 1.93zm-1.75.81a.45.45 0 0 0 .41-.41v-2.74a.45.45 0 0 0-.41-.42.43.43 0 0 0-.42.38v2.78a.43.43 0 0 0 .42.41z"/></g><g opacity=".4" fill="#999390"><path d="M339.26 266.51c-1.81 0-1.79-2-1.79-2v-5.4s0-2 1.79-2 1.8 2 1.8 2v5.4s.01 2-1.8 2zm0-8.05c-.47 0-.45.67-.45.67v5.4s0 .67.45.67.45-.67.45-.67v-5.4s.03-.67-.45-.67zM344.2 264.42h-2.08v-1.19l2-6h1.34v6h.63v1.19h-.63v2h-1.26zm-.94-1.19h.94v-3.14h-.08l-.07.28z"/></g><g opacity=".4" fill="#999390"><path d="M419.31 266.51c-1.81 0-1.79-2-1.79-2v-5.4s0-2 1.79-2 1.8 2 1.8 2v5.4s.01 2-1.8 2zm0-8.05c-.47 0-.45.67-.45.67v5.4s0 .67.45.67.45-.67.45-.67v-5.4s.02-.67-.45-.67zM422.39 260.15v-.63c0-1.24.32-2.37 1.79-2.37s1.8 1 1.8 2.28c0 1.87-1.42 4.48-2.11 5.65H426v1.33h-3.65v-1.33s2.22-3.32 2.28-5.56c0-.5-.05-1.12-.45-1.12s-.45.53-.45 1.12v.63z"/></g><g opacity=".4" fill="#999390"><path d="M51.12 249H49v-1.18l2-6h1.34v6H53V249h-.62v2h-1.26zm-.94-1.18h.94v-3.15H51l-.07.28zM57.46 249.08a1.77 1.77 0 1 1-3.51 0v-5.21c0-.65.07-2.17 1.75-2.17s1.76 1.52 1.76 2.17v.57h-1.34c0-1.23 0-1.57-.42-1.57s-.41.3-.41 1v1.63a1.37 1.37 0 0 1 .68-.22c1.38 0 1.49 1.42 1.49 1.93zm-1.76.81a.45.45 0 0 0 .42-.41v-2.74a.45.45 0 0 0-.42-.41.43.43 0 0 0-.41.37v2.78a.42.42 0 0 0 .41.41z"/></g><g opacity=".4" fill="#999390"><path d="M67.13 249h-2.08v-1.18l2-6h1.34v6H69V249h-.62v2h-1.25zm-.94-1.18h.94v-3.15h-.08l-.07.28zM71.76 249.89c.29 0 .42-.3.42-1.22v-2c0-.38-.14-.68-.43-.68s-.52.46-.52.68h-1.14v-4.87h3.26v1.34h-2.1V245a1.49 1.49 0 0 1 .78-.31c1.38 0 1.49 1.6 1.49 1.9v2c0 .85-.11 2.39-1.76 2.39S70 249.52 70 248.3h1.34v.36c.01.93.11 1.23.42 1.23z"/></g><g opacity=".4" fill="#999390"><path d="M115.13 249.89c.29 0 .41-.3.41-1.22v-2c0-.38-.13-.68-.42-.68s-.52.46-.52.68h-1.14v-4.87h3.26v1.34h-2.1V245a1.45 1.45 0 0 1 .77-.31c1.39 0 1.5 1.6 1.5 1.9v2c0 .85-.11 2.39-1.76 2.39s-1.76-1.54-1.76-2.76h1.35v.36c0 1.01.1 1.31.41 1.31zM118.06 243.68a1.77 1.77 0 1 1 3.52 0v5.22c0 .64-.08 2.16-1.76 2.16s-1.76-1.52-1.76-2.16v-.58h1.35c0 1.24 0 1.57.41 1.57s.41-.3.41-1v-1.73a1.26 1.26 0 0 1-.67.23c-1.39 0-1.5-1.42-1.5-1.93zm2.17-.4a.42.42 0 0 0-.41-.41.44.44 0 0 0-.41.41v2.66a.44.44 0 0 0 .41.41.42.42 0 0 0 .41-.37z"/></g><g opacity=".4" fill="#999390"><path d="M146.34 246.83v-1.13c1.12-.06 1-.47 1-1.63 0-.52 0-1.18-.42-1.18s-.39.32-.4 1.55h-1.32c0-1 0-2.74 1.72-2.74s1.74 1.74 1.74 2a3.21 3.21 0 0 1-.64 2.42 3.08 3.08 0 0 1 .78 2.52c0 .24-.07 2.44-1.75 2.44s-1.78-1.7-1.78-2.74h1.32c0 1.24.12 1.56.46 1.56s.42-.64.42-1.16c0-1.16.15-1.83-1-1.89zM151 246.83v-1.13c1.13-.06 1-.47 1-1.63 0-.52 0-1.18-.43-1.18s-.38.32-.4 1.55h-1.32c0-1 0-2.74 1.72-2.74s1.75 1.74 1.75 2a3.2 3.2 0 0 1-.65 2.42 3.08 3.08 0 0 1 .77 2.52c0 .24-.06 2.44-1.75 2.44s-1.78-1.7-1.78-2.74h1.32c0 1.24.13 1.56.46 1.56s.43-.64.43-1.16c0-1.16.15-1.83-1-1.89z"/></g><g opacity=".4" fill="#999390"><path d="M403.3 235.61c-1.81 0-1.8-2-1.8-2v-5.4s0-2 1.8-2 1.8 2 1.8 2v5.4s.01 2-1.8 2zm0-8.05c-.47 0-.45.67-.45.67v5.4s0 .67.45.67.45-.67.45-.67v-5.4s.02-.67-.45-.67zM407.4 231.37v-1.12c1.12-.06 1-.48 1-1.63 0-.53 0-1.19-.42-1.19s-.39.33-.4 1.56h-1.32c0-1 0-2.74 1.72-2.74s1.74 1.73 1.74 2a3.22 3.22 0 0 1-.64 2.42 3.08 3.08 0 0 1 .78 2.52c0 .23-.07 2.44-1.75 2.44s-1.78-1.71-1.78-2.74h1.32c0 1.23.12 1.55.46 1.55s.42-.63.42-1.15c0-1.16.15-1.84-1-1.9z"/></g><g opacity=".4" fill="#999390"><path d="M83.14 218.06h-2.08v-1.18l2-6h1.35v6H85v1.18h-.62v2h-1.24zm-.94-1.18h.94v-3.14h-.08L83 214zM89.58 218.1c0 .25 0 2.06-1.8 2.06S86 218.35 86 218.1V217a2.53 2.53 0 0 1 .7-1.81 2.43 2.43 0 0 1-.63-1.68v-.78c0-.23 0-2 1.72-2s1.72 1.74 1.72 2v.78a2.42 2.42 0 0 1-.62 1.68 2.53 2.53 0 0 1 .7 1.81zm-1.8-2.16c-.46 0-.48.53-.48 1.62s.1 1.36.48 1.36.49-.51.49-1.36c0-1.09-.02-1.62-.49-1.62zm0-4c-.3 0-.38.31-.39 1.26s0 1.38.39 1.38.4-.42.4-1.38-.05-1.2-.4-1.2z"/></g><g opacity=".4" fill="#999390"><path d="M210.38 215.92v-1.12c1.12-.07 1-.48 1-1.64 0-.52 0-1.18-.43-1.18s-.38.32-.39 1.56h-1.33c0-1 0-2.75 1.72-2.75s1.75 1.74 1.75 2a3.2 3.2 0 0 1-.65 2.42 3.09 3.09 0 0 1 .77 2.52c0 .24-.06 2.45-1.74 2.45s-1.79-1.71-1.79-2.75h1.33c0 1.24.12 1.56.46 1.56s.42-.63.42-1.16c0-1.16.15-1.83-1-1.89zM213.8 212.88V212a1.91 1.91 0 0 0 1.44-1.13h.81v9.17h-1.35v-7.18z"/></g><g opacity=".4" fill="#999390"><path d="M226.39 215.92v-1.12c1.12-.07 1-.48 1-1.64 0-.52 0-1.18-.43-1.18s-.38.32-.39 1.56h-1.33c0-1 0-2.75 1.72-2.75s1.75 1.74 1.75 2a3.2 3.2 0 0 1-.65 2.42 3.09 3.09 0 0 1 .77 2.52c0 .24-.06 2.45-1.74 2.45s-1.79-1.71-1.79-2.75h1.33c0 1.24.12 1.56.46 1.56s.42-.63.42-1.16c0-1.16.15-1.83-1-1.89zM233.58 218.1c0 .25 0 2.06-1.8 2.06s-1.78-1.81-1.78-2.06V217a2.49 2.49 0 0 1 .7-1.81 2.38 2.38 0 0 1-.63-1.68v-.78c0-.23 0-2 1.72-2s1.72 1.74 1.72 2v.78a2.42 2.42 0 0 1-.62 1.68 2.53 2.53 0 0 1 .7 1.81zm-1.8-2.16c-.46 0-.48.53-.48 1.62s.1 1.36.48 1.36.49-.51.49-1.36c0-1.09-.03-1.62-.49-1.62zm0-4c-.3 0-.38.31-.4 1.26s.05 1.38.4 1.38.4-.42.4-1.38-.05-1.2-.4-1.2z"/></g><g opacity=".4" fill="#999390"><path d="M194.37 200.47v-1.12c1.12-.07 1-.48 1-1.64 0-.52 0-1.18-.42-1.18s-.39.32-.4 1.56h-1.32c0-1 0-2.75 1.72-2.75s1.74 1.74 1.74 2a3.2 3.2 0 0 1-.65 2.42 3.09 3.09 0 0 1 .77 2.52c0 .24-.06 2.45-1.74 2.45S193.3 203 193.3 202h1.32c0 1.24.12 1.56.46 1.56s.42-.63.42-1.16c0-1.16.15-1.83-1-1.89zM199.85 204.71c-1.81 0-1.79-2-1.79-2v-5.39s0-2 1.79-2 1.8 2 1.8 2v5.39s.01 2-1.8 2zm0-8.06c-.47 0-.45.68-.45.68v5.39s0 .68.45.68.45-.68.45-.68v-5.39s.03-.68-.45-.68z"/></g><g opacity=".4" fill="#999390"><path d="M290.43 200.47v-1.12c1.12-.07 1-.48 1-1.64 0-.52 0-1.18-.43-1.18s-.38.32-.4 1.56h-1.3c0-1 0-2.75 1.72-2.75s1.75 1.74 1.75 2a3.2 3.2 0 0 1-.65 2.42 3.09 3.09 0 0 1 .77 2.52c0 .24-.06 2.45-1.74 2.45s-1.79-1.71-1.79-2.75h1.32c0 1.24.13 1.56.47 1.56s.42-.63.42-1.16c0-1.16.15-1.83-1-1.89zM294.05 197.33a1.77 1.77 0 1 1 3.52 0v5.21c0 .65-.08 2.17-1.76 2.17s-1.76-1.52-1.76-2.17V202h1.35c0 1.24 0 1.57.41 1.57s.41-.29.41-1v-1.72a1.33 1.33 0 0 1-.67.22c-1.39 0-1.5-1.42-1.5-1.93zm2.17-.4a.42.42 0 0 0-.41-.41.43.43 0 0 0-.41.41v2.65a.44.44 0 0 0 .41.41.41.41 0 0 0 .41-.37z"/></g><g opacity=".4" fill="#999390"><path d="M337.21 197.43v-.86a1.91 1.91 0 0 0 1.43-1.13h.81v9.17h-1.35v-7.18zM342.68 202.61h-2.08v-1.18l2-6h1.34v6h.63v1.18h-.63v2h-1.23zm-.94-1.18h.94v-3.14h-.08l-.07.27z"/></g><g opacity=".4" fill="#999390"><path d="M385.23 197.43v-.86a1.91 1.91 0 0 0 1.44-1.13h.81v9.17h-1.35v-7.18zM390.68 203.53c.29 0 .41-.29.41-1.22v-2c0-.37-.13-.67-.42-.67s-.53.46-.53.67H389v-4.83h3.26v1.34h-2.1v1.91a1.43 1.43 0 0 1 .77-.32c1.39 0 1.5 1.6 1.5 1.9v2c0 .85-.11 2.4-1.76 2.4s-1.76-1.55-1.76-2.77h1.35v.36c.01.94.11 1.23.42 1.23z"/></g><g opacity=".4" fill="#999390"><path d="M115.16 187.16h-2.09V186l2-6h1.35v6h.58v1.18h-.62v2h-1.23zm-.94-1.18h.94v-3.15h-.08l-.07.28zM118 181.87a1.77 1.77 0 1 1 3.52 0v5.22c0 .64-.08 2.16-1.76 2.16s-1.76-1.52-1.76-2.16v-.58h1.35c0 1.24 0 1.57.41 1.57s.41-.3.41-1v-1.73a1.26 1.26 0 0 1-.67.23c-1.39 0-1.5-1.42-1.5-1.93zm2.17-.39a.43.43 0 0 0-.41-.42.44.44 0 0 0-.41.42v2.65a.44.44 0 0 0 .41.41.41.41 0 0 0 .41-.37z"/></g><g opacity=".4" fill="#999390"><path d="M353.22 182v-.86a1.89 1.89 0 0 0 1.43-1.12h.81v9.16h-1.35V182zM358.66 189.25c-1.8 0-1.79-2-1.79-2v-5.4s0-2 1.79-2 1.8 2 1.8 2v5.4s.01 2-1.8 2zm0-8.05c-.47 0-.44.67-.44.67v5.4s0 .68.44.68.45-.68.45-.68v-5.4s.03-.67-.45-.67z"/></g><g opacity=".4" fill="#999390"><path d="M369.23 182v-.86a1.89 1.89 0 0 0 1.43-1.12h.81v9.16h-1.35V182zM372.84 182.9v-.64c0-1.23.33-2.37 1.8-2.37s1.79 1 1.79 2.28c0 1.87-1.42 4.48-2.11 5.65h2.14v1.33h-3.66v-1.33s2.22-3.32 2.29-5.56c0-.5-.06-1.12-.45-1.12s-.45.54-.45 1.12v.64z"/></g><g opacity=".4" fill="#999390"><path d="M353.22 166.52v-.86a1.89 1.89 0 0 0 1.43-1.12h.81v9.16h-1.35v-7.18zM357.85 169.57v-1.13c1.12-.06 1-.47 1-1.63 0-.52 0-1.18-.43-1.18s-.38.32-.4 1.56h-1.32c0-1 0-2.75 1.72-2.75s1.75 1.74 1.75 2a3.2 3.2 0 0 1-.65 2.42 3.11 3.11 0 0 1 .77 2.52c0 .24-.06 2.44-1.75 2.44s-1.78-1.7-1.78-2.74h1.32c0 1.24.13 1.56.46 1.56s.43-.64.43-1.16c0-1.16.15-1.83-1-1.89z"/></g><g opacity=".4" fill="#999390"><path d="M369.23 166.52v-.86a1.89 1.89 0 0 0 1.43-1.12h.81v9.16h-1.35v-7.18zM372.62 166.52v-.86a1.89 1.89 0 0 0 1.43-1.12h.81v9.16h-1.35v-7.18z"/></g><g opacity=".4" fill="#999390"><path d="M225.36 152v-.63c0-1.24.33-2.37 1.8-2.37s1.79 1 1.79 2.28c0 1.87-1.42 4.47-2.1 5.65H229v1.33h-3.65v-1.33s2.22-3.32 2.28-5.56c0-.5-.05-1.13-.45-1.13s-.45.54-.45 1.13v.63zM230.29 151a1.77 1.77 0 1 1 3.51 0v5.21c0 .65-.07 2.17-1.75 2.17s-1.76-1.52-1.76-2.17v-.57h1.34c0 1.23 0 1.57.42 1.57s.41-.3.41-1v-1.72a1.29 1.29 0 0 1-.68.23c-1.38 0-1.49-1.43-1.49-1.94zm2.17-.4a.42.42 0 0 0-.41-.41.45.45 0 0 0-.42.41v2.66a.45.45 0 0 0 .42.41.43.43 0 0 0 .41-.38z"/></g><g opacity=".4" fill="#999390"><path d="M145.32 136.54v-.63c0-1.24.32-2.37 1.79-2.37s1.8 1 1.8 2.28c0 1.87-1.42 4.48-2.11 5.65h2.13v1.33h-3.65v-1.33s2.22-3.32 2.28-5.56c0-.5-.05-1.12-.45-1.12s-.45.53-.45 1.12v.63zM153.81 140.85c0 .24 0 2.05-1.8 2.05s-1.79-1.81-1.79-2.05v-1.08a2.5 2.5 0 0 1 .69-1.8 2.45 2.45 0 0 1-.62-1.69v-.77c0-.24 0-2 1.72-2s1.72 1.73 1.72 2v.77a2.45 2.45 0 0 1-.62 1.69 2.51 2.51 0 0 1 .7 1.8zm-1.8-2.16c-.46 0-.48.52-.48 1.62s.1 1.36.48 1.36.49-.51.49-1.36c0-1.1-.03-1.62-.5-1.62zm0-4c-.3 0-.38.32-.4 1.26s0 1.39.4 1.39.4-.43.4-1.39-.05-1.23-.41-1.23z"/></g><g opacity=".4" fill="#999390"><path d="M337.21 135.62v-.86a1.89 1.89 0 0 0 1.43-1.12h.81v9.16h-1.35v-7.18zM344.36 140.92a1.77 1.77 0 1 1-3.51 0v-5.21c0-.65.07-2.17 1.75-2.17s1.76 1.52 1.76 2.17v.57H343c0-1.23 0-1.57-.41-1.57s-.41.3-.41 1v1.63a1.27 1.27 0 0 1 .67-.22c1.39 0 1.5 1.42 1.5 1.93zm-1.76.81a.44.44 0 0 0 .41-.41v-2.74a.44.44 0 0 0-.41-.42.42.42 0 0 0-.41.38v2.78a.42.42 0 0 0 .41.41z"/></g><g opacity=".4" fill="#999390"><path d="M97.29 121.09v-.64c0-1.23.32-2.36 1.79-2.36s1.8 1 1.8 2.28c0 1.87-1.42 4.47-2.11 5.64h2.13v1.34h-3.65V126s2.22-3.31 2.28-5.56c0-.49 0-1.12-.45-1.12s-.44.54-.44 1.12v.64zM105.78 125.47a1.77 1.77 0 1 1-3.52 0v-5.22c0-.64.08-2.16 1.76-2.16s1.76 1.52 1.76 2.16v.58h-1.35c0-1.24 0-1.57-.41-1.57s-.41.3-.41 1v1.64a1.26 1.26 0 0 1 .67-.23c1.39 0 1.5 1.42 1.5 1.94zm-1.76.81a.44.44 0 0 0 .41-.42v-2.74a.44.44 0 0 0-.41-.41.41.41 0 0 0-.41.37v2.78a.43.43 0 0 0 .39.42z"/></g><g opacity=".4" fill="#999390"><path d="M161.33 105.64V105c0-1.23.32-2.36 1.79-2.36s1.8 1 1.8 2.28c0 1.87-1.42 4.47-2.11 5.64h2.13v1.34h-3.65v-1.34s2.22-3.31 2.28-5.56c0-.49 0-1.12-.45-1.12s-.45.54-.45 1.12v.64zM168 104.07h-2v-1.34h3.39v1.35L168 111.9h-1.4z"/></g><g opacity=".4" fill="#999390"><path d="M193.35 105.64V105c0-1.23.32-2.36 1.79-2.36s1.79 1 1.79 2.28c0 1.87-1.42 4.47-2.1 5.64H197v1.34h-3.65v-1.34s2.22-3.31 2.28-5.56c0-.49-.05-1.12-.45-1.12s-.45.54-.45 1.12v.64zM200.13 112c-1.81 0-1.8-2-1.8-2v-5.4s0-2 1.8-2 1.79 2 1.79 2v5.4s.01 2-1.79 2zm0-8.06c-.48 0-.45.68-.45.68V110s0 .67.45.67.44-.67.44-.67v-5.4s.03-.66-.44-.66z"/></g><g opacity=".4" fill="#999390"><path d="M273.17 104.72v-.86a1.91 1.91 0 0 0 1.43-1.13h.81v9.17h-1.35v-7.18zM276.76 104.62a1.77 1.77 0 1 1 3.51 0v5.21c0 .65-.07 2.17-1.75 2.17s-1.76-1.52-1.76-2.17v-.57h1.34c0 1.23 0 1.57.42 1.57s.41-.3.41-1v-1.72a1.27 1.27 0 0 1-.68.22c-1.38 0-1.49-1.42-1.49-1.93zm2.17-.4a.42.42 0 0 0-.41-.41.45.45 0 0 0-.42.41v2.65a.45.45 0 0 0 .42.42.43.43 0 0 0 .41-.38z"/></g><g opacity=".4" fill="#999390"><path d="M209.35 90.19v-.64c0-1.23.33-2.37 1.8-2.37s1.79 1 1.79 2.28c0 1.87-1.42 4.48-2.1 5.65H213v1.34h-3.65v-1.34s2.22-3.31 2.28-5.56c0-.5 0-1.12-.45-1.12s-.45.54-.45 1.12v.64zM214.3 90.19v-.64c0-1.23.33-2.37 1.8-2.37s1.79 1 1.79 2.28c0 1.87-1.42 4.48-2.1 5.65h2.13v1.34h-3.65v-1.34s2.21-3.31 2.28-5.56c0-.5-.05-1.12-.45-1.12s-.45.54-.45 1.12v.64z"/></g><g opacity=".4" fill="#999390"><path d="M353.22 89.27v-.87a1.89 1.89 0 0 0 1.43-1.12h.81v9.17h-1.35v-7.18zM358.53 88.62h-2v-1.34h3.39v1.35l-1.35 7.82h-1.39z"/></g><g opacity=".4" fill="#999390"><path d="M225.36 74.74v-.64c0-1.23.33-2.37 1.8-2.37S229 72.76 229 74c0 1.87-1.42 4.48-2.1 5.65h2.1V81h-3.65v-1.34s2.22-3.31 2.28-5.56c0-.5-.05-1.12-.45-1.12s-.45.54-.45 1.12v.64zM231.33 76.86v-1.13c1.13-.06 1-.47 1-1.63 0-.52 0-1.18-.43-1.18s-.38.32-.4 1.56h-1.32c0-1 0-2.75 1.72-2.75s1.75 1.74 1.75 2a3.2 3.2 0 0 1-.65 2.42 3.09 3.09 0 0 1 .77 2.52c0 .24-.06 2.45-1.74 2.45s-1.79-1.71-1.79-2.75h1.32c0 1.24.13 1.56.47 1.56s.42-.64.42-1.16c0-1.16.15-1.83-1-1.89z"/></g><g opacity=".4" fill="#999390"><path d="M305.19 73.81V73a1.89 1.89 0 0 0 1.43-1.12h.81V81h-1.34v-7.19zM312.34 79c0 .25 0 2.06-1.79 2.06s-1.8-1.81-1.8-2.06v-1a2.53 2.53 0 0 1 .7-1.81 2.42 2.42 0 0 1-.62-1.68v-.81c0-.23 0-2 1.72-2s1.72 1.74 1.72 2v.78a2.38 2.38 0 0 1-.63 1.68 2.49 2.49 0 0 1 .7 1.81zm-1.79-2.16c-.46 0-.49.53-.49 1.62s.1 1.36.49 1.36.48-.51.48-1.36c-.03-1.05-.03-1.58-.48-1.58zm0-4c-.3 0-.39.31-.4 1.26s.05 1.38.4 1.38.4-.42.4-1.38-.05-1.18-.4-1.18z"/></g><g opacity=".4" fill="#999390"><path d="M177.34 59.29v-.64c0-1.23.32-2.37 1.79-2.37s1.8 1 1.8 2.28c0 1.87-1.42 4.48-2.11 5.65H181v1.33h-3.7v-1.33s2.22-3.32 2.28-5.56c0-.5-.05-1.12-.45-1.12s-.45.53-.45 1.12v.64zM184.12 64.47c.28 0 .41-.3.41-1.22v-2c0-.38-.14-.68-.42-.68s-.53.46-.53.68h-1.13v-4.87h3.25v1.33h-2.09v1.91a1.45 1.45 0 0 1 .77-.31c1.38 0 1.5 1.6 1.5 1.9v2c0 .85-.12 2.39-1.76 2.39s-1.76-1.54-1.76-2.76h1.35v.36c0 .97.1 1.27.41 1.27z"/></g><g opacity=".4" fill="#999390"><path d="M193.35 43.83v-.64c0-1.23.32-2.36 1.79-2.36s1.79 1 1.79 2.28c0 1.87-1.42 4.47-2.1 5.64H197v1.34h-3.65v-1.34s2.22-3.31 2.28-5.56c0-.49-.05-1.12-.45-1.12s-.45.54-.45 1.12v.64zM200.15 48.09h-2.08v-1.18l2-6h1.35v6h.58v1.18h-.62v2h-1.24zm-.93-1.18h.93v-3.14h-.07L200 44z"/></g><g opacity=".94" fill="#92c01a"><path d="M99.51 383.17v-1.92s0-.92-.61-.92-.61.92-.61.92v7.51s0 .92.61.92.61-.92.61-.92v-2.26h-.73V385h2.57v6.22h-1.09l-.22-.6a1.85 1.85 0 0 1-1.43.74c-2.32 0-2.15-2.71-2.15-2.71v-7.35s0-2.7 2.44-2.7 2.45 2.7 2.45 2.7v1.92zM103.37 378.69h4.19v1.88h-2.36v3.28h1.7v2h-1.7v3.43h2.36v1.89h-4.19zM109.26 391.17v-12.48h1.61c2.2 0 3.35.83 3.35 3.31a2.91 2.91 0 0 1-1.14 2.58s1.28.58 1.28 3.06c0 1.83-.65 3.44-2.84 3.53zm1.84-10.67v3.33c.33 0 1.35.05 1.35-1.66s-1.02-1.67-1.35-1.67zm0 5v3.84c.33 0 1.35.14 1.35-1.92s-1.02-1.91-1.35-1.91zM116.12 378.69H118v12.48h-1.84zM120 378.69h4.2v1.88h-2.36v3.28h1.7v2h-1.7v3.43h2.36v1.89H120zM125.24 380.57v-1.88h5.3v1.88h-1.73v10.6H127v-10.6zM136.45 385.53V384c1.53-.08 1.39-.64 1.39-2.22 0-.72 0-1.62-.57-1.62s-.53.45-.55 2.13h-1.8c0-1.41.05-3.74 2.35-3.74s2.37 2.36 2.37 2.68c0 1.86-.32 2.74-.88 3.3.89.69 1.06 2 1.06 3.43 0 .32-.09 3.33-2.38 3.33S135 389 135 387.57h1.8c0 1.68.17 2.12.63 2.12s.58-.86.58-1.58c0-1.58.2-2.49-1.4-2.58z"/></g><g opacity=".94" fill="#92c01a"><path d="M261.12 429.55v-1.92s0-.91-.61-.91-.61.91-.61.91v7.51s0 .92.61.92.61-.92.61-.92v-2.26h-.73v-1.54H263v6.21h-1.09l-.22-.59a1.87 1.87 0 0 1-1.43.73c-2.32 0-2.15-2.7-2.15-2.7v-7.36s0-2.7 2.44-2.7 2.45 2.7 2.45 2.7v1.92zM265 425.07h4.19V427h-2.36v3.28h1.7v2h-1.7v3.43h2.36v1.88H265zM270.87 437.55v-12.48h1.62c2.19 0 3.34.83 3.34 3.31a2.9 2.9 0 0 1-1.14 2.58s1.28.58 1.28 3.06c0 1.83-.65 3.45-2.84 3.53zm1.84-10.66v3.33c.34 0 1.36 0 1.36-1.67s-1.02-1.66-1.36-1.66zm0 5v3.83c.34 0 1.36.14 1.36-1.91s-1.02-1.91-1.36-1.91zM277.73 425.07h1.84v12.48h-1.84zM281.61 425.07h4.19V427h-2.36v3.28h1.7v2h-1.7v3.43h2.36v1.88h-4.19zM286.85 427v-1.88h5.3V427h-1.73v10.6h-1.83V427zM296.67 429v-.87c0-1.68.44-3.23 2.45-3.23s2.44 1.4 2.44 3.11c0 2.55-1.93 6.1-2.87 7.69h2.91v1.82h-5v-1.82s3-4.51 3.11-7.57c0-.68-.07-1.53-.61-1.53s-.62.73-.62 1.53v.87z"/></g><g opacity=".94" fill="#92c01a"><path d="M134.92 519.38v-1.92s0-.91-.61-.91-.62.91-.62.91V525s0 .92.62.92.61-.92.61-.92v-2.26h-.73v-1.54h2.56v6.21h-1.09l-.22-.59a1.85 1.85 0 0 1-1.42.73c-2.33 0-2.16-2.7-2.16-2.7v-7.36s0-2.7 2.45-2.7 2.44 2.7 2.44 2.7v1.92zM138.77 514.9H143v1.88h-2.36v3.28h1.7v2h-1.7v3.43H143v1.88h-4.2zM144.67 527.38V514.9h1.61c2.19 0 3.34.83 3.34 3.31a2.92 2.92 0 0 1-1.13 2.58s1.27.58 1.27 3.06c0 1.83-.64 3.45-2.84 3.53zm1.83-10.66V520c.34 0 1.36.06 1.36-1.66s-1.02-1.62-1.36-1.62zm0 5v3.83c.34 0 1.36.14 1.36-1.91s-1.02-1.91-1.36-1.91zM151.53 514.9h1.83v12.48h-1.83zM155.4 514.9h4.19v1.88h-2.36v3.28h1.7v2h-1.7v3.43h2.36v1.88h-4.19zM160.65 516.78v-1.88H166v1.88h-1.74v10.6h-1.83v-10.6zM170.16 517.6v-1.17a2.59 2.59 0 0 0 2-1.53h1.1v12.48h-1.83v-9.78z"/></g><g opacity=".94" fill="#92c01a"><path d="M212.14 178.73v-1.92s0-.92-.62-.92-.61.92-.61.92v7.51s0 .91.61.91.62-.91.62-.91v-2.26h-.74v-1.55h2.6v6.22h-1.09l-.22-.6a1.84 1.84 0 0 1-1.43.73c-2.32 0-2.15-2.7-2.15-2.7v-7.35s0-2.7 2.44-2.7 2.45 2.7 2.45 2.7v1.92zM216 174.24h4.19v1.89h-2.36v3.28h1.7v2h-1.7v3.43h2.36v1.89H216zM221.88 186.73v-12.49h1.62c2.19 0 3.34.84 3.34 3.32a2.92 2.92 0 0 1-1.14 2.58s1.28.58 1.28 3.05c0 1.84-.65 3.45-2.84 3.54zm1.84-10.67v3.33c.34 0 1.36.05 1.36-1.66s-1.02-1.67-1.36-1.67zm0 5v3.84c.34 0 1.36.14 1.36-1.92s-1.02-1.91-1.36-1.91zM228.74 174.24h1.84v12.49h-1.84zM232.62 174.24h4.19v1.89h-2.36v3.28h1.7v2h-1.7v3.43h2.36v1.89h-4.19zM237.86 176.13v-1.89h5.3v1.89h-1.73v10.6h-1.83v-10.6zM250.21 184h-2.83v-1.6l2.68-8.16h1.83v8.16h.85v1.6h-.85v2.72h-1.68zm-1.27-1.61h1.27v-4.28h-.1l-.1.37z"/></g><g opacity=".94" fill="#92c01a"><path d="M421.74 555.73c-2.46 0-2.45-2.7-2.45-2.7v-7.36s0-2.7 2.45-2.7 2.44 2.7 2.44 2.7V553s.02 2.73-2.44 2.73zm-2-15.39h1.58V542h-1.58zm2 4.42c-.65 0-.61.91-.61.91V553s0 .91.61.91.61-.91.61-.91v-7.36s.03-.88-.61-.88zm.41-4.42h1.58V542h-1.58zM428.38 543c2.21-.05 2.56 1.92 2.56 3.31l-1.8.17c0-.83-.12-1.8-.73-1.8s-.63.53-.63 1.24.73 1.8 1.45 2.84c.85 1.27 1.71 2.51 1.71 3.86 0 1.66-.54 3.14-2.54 3.14-2.37 0-2.67-1.79-2.67-3.64l1.8-.17c0 1 .1 2.13.87 2.13.54 0 .74-.6.74-1.38s-.78-1.83-1.47-2.89a7.37 7.37 0 0 1-1.69-3.89c.02-1.38.67-2.92 2.4-2.92zM432 545v-1.88h5.3V545h-1.73v10.6h-1.84V545zM438.65 543.11h4.2V545h-2.36v3.28h1.7v2h-1.7v3.43h2.36v1.88h-4.2zM447.82 555.59l-.95-5.26h-.49v5.26h-1.83v-12.48h1.83c2.18 0 3.13 1.26 3.13 3.6a3.48 3.48 0 0 1-1 2.84l1.17 6zm-1.44-10.66v3.7c.51 0 1.36-.07 1.36-1.85s-.85-1.85-1.36-1.85zM454.63 555.59l-.95-5.26h-.49v5.26h-1.83v-12.48h1.83c2.17 0 3.13 1.26 3.13 3.6a3.48 3.48 0 0 1-1 2.84l1.17 6zm-1.44-10.66v3.7c.51 0 1.36-.07 1.36-1.85s-.85-1.85-1.36-1.85zM458.17 543.11h4.19V545H460v3.28h1.7v2H460v3.43h2.36v1.88h-4.19zM464.06 543.11h1.83v12.48h-1.83zM472.7 551.31V553s0 2.7-2.44 2.7-2.45-2.7-2.45-2.7v-7.36s0-2.7 2.45-2.7 2.44 2.7 2.44 2.7v1.72H471v-1.72s.07-.91-.7-.91-.64.91-.64.91V553s0 .91.64.91.7-.91.7-.91v-1.72zM477.75 550.16h-1.43v5.43h-1.83v-12.48h1.83v5.16h1.43v-5.16h1.83v12.48h-1.83z"/></g></g></g></svg>