<svg xmlns="http://www.w3.org/2000/svg" viewBox="0 0 270 47.74"><g data-name="Ebene 2"><g data-name="Ebene 1" fill="#fff"><path d="M21.93 11.91c-.14 1.8-.23 3.74-.23 6.6v14.78c0 6.37-1.25 9.51-3.32 11.49a12.3 12.3 0 0 1-8.41 3 14.62 14.62 0 0 1-7.85-2l.93-2.31a13.43 13.43 0 0 0 7.25 2c5 0 8.58-2.58 8.58-9.74v-3.46h-.09a9 9 0 0 1-8.31 4.62C4.39 36.89 0 31.53 0 24.61c0-8.73 5.59-13.3 11-13.3a8.48 8.48 0 0 1 8 4.62h.09l.14-4zm-3.05 9.56a7.65 7.65 0 0 0-7.57-7.8c-5 0-8.4 4.2-8.4 10.66 0 5.63 2.81 10.25 8.36 10.25a7.83 7.83 0 0 0 7.61-8zM40.48 14.17a5.19 5.19 0 0 0-1.24-.09c-4.16 0-6.56 4.48-6.56 9v13.81h-2.86V19.3c0-2.49-.05-4.94-.19-7.44h2.59l.09 5h.18c1.07-3.09 3.65-5.54 6.93-5.54a7.7 7.7 0 0 1 1.06.14zM60.88 30.93a41.38 41.38 0 0 0 .33 6h-2.63l-.33-3.46h-.14a9 9 0 0 1-7.71 4c-4.89 0-7.29-3.51-7.29-6.92 0-5.87 5.12-9.24 14.91-9.14 0-2.45 0-7.76-6.14-7.76a10.78 10.78 0 0 0-6.14 1.85l-.83-2a13.6 13.6 0 0 1 7.34-2.13c7.06 0 8.63 5.17 8.63 9.88zm-2.81-7.29c-5.22 0-12 .65-12 6.46 0 3.46 2.26 5 4.75 5a6.93 6.93 0 0 0 7.21-6.32zM79.81 15.14A8.43 8.43 0 0 0 75 13.62c-3 0-4.66 1.94-4.66 4.15 0 2.5 1.61 3.56 4.94 5 4 1.62 6.41 3.65 6.41 7.39 0 4.57-3.51 7.25-8.49 7.25a12.47 12.47 0 0 1-6.37-1.71l1-2.31a11.1 11.1 0 0 0 5.54 1.71c3.74 0 5.54-2 5.54-4.57s-1.53-4-5-5.45c-4.07-1.62-6.33-3.88-6.33-6.88 0-3.69 3-6.88 7.8-6.88a10.26 10.26 0 0 1 5.59 1.57zM107.55 36.89h-2.87V22c0-4.34-1.61-8.26-6.46-8.26a7.82 7.82 0 0 0-7.16 5.4 6.37 6.37 0 0 0-.32 2.36v15.39h-2.86V0h2.86v16.11h.09a9.5 9.5 0 0 1 8.17-4.8c2.58 0 8.54 1.39 8.54 10.39zM136.49 24.15c0 9.32-6.24 13.29-11.73 13.29-6.42 0-11.36-4.89-11.36-12.83 0-8.59 5.5-13.3 11.68-13.3 6.92 0 11.41 5.26 11.41 12.84zM125 13.62c-6 0-8.68 5.63-8.68 10.85 0 6 3.65 10.66 8.54 10.66s8.73-4.7 8.73-10.84c-.01-4.58-2.46-10.67-8.59-10.67zM145.53 16.34c1.61-3.13 4.61-5 8.77-5 6.14 0 10.43 5.17 10.43 12.79 0 9.14-5.63 13.34-10.94 13.34a9.07 9.07 0 0 1-8.54-4.89h-.14l-.23 4.34h-2.49c.09-1.71.18-4 .18-5.91V0h2.86v16.34zm-.1 10.9a7.91 7.91 0 0 0 7.95 7.85c5.4 0 8.45-4.57 8.45-10.9 0-5.58-2.91-10.52-8.27-10.52-4.75 0-8.13 4.38-8.13 8.54zM173.77 16.34a9.31 9.31 0 0 1 8.78-5c6.14 0 10.43 5.17 10.43 12.79 0 9.14-5.63 13.34-10.94 13.34a9.07 9.07 0 0 1-8.54-4.89h-.14l-.23 4.34h-2.49c.09-1.71.18-4 .18-5.91V0h2.86v16.34zm-.09 10.9a7.9 7.9 0 0 0 7.94 7.85c5.41 0 8.45-4.57 8.45-10.9 0-5.58-2.91-10.52-8.26-10.52-4.76 0-8.13 4.38-8.13 8.54zM216.47 35.83a16.57 16.57 0 0 1-7.75 1.57c-7.21 0-11.59-5.22-11.59-12.56 0-8.17 4.62-13.53 11.08-13.53 7.94 0 9.6 7.48 9.65 11.36 0 .69-.05 1.11-.09 1.66H200c0 7.76 4.24 10.76 9.14 10.76a14 14 0 0 0 6.69-1.39zM215 22.12c.05-3.56-1.43-8.5-7-8.5-5.17 0-7.43 4.76-7.85 8.5zM234.56 14.17a5.19 5.19 0 0 0-1.24-.09c-4.16 0-6.56 4.48-6.56 9v13.81h-2.86V19.3c0-2.49-.05-4.94-.19-7.44h2.59l.09 5h.19c1.06-3.09 3.64-5.54 6.92-5.54a7.7 7.7 0 0 1 1.06.14zM264.2 35.23a13.05 13.05 0 0 0 5.8-10.62 11.1 11.1 0 0 0-5.8 10.62zM259.58 33.22a6.73 6.73 0 0 1 2.23 3.27 13.55 13.55 0 0 0 .37-4.47 12.59 12.59 0 0 0-.35-2 9 9 0 0 0-2.25 3.2z"/><path d="M248.71 32.72a10.4 10.4 0 0 0-4.14-4.9A9.5 9.5 0 0 1 251 36a10.35 10.35 0 0 0 1.12.51 15 15 0 0 0-6.57-16.81 13.7 13.7 0 0 1 9.16 10.8 11 11 0 0 1 4.55-5.66 13.46 13.46 0 0 0-3.3-2.91 12.11 12.11 0 0 1 4.17 2.42 11.17 11.17 0 0 1 2.53-.9 11.88 11.88 0 0 0-2.1 1.3 12 12 0 0 1 2.71 4 5.41 5.41 0 0 1 .69-.19 6.31 6.31 0 0 0-.63.34c.1.25.19.5.27.76a10.1 10.1 0 0 1 6.38-5.2v-.12a13.06 13.06 0 1 0-22.29 9.25 6.12 6.12 0 0 1 1.02-.87z"/><path d="M257.6 37.41a.43.43 0 0 1 0-.11 8.19 8.19 0 0 1 .9-4.51 6.9 6.9 0 0 0-.92-.69 6.59 6.59 0 0 1 1.05.47 8.23 8.23 0 0 1 3.08-3.09 13.09 13.09 0 0 0-2-4 11.82 11.82 0 0 0-3.42 11.95h.63c.24.01.46-.01.68-.02z"/><path d="M259.39 33.71a8.84 8.84 0 0 0-.49 3.57 12.81 12.81 0 0 0 2-.45 7.28 7.28 0 0 0-1.51-3.12zM248.77 32.87a7.62 7.62 0 0 0-.75 1 14 14 0 0 0 1.33 1.13 10.15 10.15 0 0 0-.58-2.13zM254.14 37.13l.4.08c-.06-.24-.13-.49-.18-.74z"/></g></g></svg>