<svg xmlns="http://www.w3.org/2000/svg" viewBox="0 0 360 360.05"><g data-name="Ebene 2"><g data-name="Ebene 1" fill="#fff"><path d="M280.08 329.64a180 180 0 0 0 79.73-146.41 153 153 0 0 0-79.73 146.41zM216.42 301.85a92.18 92.18 0 0 1 30.66 45 183.42 183.42 0 0 0 5.16-61.6 172.93 172.93 0 0 0-4.79-27.25 124.21 124.21 0 0 0-31.03 43.85z"/><path d="M66.62 294.94A143.9 143.9 0 0 0 9.56 227.5 130.74 130.74 0 0 1 98.26 340v.24a156.33 156.33 0 0 0 15.46 7 205.77 205.77 0 0 0 6.89-73.73c-6-67.58-43.85-124.63-97.37-157.92a188.69 188.69 0 0 1 126.24 148.87 150.63 150.63 0 0 1 62.66-78.06 184.72 184.72 0 0 0-45.52-40.14 166 166 0 0 1 57.46 33.43A150.2 150.2 0 0 1 259 167.23a165.47 165.47 0 0 0-29 18 167.06 167.06 0 0 1 37.42 55.44c3.07-1 6.22-1.82 9.47-2.59-3 1.46-5.89 3.05-8.73 4.7 1.39 3.41 2.64 6.92 3.79 10.44a139.3 139.3 0 0 1 87.94-71.67c0-.49.09-1 .09-1.54C360 80.57 279.39 0 179.93 0S0 80.57 0 180a179.24 179.24 0 0 0 52.85 127.37 86.45 86.45 0 0 1 13.77-12.43z"/><path d="M189.07 359.59c-.09-.47-.16-.93-.23-1.46A112.41 112.41 0 0 1 201.32 296a103.86 103.86 0 0 0-12.74-9.57 94.78 94.78 0 0 1 14.42 6.45 113.79 113.79 0 0 1 42.4-42.53 181.45 181.45 0 0 0-27-55.39 165.13 165.13 0 0 0-52.59 136 163.15 163.15 0 0 0 5.4 28.67c2.93.18 5.76.46 8.71.46s6.18-.38 9.15-.5z"/><path d="M213.77 308.67A123.42 123.42 0 0 0 207 357.8a177 177 0 0 0 27.25-6.13 99.15 99.15 0 0 0-20.48-43zM67.49 297.09a104.81 104.81 0 0 0-10.32 14.28 171.43 171.43 0 0 0 18.34 15 145.08 145.08 0 0 0-8.02-29.28zM141.39 355.78c1.87.43 3.79.76 5.64 1.13-.91-3.41-1.81-6.77-2.59-10.18-.87 3.03-2.02 6-3.05 9.05z"/></g></g></svg>